<?xml version="1.0" standalone="no"?>
<!DOCTYPE svg PUBLIC "-//W3C//DTD SVG 1.1//EN" "http://www.w3.org/Graphics/SVG/1.1/DTD/svg11.dtd" >
<svg xmlns="http://www.w3.org/2000/svg">
<metadata></metadata>
<defs>
<font id="PrintClearlyRegular" horiz-adv-x="946" >
<font-face units-per-em="2048" ascent="1638" descent="-410" />
<missing-glyph horiz-adv-x="608" />
<glyph horiz-adv-x="0" />
<glyph horiz-adv-x="2048" />
<glyph unicode="&#xd;" horiz-adv-x="141" />
<glyph unicode=" "  horiz-adv-x="608" />
<glyph unicode="&#x09;" horiz-adv-x="608" />
<glyph unicode="&#xa0;" horiz-adv-x="608" />
<glyph unicode="!" horiz-adv-x="376" d="M141 38q0 46 47 46t48 -45q0 -47 -48 -47q-47 0 -47 46zM160 270v955q0 29 28 28q29 0 29 -28v-955q0 -30 -29 -30t-28 30z" />
<glyph unicode="&#x22;" horiz-adv-x="483" d="M141 889v332q0 28 29 28t29 -28v-332q0 -29 -29 -29t-29 29zM285 889v332q-1 28 28 28t29 -28v-332q0 -29 -29 -29t-28 29z" />
<glyph unicode="#" horiz-adv-x="937" d="M141 801q0 29 29 28h94l41 177h-135q-29 0 -29 27.5t29 27.5h147l39 164q4 20 27 20q29 0 29 -28q0 -2 -35 -156h252l39 164q4 20 26 20q29 0 29 -28q0 -2 -35 -156h80q29 0 29 -28t-29 -27h-94l-41 -177h135q29 0 29 -28q0 -29 -29 -29h-147l-39 -162q-4 -23 -27 -22 q-29 0 -29 28q0 2 35 156h-252l-39 -162q-4 -23 -26 -22q-29 0 -29 28q0 2 35 156h-80q-29 0 -29 29zM322 829h253l41 177h-254z" />
<glyph unicode="$" horiz-adv-x="997" d="M141 332q0 28 27 28t31 -28q0 -173 133 -260q51 -35 127 -45v602q-317 104 -318 321q0 129 93.5 216t224.5 91v50q4 31 28 30q25 0 29 -32v-52q129 -16 208 -108t79 -221q0 -27 -29 -27q-20 0 -25.5 26.5t-13.5 75.5q-43 170 -219 197v-526q340 -121 340 -373 q0 -147 -95 -237.5t-245 -92.5v-211q0 -29 -29 -28q-29 0 -28 28v213q-145 18 -231.5 116.5t-86.5 246.5zM199 950q0 -172 260 -262v512q-106 -4 -183 -74.5t-77 -175.5zM516 25q125 2 204 75.5t79 198.5q0 203 -283 309v-583z" />
<glyph unicode="%" horiz-adv-x="1497" d="M141 909q0 129 73 242t196 113t198 -121q68 -104 68 -234q0 -129 -68 -233q-75 -121 -198 -121t-196 112.5t-73 241.5zM199 909q0 -106 51 -192q59 -104 158.5 -104.5t158.5 104.5q51 86 51 192t-51 193q-59 104 -158 104t-159 -104q-51 -86 -51 -193zM440 4 q0 6 574 1210q8 16 26 17q27 0 27 -29q0 -6 -571 -1210q-9 -17 -27 -17q-29 0 -29 29zM821 295q0 129 72 240.5t194 111.5q123 0 196 -111.5t73 -240.5t-73 -242t-196 -112q-123 0 -194.5 112.5t-71.5 241.5zM877 294q0 -105 56 -200.5t154 -95.5t154.5 95t56.5 200.5 t-56.5 202t-154.5 96.5t-154 -96.5t-56 -201.5z" />
<glyph unicode="&#x26;" horiz-adv-x="1589" d="M141 217q0 131 131 262q72 72 242 187q-152 186 -152 320t92.5 211t209.5 77t187.5 -63.5t70.5 -176.5t-113 -221q-53 -51 -211 -160q186 -207 582 -473q96 139 96 301q0 27 -10.5 77t-10.5 69q0 29 29 28q47 0 47 -177t-102 -331q74 -45 207 -133q12 -10 12 -24 q0 -29 -27 -29q-16 0 -227 141q-190 -237 -573 -237q-346 0 -445 207q-35 74 -35 145zM199 213q0 -152 141 -229q113 -61 278 -62q356 0 529 211q-403 273 -596 490q-160 -109 -225 -170q-127 -123 -127 -240zM420 1001q0 -131 139 -303q152 100 195 142q111 100 110.5 191 t-53.5 138.5t-146 47.5t-169 -60t-76 -156z" />
<glyph unicode="'" horiz-adv-x="339" d="M141 889v332q0 28 29 28t29 -28v-332q0 -29 -29 -29t-29 29z" />
<glyph unicode="(" horiz-adv-x="630" d="M141 393q0 371 113 627q86 193 207 192q29 0 28 -28q0 -29 -28 -29q-94 0 -168 -186q-94 -236 -94 -576q0 -339 94 -575q74 -186 168 -187q29 0 28 -26q1 -29 -28 -29q-121 0 -207 193q-113 252 -113 624z" />
<glyph unicode=")" horiz-adv-x="630" d="M141 -396.5q0 -27.5 29 -27.5q121 0 207 193q114 254 112 624q0 374 -112 627q-86 193 -207 192q-29 0 -29 -28q0 -29 29 -29q94 0 168 -186q94 -236 94 -576q0 -339 -94 -575q-74 -186 -168 -187q-29 0 -29 -27.5z" />
<glyph unicode="*" horiz-adv-x="843" d="M141 725q0 14 13 25l227 151l-227 154q-12 10 -13 24q0 29 29 29q8 0 225 -147v235q0 29 29 29t29 -29v-246q213 145 221 146q29 0 28 -29q0 -14 -12 -25l-209 -141l209 -139q12 -10 12 -25q0 -29 -28 -28q-8 0 -221 145v-246q0 -29 -29 -28q-29 0 -29 28v236 q-217 -148 -225 -148q-29 0 -29 29z" />
<glyph unicode="+" horiz-adv-x="909" d="M141 657q0 29 29 29h256v256q0 29 29 29t28 -29v-256h256q29 0 29 -29t-29 -28h-256v-256q0 -29 -28 -29q-29 0 -29 29v256h-256q-29 0 -29 28z" />
<glyph unicode="," horiz-adv-x="397" d="M141 -139q25 49 54 135q-33 10 -33 45q0 47 46 47t48 -47v-12q2 -41 -27 -119t-58.5 -78t-29.5 29z" />
<glyph unicode="-" horiz-adv-x="743" d="M141 664q0 29 29 28h405q27 0 27 -28q0 -29 -27 -29h-405q-29 0 -29 29z" />
<glyph unicode="." horiz-adv-x="376" d="M141 38q0 46 47 46t48 -45q0 -47 -48 -47q-47 0 -47 46z" />
<glyph unicode="/" horiz-adv-x="700" d="M141 4q0 4 363 1213q6 20 26 20q29 0 29 -29q0 -4 -362 -1212q-7 -21 -27 -21q-29 0 -29 29z" />
<glyph unicode="0" horiz-adv-x="1110" d="M131 624q0 175 63.5 343.5t190.5 253.5q80 53 169 53t171 -53q127 -84 190.5 -253.5t63.5 -344t-63.5 -342.5t-190.5 -254q-82 -53 -171 -53.5t-169 53.5q-127 86 -190.5 254t-63.5 343zM240 319q63 -168 178 -243q65 -45 137 -45t137 45q115 76 172 231t57.5 316.5 t-57 318t-172.5 232.5q-66 43 -137 43q-72 0 -137 -43q-115 -76 -172 -232q-116 -319 -6 -623z" />
<glyph unicode="1" horiz-adv-x="866" d="M268 1100q0 14 13 22q168 115 176 115q29 0 28 -29v-1149h84q29 0 29 -28q0 -29 -29 -29h-223q-29 0 -29 29t29 28h82v1096q-123 -84 -131 -84q-29 0 -29 29z" />
<glyph unicode="2" horiz-adv-x="962" d="M131 905q0 147 102.5 252t247.5 105t247.5 -104.5t102.5 -252.5q0 -203 -159 -342q-152 -106 -301 -211q-166 -127 -176 -297h593q29 0 29 -28q0 -29 -29 -29h-624l-10 2l-11 6l-6 10l-2 11q0 205 166 344q154 106 307 215q164 131 164 315q0 125 -84 214t-207 89 t-208 -88t-85 -211q0 -29 -28 -28q-29 0 -29 28z" />
<glyph unicode="3" horiz-adv-x="1009" d="M131 332q0 29 29 28q29 0 28 -28q0 -129 94.5 -217t222.5 -88t222 88t94 216t-94 217t-223 89q-27 0 -27 29t29 28q113 0 199 74t86 184q0 111 -86.5 184.5t-200 73.5t-199.5 -73.5t-86 -184.5q0 -29 -29 -28q-29 0 -28 28q0 135 103.5 225.5t239.5 90.5t239.5 -90.5 t103.5 -225.5q0 -94 -55.5 -170.5t-145.5 -115.5q104 -41 168 -132.5t64 -201.5q0 -152 -111 -257.5t-263.5 -105.5t-263 105.5t-110.5 257.5z" />
<glyph unicode="4" horiz-adv-x="983" d="M131 649v6l100 580q4 25 29 25q31 0 29 -29v-4l-94 -549h452v553q0 29 29 29t29 -29v-553h118q29 0 29 -29t-29 -28h-118v-598q0 -29 -29 -29t-29 29v598h-487q-29 0 -29 28z" />
<glyph unicode="5" horiz-adv-x="972" d="M131 371q0 76 35 75q25 0 24 -32v-23q-2 -14 -2 -20q0 -137 83 -236.5t217 -99.5t215.5 120t81 262t-81 263t-217 121t-257.5 -119q-14 -12 -30 -6q-16 -6 -28.5 4t-10.5 25l57 497q2 25 29 25h536q29 0 29 -29t-29 -29h-512l-47 -411q119 100 271.5 100t250 -137 t97.5 -303t-97 -303t-255.5 -137.5t-258.5 116.5t-100 277z" />
<glyph unicode="6" horiz-adv-x="1013" d="M131 418q0 209 78 403.5t217 318.5t215 124q29 0 29 -29q0 -18 -24.5 -27.5t-76.5 -33.5q-141 -80 -236 -236t-128 -328q113 166 303 166q160 0 267 -119t107.5 -279.5t-107.5 -279.5t-259 -118.5t-255.5 100.5t-123.5 244q-6 12 -6 94zM190 377q0 -137 91.5 -238.5 t226.5 -101.5t229 102q88 100 88 238q0 137 -91 239t-226 103q-135 0 -226.5 -102.5t-91.5 -239.5z" />
<glyph unicode="7" horiz-adv-x="962" d="M131 1198q0 29 27 29h645q29 0 28 -29q0 -4 -450 -1192q-8 -18 -27 -18q-29 0 -28 28q0 4 434 1153h-600q-29 0 -29 29z" />
<glyph unicode="8" horiz-adv-x="1009" d="M131 338q0 111 63.5 202t167.5 134q-90 37 -145 113.5t-55 170.5q0 135 103.5 225.5t239.5 90.5t239.5 -90t103.5 -226q0 -94 -55.5 -170.5t-145.5 -113.5q104 -43 168 -134t64 -202q0 -152 -111 -257.5t-263.5 -105.5t-263 105.5t-110.5 257.5zM188 339 q0 -128 94.5 -217t222.5 -89t222 89t94 217t-94 216t-222 88t-222.5 -88t-94.5 -216zM219 958q0 -111 86 -184.5t200 -73.5t200 74t86 184q0 111 -86.5 185t-200 74t-199.5 -74t-86 -185z" />
<glyph unicode="9" horiz-adv-x="1009" d="M131 900.5q0 152.5 110.5 258t268.5 105.5t263.5 -111t105.5 -274q0 -207 -95.5 -416t-248.5 -371q-39 -39 -119 -106q-8 -6 -17 -6q-29 0 -28 28q0 12 10 23q39 33 113 104q227 242 299 535q-113 -131 -277 -131t-274.5 104.5t-110.5 257zM188 900q0 -128 94.5 -216 t222.5 -88t222 88t94 216t-94 216t-222 88t-222.5 -88t-94.5 -216z" />
<glyph unicode=":" horiz-adv-x="376" d="M141 37q0 47 47 47t48 -47q0 -47 -48 -47q-47 0 -47 47zM141 621.5q0 46.5 47 46.5t48 -45q-1 -48 -48 -48t-47 46.5z" />
<glyph unicode=";" horiz-adv-x="397" d="M141 -139q25 49 54 135q-33 10 -33 45q0 47 46 47t48 -47v-12q2 -41 -27 -119t-58.5 -78t-29.5 29zM162 621.5q0 46.5 47 46.5t47 -46.5t-47 -46.5t-47 46.5z" />
<glyph unicode="&#x3c;" horiz-adv-x="788" d="M141.5 662.5q-0.5 19.5 12.5 29.5l448 299q8 6 16 6q29 0 29 -28q0 -16 -12 -25l-422 -280l422 -283q12 -8 12 -23q0 -28 -29 -28q-8 0 -16 4l-448 301q-12 8 -12.5 27.5z" />
<glyph unicode="=" horiz-adv-x="909" d="M141 563q0 29 29 29h569q29 0 29 -29t-29 -28h-569q-29 0 -29 28zM141 778q0 29 29 29h569q29 0 29 -29t-29 -28h-569q-29 0 -29 28z" />
<glyph unicode="&#x3e;" horiz-adv-x="788" d="M141 358q0 -28 29 -28q8 0 16 4l449 301q12 8 12 27.5t-12 29.5l-449 299q-8 6 -16 6q-29 0 -29 -28q0 -16 13 -25l421 -280l-421 -283q-12 -8 -13 -23z" />
<glyph unicode="?" horiz-adv-x="987" d="M141 920q0 156 100.5 250t252 94t252 -90.5t100.5 -222.5t-74 -220q-35 -41 -168 -143q-82 -63 -111.5 -126t-29.5 -167q0 -55 -29 -55t-28 41v14q0 119 35.5 192.5t144 157.5t133.5 113q70 76 69.5 187.5t-84 186t-209.5 74.5t-211 -75.5t-85 -202.5q0 -35 -29 -35 t-29 27zM385 37q0 47 47 47t47 -47t-47 -47t-47 47z" />
<glyph unicode="@" horiz-adv-x="1761" d="M141 358q0 283 158 505t426 317q115 41 238 41q283 0 470 -187.5t187 -470.5q0 -391 -252 -579q-115 -86 -211 -86q-84 0 -84 92q0 8 21 157q-119 -174 -306 -174q-125 0 -204.5 88.5t-79.5 230t111.5 265t265.5 123.5q190 0 262 -180l20 143q4 25 33 25t23 -33l-86 -623 q-4 -16 -5 -22q0 -35 29 -35q186 0 305 223q100 186 101 385q0 258 -170 429t-430 171q-113 0 -218 -37q-252 -88 -399 -295.5t-147 -474.5q0 -305 203.5 -511.5t512.5 -206.5t474 206q10 12 22 13q29 0 29 -29q0 -8 -4 -16q-74 -113 -223.5 -172.5t-301.5 -59.5 q-328 0 -549 224.5t-221 553.5zM561 292.5q0 -117.5 62.5 -189.5t179 -72t212 106.5t95.5 224t-63.5 189.5t-179 72t-211 -106.5t-95.5 -224z" />
<glyph unicode="A" horiz-adv-x="1126" d="M131 14q0 4 404 1235q6 18 28 19q23 0 29 -19q403 -1231 403 -1235q0 -28 -26 -28h-2q-20 0 -29 20l-154 471h-442l-156 -471q-6 -20 -26 -20q-29 0 -29 28zM360 535h406l-203 616z" />
<glyph unicode="B" horiz-adv-x="950" d="M141 20v1207q0 28 27 28h2h279q121 0 202.5 -93t81.5 -218q0 -186 -151 -274q104 -37 170.5 -128t66.5 -202q0 -147 -106.5 -249.5t-253.5 -102.5h-287q-31 0 -31 32zM199 45h260q123 0 213 86t90 209t-90 209t-213 86h-260v-590zM199 692h247q98 0 164 76t66 176 t-64.5 177t-162.5 77h-250v-506z" />
<glyph unicode="C" horiz-adv-x="1042" d="M131 626q0 175 63.5 342.5t190.5 254.5q80 53 170 53q178 0 303 -195q53 -84 53 -110.5t-28 -26.5q-18 0 -27 19q-127 256 -301 256q-72 0 -137 -45q-115 -76 -172 -232q-58 -157 -58 -319q0 -159 58 -313q58 -156 172 -234q66 -43 137 -43q174 0 301 256q8 18 27 18 q28 0 28 -26q0 -27 -53 -111q-125 -195 -303 -195q-90 0 -170 54q-127 84 -190.5 253t-63.5 344z" />
<glyph unicode="D" horiz-adv-x="995" d="M141 16v1205q0 30 29 30h2h295q133 0 238 -127q86 -102 122.5 -236.5t36.5 -266t-37 -267t-122 -237.5q-104 -125 -238 -125h-285q-6 -4 -12 -4q-29 0 -29 28zM199 49h268q115 0 205 115q135 174 135 458q0 279 -135 455q-90 117 -205 117h-268v-1145z" />
<glyph unicode="E" horiz-adv-x="882" d="M141 23v1200q0 28 27 28h2h553q29 0 29 -28q0 -29 -29 -29h-524v-496h342q29 0 28 -28q0 -29 -28 -29h-342v-590h524q29 0 29 -28q0 -29 -29 -29h-553q-29 0 -29 29z" />
<glyph unicode="F" horiz-adv-x="882" d="M141 20v1201q0 28 27 28h2h553q29 0 29 -28q0 -29 -29 -29h-524v-496h342q29 0 28 -28q0 -29 -28 -29h-342v-619q0 -28 -29 -28t-29 28z" />
<glyph unicode="G" horiz-adv-x="1110" d="M131 628q0 175 63.5 343.5t190.5 253.5q80 53 170 53q178 0 303 -195q53 -84 53 -110.5t-28 -26.5q-18 0 -29.5 24t-44.5 83q-106 168 -254 168q-72 0 -137 -43q-115 -78 -172 -234q-58 -156 -58 -319q0 -159 58 -313q57 -156 172 -234q66 -43 137 -43q129 0 227 131 q80 104 106.5 218t31.5 216h-265q-29 0 -28 29q0 29 28 28h295q29 0 29 -28q0 -176 -63.5 -344t-190.5 -254q-82 -54 -171 -54t-169 54q-127 86 -190.5 254t-63.5 343z" />
<glyph unicode="H" horiz-adv-x="935" d="M141 18v1209q0 28 27 28h2q29 0 29 -28v-537h538v537q0 28 27 28h2q29 0 29 -28v-1209q0 -28 -27 -28h-2q-29 0 -29 28v615h-538v-615q0 -28 -29 -28t-29 28z" />
<glyph unicode="I" horiz-adv-x="544" d="M131 35q0 29 29 28h84v1117h-84q-29 0 -29 28q0 29 29 29h225q29 0 29 -29t-29 -28h-84v-1117h84q29 0 29 -28q0 -29 -29 -29h-225q-29 0 -29 29z" />
<glyph unicode="J" horiz-adv-x="1112" d="M131 309q0 29 29 29t28 -29q0 -115 86 -193.5t201 -78.5q289 0 289 344v795q0 6 2 10h-137q-29 0 -29 28q0 29 29 29h323q29 0 29 -29t-29 -28h-133q2 -4 2 -805q0 -401 -346 -401q-139 0 -241.5 95t-102.5 234z" />
<glyph unicode="K" horiz-adv-x="1003" d="M141 20v1209q0 28 27 28h2q29 0 29 -28v-588l585 606q8 10 21 10q29 0 29 -28q0 -12 -9 -21l-419 -436q467 -748 466 -756q0 -28 -26 -28h-2q-16 0 -25 14l-454 727l-166 -172v-537q0 -28 -29 -28t-29 28z" />
<glyph unicode="L" horiz-adv-x="882" d="M141 29v1198q0 28 27 28h2q29 0 29 -28v-1170h524q29 0 29 -28q0 -29 -29 -29h-553q-29 0 -29 29z" />
<glyph unicode="M" horiz-adv-x="1216" d="M141 16v1203q0 28 27 28h2q23 0 33 -26l405 -1106l410 1114q6 18 29 18q29 0 28 -28v-1203q0 -28 -26 -28h-2q-29 0 -29 28v1045l-379 -1032q0 -31 -29 -31q-20 0 -26 20l-385 1047v-1049q0 -28 -29 -28t-29 28z" />
<glyph unicode="N" horiz-adv-x="937" d="M141 16v1209q0 29 29 28q18 0 27 -16l542 -1094v1086q0 28 27 28h2q29 0 29 -28v-1209q0 -29 -29 -28q-18 0 -25 16l-544 1094v-1086q0 -28 -27 -28h-2q-29 0 -29 28z" />
<glyph unicode="O" horiz-adv-x="1110" d="M131 624q0 175 63.5 343.5t190.5 253.5q80 53 169 53t171 -53q127 -84 190.5 -253.5t63.5 -344t-63.5 -342.5t-190.5 -254q-82 -53 -171 -53q-1 0 -2 -1q-88 0 -167 54q-127 86 -190.5 254t-63.5 343zM240 319q63 -168 178 -243q65 -45 137 -45t137 45q115 76 172 231 q58 156 58 319q0 160 -58 316t-172 232q-66 43 -137 43q-72 0 -137 -43q-115 -76 -172 -232q-60 -164 -60 -324q0 -151 54 -299z" />
<glyph unicode="P" horiz-adv-x="919" d="M141 16v1207q0 28 27 28h2h264q145 0 249.5 -103.5t104.5 -248.5t-104 -248.5t-250 -103.5h-235v-531q0 -28 -27 -28h-2q-29 0 -29 28zM199 604h235q123 0 210 86t87 209t-87 209t-210 86h-235v-590z" />
<glyph unicode="Q" horiz-adv-x="1110" d="M131 622q0 175 63.5 343.5t190.5 253.5q80 53 169 53t171 -53q127 -84 190.5 -252.5t63.5 -343.5q0 -283 -129 -469q102 -137 102 -148q0 -29 -28 -29q-14 0 -23 13l-88 116q-113 -135 -258 -135q-90 0 -170 54q-127 86 -190.5 254t-63.5 343zM188 623q0 -160 57.5 -317 t172.5 -232q66 -45 137 -45q123 0 223 125q-113 152 -112 161q0 29 28 29q14 0 23 -12l96 -129q109 174 109 420q0 160 -57.5 316.5t-172.5 231.5q-66 43 -137 43q-72 0 -137 -43q-115 -76 -172 -232t-58 -316z" />
<glyph unicode="R" horiz-adv-x="911" d="M141 18v1196q0 29 29 29h264q145 0 249.5 -102.5t104.5 -234.5t-72.5 -226t-187.5 -125q279 -528 279 -535q0 -29 -29 -28q-16 0 -24 14l-285 539q-18 -2 -270 -2v-525q0 -28 -27 -28h-2q-29 0 -29 28zM199 600h235q123 0 210 86t87 207t-87 207t-210 86h-235v-586z" />
<glyph unicode="S" horiz-adv-x="983" d="M131 336q0 29 27 29t30 -29q0 -173 136 -260q74 -49 190.5 -49t198.5 74.5t82 201.5q0 219 -330 328q-156 51 -227 110q-107 84 -107 219q-1 133 97 221q98 89 238 89t236.5 -95.5t96.5 -240.5q0 -29 -31 -29q-20 0 -29 29q0 27 -10 80q-51 193 -260 196l-10 2h-6 q-105 0 -184 -72q-81 -74 -81 -184t97 -180q59 -43 198 -90q369 -125 369 -383q0 -152 -98.5 -243t-256 -91t-262 102.5t-104.5 264.5z" />
<glyph unicode="T" horiz-adv-x="950" d="M131 1208q0 29 29 29h631q28 0 28 -27q0 -31 -28 -30h-287v-1155q0 -29 -29 -29t-29 29v1155h-286q-29 0 -29 28z" />
<glyph unicode="U" horiz-adv-x="1034" d="M141 326v905q0 29 29 29t29 -29v-905q0 -138 88 -216q87 -77 227 -77h4q143 0 230.5 75.5t87.5 217.5v905q-1 29 28 29t29 -29v-905q0 -166 -103.5 -258.5t-270.5 -92.5t-272.5 93.5t-105.5 257.5z" />
<glyph unicode="V" horiz-adv-x="1126" d="M131 1223q0 28 27 28h2q20 0 26 -18l377 -1157l375 1157q9 18 29 18q29 0 28 -28q0 -4 -403 -1246q-6 -18 -29 -18t-28 18q-403 1241 -404 1246z" />
<glyph unicode="W" horiz-adv-x="1720" d="M131 1225q0 28 27 28h2q23 0 28 -22l322 -1141l321 1141q6 20 29 20t29 -20l321 -1141l324 1141q7 22 27 22q29 0 28 -28q0 -4 -350 -1245q-4 -20 -28 -20.5t-29 20.5l-322 1140l-321 -1140q-6 -20 -29 -21q-23 0 -29 21q-350 1241 -350 1245z" />
<glyph unicode="X" horiz-adv-x="991" d="M131 25q0 6 332 598q-332 590 -332 596q0 28 27 28h2q16 0 24 -14l312 -553l309 553q10 14 26 14q29 0 29 -28q0 -6 -332 -596q332 -592 332 -598q0 -29 -29 -29q-16 0 -26 14l-309 553l-312 -553q-8 -14 -24 -14q-29 0 -29 29z" />
<glyph unicode="Y" horiz-adv-x="978" d="M131 1223q0 28 27 28h2q16 0 24 -16l305 -573l306 573q8 16 24 16q29 0 29 -28q0 -8 -330 -631v-572q0 -28 -27 -28h-2q-29 0 -28 28v574q-330 621 -330 629z" />
<glyph unicode="Z" horiz-adv-x="993" d="M131 39q0 8 653 1139h-602q-29 0 -28 28q0 29 28 29h652q28 0 28 -29q0 -6 -653 -1138h604q29 0 29 -29t-29 -29h-653q-29 0 -29 29z" />
<glyph unicode="[" horiz-adv-x="13580" d="M12753 -381v1583q0 29 29 29h282q29 0 29 -29t-29 -28h-254v-1526h254q29 0 29 -29t-29 -29h-282q-29 0 -29 29z" />
<glyph unicode="\" horiz-adv-x="13580" d="M7932 4q0 4 362 1213q6 20 27 20q29 0 29 -29q0 -4 -363 -1212q-6 -21 -26 -21q-29 0 -29 29z" />
<glyph unicode="]" horiz-adv-x="13580" d="M12753 -381q0 -29 29 -29h282q29 0 29 29v1583q0 29 -29 29h-282q-29 0 -29 -29t29 -28h256v-1526h-256q-29 0 -29 -29z" />
<glyph unicode="^" horiz-adv-x="13580" d="M8563 729q0 6 217 461q6 16 28 16q23 0 29 -16q217 -455 217 -461q1 -29 -28 -29q-18 0 -25 17l-193 401l-192 -401q-6 -16 -30 -16.5t-23 28.5z" />
<glyph unicode="_" horiz-adv-x="1062" d="M141 -82h781v-29h-781v29z" />
<glyph unicode="`" horiz-adv-x="528" d="M141 1180q0 28 29 28q12 0 20 -8l189 -188q8 -8 8 -21q0 -29 -29 -28q-12 0 -20 8l-188 188q-8 8 -9 21z" />
<glyph unicode="a" d="M131 330q0 143 94 249.5t236 106.5q190 0 287 -178v137q-1 29 28 29t29 -29v-625q0 -29 -29 -28q-29 0 -28 28v132q-96 -178 -287 -179q-141 0 -235.5 106.5t-94.5 250.5zM188 330q0 -119 78 -209t195 -90t194.5 90t77.5 209t-77.5 209t-194.5 90t-195 -90t-78 -209z" />
<glyph unicode="b" d="M141 14v1200q0 29 29 29t29 -29v-712q96 180 286 180q139 0 234.5 -107.5t95.5 -249.5t-95 -249t-235 -107q-190 0 -286 178v-133q0 -29 -29 -28q-29 0 -29 28zM211 326q0 -119 78.5 -209t195.5 -90t195 90t78 209t-78 209t-195 90t-195.5 -90.5t-78.5 -208.5z" />
<glyph unicode="c" horiz-adv-x="872" d="M131 330q0 143 94 249.5t233.5 106.5t237.5 -104q41 -47 41 -66q0 -29 -28 -29q-12 0 -23 11q-80 131 -225 131q-117 0 -195 -90t-78 -209t78 -209t195 -90q66 0 129 35.5t94 91.5q10 18 27 18q30 0 30 -29q0 -8 -6 -16q-98 -158 -274 -158q-141 0 -235.5 106.5 t-94.5 250.5z" />
<glyph unicode="d" d="M131 326.5q0 142.5 94 250t236 107.5q190 0 287 -180v713q-1 28 28 28t29 -28v-1199q0 -29 -29 -28q-29 0 -28 28v132q-96 -178 -287 -179q-139 0 -234.5 106.5t-95.5 249zM188 328q0 -119 78 -209t195 -90t194.5 90t77.5 209t-77.5 209t-194.5 90t-195 -90.5t-78 -208.5 z" />
<glyph unicode="e" horiz-adv-x="923" d="M131 330q0 143 94.5 249.5t235.5 106.5t236.5 -106.5t95.5 -249.5q0 -29 -31 -29h-572q10 -111 86 -190.5t185 -79.5q150 0 235 121q10 14 25 14q29 0 29 -29q0 -8 -5 -14q-86 -150 -284 -150q-139 0 -234.5 106.5t-95.5 250.5zM190 358h541q-10 111 -86 191t-184 80 q-109 0 -185 -80t-86 -191z" />
<glyph unicode="f" horiz-adv-x="882" d="M131 672q0 29 29 28h131v334q0 102 61.5 157.5t165.5 55.5q57 0 129 -33.5t98 -78.5q6 -10 7 -19q0 -29 -29 -29l-65 51q-66 52 -138 52q-172 0 -172 -143v-347h207q29 1 29 -28t-29 -29h-207v-629q0 -28 -27 -28h-2q-29 0 -28 28v629h-131q-29 0 -29 29z" />
<glyph unicode="g" horiz-adv-x="935" d="M131 332.5q0 142.5 94 249t236 106.5q178 0 276 -162v117q0 29 29 29t29 -29v-819q0 -18 -15 -53q-70 -172 -305 -172q-63 0 -147 27.5t-119 70.5q-10 10 -10 20q0 29 28 29q-6 0 78 -45t170 -45q193 0 250 127q12 27 12 41v313q-98 -162 -276 -162q-141 0 -235.5 107.5 t-94.5 250zM188 332q0 -119 78 -209t195 -90t194.5 90t77.5 209t-77.5 209t-194.5 90t-195 -90t-78 -209z" />
<glyph unicode="h" horiz-adv-x="833" d="M141 16v1198q0 29 29 29t29 -29v-677q81 147 239 147q121 0 193 -90t71 -213v-365q0 -28 -26 -28h-2q-29 0 -29 28v365q0 100 -53 168q-57 78 -168 78q-111 -1 -173 -93q-55 -82 -55 -190q0 -14 1 -29l2 -24v-275q0 -28 -27 -28h-2q-29 0 -29 28z" />
<glyph unicode="i" horiz-adv-x="376" d="M141 869q0 46 47 46q48 0 48 -46t-48 -46q-47 0 -47 46zM160 16v623q-1 29 28 29t29 -29v-623q0 -28 -27 -28h-2q-29 0 -28 28z" />
<glyph unicode="j" horiz-adv-x="389" d="M-23 -369.5q0 27.5 29 29.5q94 8 131 66.5t37 146.5v766q0 29 29 29t28 -29v-772q0 -113 -57 -184q-59 -80 -168 -80q-29 0 -29 27.5zM156 869q0 46 46 46t46 -46t-46 -46t-46 46z" />
<glyph unicode="k" horiz-adv-x="745" d="M141 14v1200q0 29 29 29t29 -29v-858l385 316q8 8 18 8q29 0 29 -29q0 -14 -10 -22l-259 -213l275 -385q4 -8 4 -17q0 -28 -27 -28h-2q-14 0 -22 12l-273 381l-118 -98v-267q0 -28 -27 -28h-2q-29 0 -29 28z" />
<glyph unicode="l" horiz-adv-x="339" d="M141 14v1200q0 29 29 29t29 -29v-1200q0 -28 -27 -28h-2q-29 0 -29 28z" />
<glyph unicode="m" horiz-adv-x="1335" d="M141 16v627q0 29 29 29t29 -29v-104q82 145 239 145q182 0 244 -182q80 182 258 182q121 0 192.5 -89t71.5 -212v-367q0 -28 -26 -28h-2q-29 0 -29 28v367q0 100 -53 168q-55 76 -164 76t-168 -100.5t-60 -227.5v-283q0 -28 -26 -28h-2q-29 0 -29 28v367q0 100 -55 172 t-166 72t-170 -87q-55 -81 -55 -215v-18v-291q0 -28 -27 -28h-2q-29 0 -29 28z" />
<glyph unicode="n" horiz-adv-x="831" d="M141 18v627q0 29 29 29t29 -29v-100q83 143 237 143q121 0 193 -90t71 -213v-365q0 -29 -28 -28q-29 0 -29 28v365q0 100 -55.5 173t-164 73t-166.5 -92.5t-58 -233.5v-287q0 -28 -27 -28h-2q-29 0 -29 28z" />
<glyph unicode="o" horiz-adv-x="923" d="M131 330.5q0 142.5 94.5 250t235.5 107.5t236.5 -107.5t95.5 -249.5t-95.5 -249t-236.5 -107t-235.5 106.5t-94.5 249zM188 332q0 -119 78 -209t195 -90t194.5 90t77.5 209t-77.5 208t-194.5 89t-195 -89t-78 -208z" />
<glyph unicode="p" d="M141 -375v1020q0 29 29 29t29 -29v-139q96 180 286 180q139 0 234.5 -106t95.5 -250q0 -143 -95 -250t-235 -107q-190 0 -286 179v-527q0 -28 -27 -28h-2q-29 0 -29 28zM211 330q0 -119 78.5 -209t195.5 -90t195 90t78 209t-78 209t-195 90t-195.5 -90t-78.5 -209z" />
<glyph unicode="q" d="M131 330q0 143 94 249.5t236 106.5q190 0 287 -178v137q-1 29 28 29t29 -29v-1020q0 -28 -27 -28h-2q-29 0 -28 28v527q-96 -178 -287 -179q-141 0 -235.5 106.5t-94.5 250.5zM188 330q0 -119 78 -209t195 -90t194.5 90t77.5 209t-77.5 209t-194.5 90t-195 -90t-78 -209z " />
<glyph unicode="r" horiz-adv-x="600" d="M141 18v625q0 29 29 29t29 -29v-127q39 66 104 111t135 45q31 0 31 -27t-27 -31q-121 -16 -184 -110q-59 -84 -59 -211v-275q0 -28 -27 -28h-2q-29 0 -29 28z" />
<glyph unicode="s" horiz-adv-x="821" d="M131 182q0 47 35 47q23 0 22 -32q0 -168 226 -168q82 0 150.5 39.5t68.5 115.5q0 86 -129 123l-238 58q-127 43 -127 139t90 141q70 35 177.5 35t187.5 -48t80 -153q0 -27 -31 -26q-25 0 -28 39.5t-31 72.5q-49 57 -183 58q-204 0 -204 -113q0 -72 123 -102.5t241 -59.5 q129 -51 129 -157.5t-86 -162.5t-196 -56q-1 0 -3 -1q-109 0 -191 51q-83 51 -83 160z" />
<glyph unicode="t" horiz-adv-x="620" d="M102 643q0 29 29 29h148v221q0 29 28 29q29 0 29 -29v-221h153q29 0 29 -29t-29 -29h-153v-602q0 -28 -27 -28h-2q-29 0 -28 28v602h-148q-29 0 -29 29z" />
<glyph unicode="u" horiz-adv-x="831" d="M131 272v367q0 29 29 29t28 -29v-367q0 -100 54 -173q54 -72 150 -72h3q238 0 238 379v233q0 29 29 29t28 -29v-627q0 -29 -28 -28q-29 0 -29 28v119q-80 -162 -238 -162q-121 0 -192.5 90t-71.5 213z" />
<glyph unicode="v" horiz-adv-x="823" d="M131 643q0 29 29 29q20 0 26 -19l226 -585l225 585q9 19 27 19q29 0 28 -29q0 -6 -250 -653q-6 -18 -30 -19q-25 0 -31 19q-250 647 -250 653z" />
<glyph unicode="w" horiz-adv-x="1257" d="M131 647q0 29 29 29q20 0 26 -19l207 -579l207 579q6 18 29 19q23 0 30 -19l205 -579l207 579q7 19 27 19q29 0 28 -29q0 -4 -231 -651q-6 -18 -31 -19q-25 0 -30 19l-205 573l-205 -573q-6 -18 -31 -19q-25 0 -31 19q-231 647 -231 651z" />
<glyph unicode="x" horiz-adv-x="749" d="M131 16q0 8 4 17l205 299l-205 297q-4 8 -4 16q0 29 29 29q14 0 24 -12l191 -279l192 279q9 12 23 12q28 0 28 -27q0 -10 -4 -18l-204 -297l204 -299q4 -8 4 -17q0 -28 -26 -28h-2q-14 0 -23 12l-192 281l-191 -281q-10 -12 -24 -12q-29 0 -29 28z" />
<glyph unicode="y" horiz-adv-x="835" d="M131 645q0 29 29 29q18 0 26 -17l238 -579l225 577q9 19 27 19q29 0 29 -29q0 -4 -402 -1036q-6 -18 -27 -19q-29 0 -28 29q0 6 147 385q-6 6 -135 318.5t-129 322.5z" />
<glyph unicode="z" horiz-adv-x="815" d="M131 35q0 12 6 18l455 541h-412q-29 0 -28 29q0 28 26 28h2h475h2q27 0 27 -28q0 -10 -8 -19l-455 -541h412q29 0 29 -28q0 -29 -29 -29h-473q-29 0 -29 29z" />
<glyph unicode="{" horiz-adv-x="757" d="M141.5 424q-0.5 27 26.5 27q80 0 92 11t12 95v512q0 74 50.5 126t121.5 52h144q28 1 28 -28t-28 -29h-144q-49 0 -81.5 -36t-32.5 -85v-512q0 -104 -29 -137q29 -31 29 -137v-512q0 -49 32.5 -85t81.5 -36h144q29 0 28 -29q0 -29 -28 -29h-144q-72 0 -122 53.5t-50 125.5 v512q0 72 -4 82q-10 27 -56 26.5t-50 -0.5q-20 6 -20.5 33z" />
<glyph unicode="|" horiz-adv-x="339" d="M141 -381v1604q0 29 29 28q29 0 29 -28v-1604q0 -29 -29 -29t-29 29z" />
<glyph unicode="}" horiz-adv-x="757" d="M141 -379q0 -29 29 -29h143q72 0 122 53.5t50 125.5v512q0 72 4 82q10 27 56.5 26.5t50.5 -0.5q20 6 20 33t-26 27q-80 0 -92.5 11t-12.5 95v512q0 74 -50 126t-122 52h-143q-29 1 -29 -28t29 -29h143q47 0 81 -36t34 -85v-512q0 -104 29 -137q-29 -31 -29 -137v-512 q0 -49 -34 -85t-81 -36h-143q-29 0 -29 -29z" />
<glyph unicode="~" horiz-adv-x="978" d="M141 522q0 90 43 148q47 68 136 67.5t185.5 -101.5t172.5 -101q102 0 102 155q0 37 29 37t29 -37q0 -88 -39 -150.5t-129 -62.5t-187.5 101.5t-165.5 101.5q-119 0 -118 -158q0 -29 -29 -28q-29 0 -29 28z" />
<glyph unicode="&#xa1;" horiz-adv-x="376" d="M141 940q0 47 47 47t48 -47q-1 -47 -48 -47t-47 47zM160 -246v955q-1 28 28 28t29 -28v-955q0 -29 -29 -28q-29 0 -28 28z" />
<glyph unicode="&#xa2;" horiz-adv-x="884" d="M141 627q0 141 95.5 247.5t234.5 106.5q27 0 55 -4l70 242q6 23 27 22q29 0 28 -29q0 -4 -69 -251q102 -40 161 -138q-8 14 -24 15q-29 0 -29 -29q0 -6 2 -10q-49 76 -125 106l-159 -567q29 -8 63 -8q141 0 221 125q-2 -4 -2 -11q0 -29 29 -28q16 0 24 12 q-96 -156 -272 -156q-41 0 -80 11l-74 -263q-4 -20 -26 -20q-29 0 -29 29q0 4 76 272q-90 45 -143.5 134t-53.5 192zM199 644.5q0 -101.5 41 -175.5t114 -111l158 564q-23 2 -41 2q-117 0 -194.5 -89t-77.5 -190.5z" />
<glyph unicode="&#xa3;" horiz-adv-x="1126" d="M141 639q0 27 39 31q-14 -2 56 -2q-39 106 -39 202q0 162 112.5 274.5t274.5 112.5q100 0 229 -78.5t129 -168.5q0 -29 -29 -29q-16 0 -26 20.5t-37 63.5q-98 135 -266 135q-137 0 -233.5 -96t-96.5 -234q0 -90 43 -202h268q29 0 29 -29t-29 -29h-243q82 -207 81.5 -328 t-51.5 -200q80 18 170 18t202.5 -37.5t141.5 -37.5t56.5 12t33.5 12q29 0 29 -27t-40 -40.5t-78 -14t-151.5 37.5t-226 38t-239.5 -51q-23 -10 -33 -10t-16 9t-6 11l-2 10q0 16 40 35q113 49 113 229q0 121 -88 334q-102 0 -70 -2q-47 4 -47 31z" />
<glyph unicode="&#xa4;" horiz-adv-x="1038" d="M141 597q0 26 33 30h51q0 39 4 82q-63 0 -53 -2q-35 4 -35 30q0 27 39 31q-18 -2 56 -2q31 188 124 328q119 172 287 172q143 0 242 -117q8 -8 8 -19q0 -29 -29 -28l-72 53q-71 53 -149 53q-143 0 -246 -155q-80 -123 -106 -287h371q29 0 28 -29q0 -29 -28 -28h-379 q-4 -43 -4 -82h383q29 0 28 -29q0 -29 -28 -29h-383q10 -190 94 -348q104 -199 270 -198q78 0 149 53l72 53q29 0 29 -29q0 -12 -8 -20q-98 -115 -242 -115q-193 0 -313 213q-98 176 -109 391q-57 0 -51 -2q-33 4 -33 30z" />
<glyph unicode="&#xa5;" horiz-adv-x="997" d="M141 1214q0 29 29 29q16 0 25 -14l303 -574l305 574q8 14 24 14q29 0 29 -29q0 -6 -326 -620h254q29 0 29 -28t-29 -27h-258v-158h258q29 0 29 -29t-29 -28h-258v-308q0 -29 -28 -28q-29 0 -29 28v308h-256q-29 0 -29 28q0 29 29 29h256v158h-256q-29 0 -29 27.5t29 27.5 h254q-326 614 -326 620z" />
<glyph unicode="&#xa6;" horiz-adv-x="339" d="M141 215q0 29 29 29t29 -29v-602q0 -29 -29 -29t-29 29v602zM141 616v605q0 28 29 28t29 -28v-605q0 -29 -29 -28q-29 0 -29 28z" />
<glyph unicode="&#xa7;" horiz-adv-x="999" d="M141 -39q0 29 27 29t31 -29q0 -20 4 -63q23 -127 129 -197q74 -49 190.5 -49t198.5 74.5t82 201.5q0 217 -328 326q-156 53 -227 111q-106 84 -106.5 206t67.5 201q-68 76 -68 195.5t96.5 208t236.5 88.5t235.5 -94.5t95.5 -241.5q0 -27 -29 -27q-20 0 -24 27.5t-15 83.5 q-53 188 -258 194h-12q-106 2 -187 -70.5t-81 -183.5t96 -180q59 -43 197 -90q367 -125 366 -381q0 -111 -55 -192q55 -82 55 -181q0 -152 -97 -243t-255 -91t-261.5 102.5t-103.5 264.5zM199 584q0 -115 96 -185q59 -45 219 -97t250 -148q39 66 39 147q0 217 -328 326 q-154 51 -223 106q-53 -63 -53 -149z" />
<glyph unicode="&#xa8;" horiz-adv-x="567" d="M141 1081q0 47 47 47t48 -47q0 -47 -48 -47q-47 0 -47 47zM332 1081q0 47 47 47t47 -47t-47 -47t-47 47z" />
<glyph unicode="&#xa9;" horiz-adv-x="1585" d="M141 609q0 269 192 461t461 192t459.5 -191.5t190.5 -461t-190.5 -461t-459.5 -191.5t-461 191.5t-192 460.5zM199 609q0 -245 174 -420t420 -175t419.5 175.5t173.5 420t-174 419.5t-419 175q-246 0 -420 -175t-174 -420zM479 599q0 142 95.5 247.5t232.5 105.5 t233 -104q45 -49 45 -68q0 -27 -26 -26q-18 0 -32.5 19.5t-27.5 35.5q-79 86 -193 86t-191.5 -89t-77.5 -207t77.5 -208t191.5 -90t193 86q38 64 64 64q25 0 24.5 -26t-47.5 -75q-96 -106 -233 -106t-232.5 106.5t-95.5 248.5z" />
<glyph unicode="&#xaa;" horiz-adv-x="763" d="M141 991q0 102 69 179t176.5 77t178.5 -94v51q2 33 30 33t28 -29v-434q0 -29 -28 -29t-30 33v53q-72 -96 -179 -96t-176 77t-69 179zM199 992q0 -79 51 -139t129 -60t130 60t52 139t-52 139.5t-130 60.5t-129 -60.5t-51 -139.5z" />
<glyph unicode="&#xab;" horiz-adv-x="13021" d="M-2294 326q0 14 2 16l146 311q8 18 26 19q29 0 29 -29q0 -8 -145 -317q145 -309 145 -316q0 -29 -29 -28q-18 0 -26 16l-146 311q-2 2 -2 17zM-2114 309v35l148 311q6 17 24 17q29 0 29 -29q0 -6 -145 -315q145 -311 145 -318q0 -29 -29 -28q-18 0 -24 16z" />
<glyph unicode="&#xad;" horiz-adv-x="743" d="M141 664q0 29 29 28h405q27 0 27 -28q0 -29 -27 -29h-405q-29 0 -29 29z" />
<glyph unicode="&#xae;" horiz-adv-x="1585" d="M141 613q0 269 192 460t461 191t459.5 -190.5t190.5 -460t-190.5 -461t-459.5 -191.5t-461 191.5t-192 460.5zM199 612q0 -246 174 -420t420 -174t419.5 174.5t173.5 419.5q0 246 -174 420t-419 174q-246 0 -420 -174t-174 -420zM588 297v627q0 29 26 28h189 q94 0 177 -53t83 -133t-52 -129.5t-124 -67.5q188 -262 188 -272q0 -27 -28 -27q-14 0 -23 11l-199 278q-14 -2 -182 -2v-260q0 -29 -28 -29t-27 29zM643 614h160q72 0 131 35q72 39 72 106t-72 105q-59 35 -131 35h-160v-281z" />
<glyph unicode="&#xaf;" horiz-adv-x="141" />
<glyph unicode="&#xb0;" horiz-adv-x="661" d="M141 1061q0 78 55.5 134t134.5 56t134 -56t55 -134t-55 -134.5t-134 -56.5t-134.5 56.5t-55.5 134.5zM184 1061q0 -59 43.5 -103.5t103.5 -44.5t103 44t43 104q0 59 -43 103t-103 44t-103.5 -44t-43.5 -103z" />
<glyph unicode="&#xb2;" horiz-adv-x="661" d="M141 1047q0 80 55.5 136t134.5 56t134 -57.5t55 -148.5t-78 -159q-72 -51 -150.5 -105t-88.5 -126h282q29 0 29 -29t-29 -28h-313l-10 2l-10 6l-7 8l-2 12q0 104 82 177q78 53 154 104q84 63 84 152q0 55 -39 95t-93 40t-93 -40t-39 -95q0 -29 -29 -29t-29 29z" />
<glyph unicode="&#xb3;" horiz-adv-x="684" d="M141 760q0 29 29 28q29 0 29 -28q0 -57 43 -97t101 -40t100 39.5t42 98t-42 98.5t-101 40q-29 0 -29 29t29 28q51 0 90 32t39 82t-39 82t-89 32t-90 -32t-40 -81q0 -29 -29 -29t-28 29q0 72 56 121t130 49t130 -49t56 -131t-82 -133q96 -57 97 -168q0 -82 -59.5 -138.5 t-141.5 -56.5t-141.5 56.5t-59.5 138.5z" />
<glyph unicode="&#xb4;" horiz-adv-x="530" d="M141 1337q0 12 9 21l190 190q8 8 20 8q29 0 29 -28q0 -10 -8 -19l-191 -190q-8 -10 -20 -10q-29 -1 -29 28z" />
<glyph unicode="&#xb6;" horiz-adv-x="1218" d="M141 899q0 135 96.5 231.5t231.5 96.5h98q6 2 11.5 2t11.5 -2h348q4 2 10 2t10 -2h91q29 0 28 -29q0 -27 -41 -29h-59v-1564q0 -29 -29 -29t-28 29v1564h-314v-1564q0 -29 -27.5 -29t-27.5 29v966h-82q-135 0 -231.5 96.5t-96.5 231.5zM199 899q0 -113 79.5 -191.5 t190.5 -78.5h82v540h-82q-111 0 -190.5 -78.5t-79.5 -191.5z" />
<glyph unicode="&#xb8;" horiz-adv-x="501" d="M141 -152l25 150q4 23 29 22q29 0 28 -28q0 -2 -14 -90q43 23 78 22q74 0 73 -82q0 -59 -59 -120.5t-119 -61.5q-26 0 -26 27t32.5 31.5t73.5 44.5t41 72t-18 32q-25 0 -67 -24.5t-48 -24.5q-29 0 -29 30z" />
<glyph unicode="&#xb9;" horiz-adv-x="477" d="M141 1143q0 16 13 24q88 59 96 60q29 0 29 -29v-559q57 0 57 -29t-29 -28h-112q-29 0 -29 28q0 29 55 29v506q-43 -31 -51 -31q-29 0 -29 29z" />
<glyph unicode="&#xba;" horiz-adv-x="759" d="M141 990q0 103 69 180t170 77t169.5 -76.5t68.5 -180t-68.5 -180.5t-169.5 -77t-170 77t-69 180zM199 990q0 -79 51 -139t129 -60t130 60t52 139t-52 139.5t-130 60.5t-129 -60.5t-51 -139.5z" />
<glyph unicode="&#xbb;" horiz-adv-x="13021" d="M-2294 10q0 -29 29 -28q18 0 27 16l145 311q2 4 2 19q0 14 -2 16l-145 311q-9 17 -27 17q-29 0 -29 -29q0 -6 146 -315q-145 -311 -146 -318zM-2114 10q0 -29 27 -28q18 0 27 16l145 311q2 2 2 17q0 14 -2 16l-145 311q-8 18 -27 19q-27 0 -27 -29q1 -8 146 -317 q-145 -309 -146 -316z" />
<glyph unicode="&#xbc;" horiz-adv-x="1216" d="M141 1239q0 14 13 23q88 59 96 59q29 0 29 -29v-559q57 0 57 -28q0 -29 -29 -29h-112q-29 0 -29 29t55 28v506q-43 -29 -51 -29q-29 0 -29 29zM221 4q0 6 574 1210q8 16 26 17q27 0 27 -29q0 -6 -572 -1210q-8 -17 -26 -17q-29 0 -29 29zM686 340q0 2 51 295q4 25 29 24 q29 0 29 -28q0 -2 -45 -262h194v262q0 29 29 28q29 0 28 -28v-262h46q28 -4 28 -29t-28 -29h-46v-284q0 -29 -28 -29q-29 0 -29 29v284h-229q-29 0 -29 29z" />
<glyph unicode="&#xbd;" horiz-adv-x="1247" d="M141 1239q0 14 13 23q88 59 96 59q29 0 29 -29v-559q57 0 57 -28q0 -29 -29 -29h-112q-29 0 -29 29t55 28v506q-43 -29 -51 -29q-29 0 -29 29zM221 4q0 6 574 1210q8 16 26 17q27 0 27 -29q0 -6 -572 -1210q-8 -17 -26 -17q-29 0 -29 29zM727 459q0 80 55.5 136t135.5 56 t134 -57t54 -148t-76 -159q-74 -51 -151.5 -105.5t-87.5 -126.5h280q29 0 29 -28q0 -29 -29 -29h-313l-10 2l-9 6l-6 8l-4 13q0 106 84 176q76 53 154 104q82 63 82 152q0 55 -38 95t-93 40t-94.5 -40t-39.5 -95q0 -29 -28 -29q-29 0 -29 29z" />
<glyph unicode="&#xbe;" horiz-adv-x="1400" d="M141 760q0 29 29 28q29 0 29 -28q0 -57 43 -97t101 -40t100 39.5t42 98t-42 98.5t-101 40q-29 0 -29 29t29 28q51 0 90 33t39 82t-39 82t-89 33t-90 -33t-40 -82q0 -29 -29 -29t-28 29q0 74 56 123t130 49t130 -49t56 -132t-82 -134q96 -57 97 -168q0 -80 -59.5 -137.5 t-141.5 -57.5t-141.5 57.5t-59.5 137.5zM408 4q0 6 571 1210q8 16 27 17q29 0 28 -29q0 -6 -573 -1210q-9 -17 -27 -17q-27 0 -26 29zM870 340q0 2 52 295q4 25 28 24q29 0 29 -28q0 -2 -45 -262h194v262q0 29 29 28q29 0 29 -28v-262h47q27 -4 27 -29t-27 -29h-47v-284 q0 -29 -29 -29t-29 29v284h-229q-29 0 -29 29z" />
<glyph unicode="&#xbf;" horiz-adv-x="987" d="M141 -64.5q0 132.5 74 218.5q35 43 142.5 124.5t136 145t28.5 166.5q0 57 29 57t29 -43v-14q0 -117 -35 -191.5t-143.5 -157.5t-135.5 -114q-68 -76 -67.5 -187.5t83.5 -186.5t209.5 -75t211.5 76t85 203q0 35 29 35t29 -27q0 -154 -100.5 -249t-253 -95t-252 91 t-99.5 223.5zM508 849q0 46 47 46t47 -46t-47 -46t-47 46z" />
<glyph unicode="&#xc0;" horiz-adv-x="1126" d="M131 14q0 4 404 1235q6 18 28 19q23 0 29 -19q403 -1231 403 -1235q0 -29 -28 -28q-20 0 -29 20l-154 471h-442l-156 -471q-6 -20 -26 -20q-29 0 -29 28zM346 1549q0 28 29 28q12 0 20 -8l189 -188q8 -8 8 -21q0 -29 -29 -28q-12 0 -20 8l-188 188q-8 8 -9 21zM360 535 h406l-203 616z" />
<glyph unicode="&#xc1;" horiz-adv-x="1126" d="M131 14q0 4 404 1235q6 18 28 19q23 0 29 -19q403 -1231 403 -1235q0 -29 -28 -28q-20 0 -29 20l-154 471h-442l-156 -471q-6 -20 -26 -20q-29 0 -29 28zM360 535h406l-203 616zM551 1337q0 12 8 21l191 190q8 8 20 8q29 0 29 -28q0 -10 -8 -19l-191 -190q-8 -10 -20 -10 q-29 -1 -29 28z" />
<glyph unicode="&#xc2;" horiz-adv-x="1126" d="M131 14q0 4 404 1235q6 18 28 19q23 0 29 -19q403 -1231 403 -1235q0 -29 -28 -28q-20 0 -29 20l-154 471h-442l-156 -471q-6 -20 -26 -20q-29 0 -29 28zM360 535h406l-203 616zM428 1354q0 -29 29 -29q16 0 25 15l96 147l98 -147q9 -15 25 -15q29 0 28 29q0 10 -125 199 q-8 12 -25 12t-26 -12q-125 -188 -125 -199z" />
<glyph unicode="&#xc3;" horiz-adv-x="1126" d="M131 14q0 4 404 1235q6 18 28 19q23 0 29 -19q403 -1231 403 -1235q0 -29 -28 -28q-20 0 -29 20l-154 471h-442l-156 -471q-6 -20 -26 -20q-29 0 -29 28zM360 535h406l-203 616zM366 1362q0 66 27 119t82 53t103 -74.5t77 -74.5q37 0 43 119q2 31 29 30q29 0 28 -28 q0 -178 -104 -179q-53 0 -103.5 75t-72.5 75q-41 0 -51 -115q-2 -29 -29 -28q-29 -1 -29 28z" />
<glyph unicode="&#xc4;" horiz-adv-x="1126" d="M131 14q0 4 404 1235q6 18 28 19q23 0 29 -19q403 -1231 403 -1235q0 -29 -28 -28q-20 0 -29 20l-154 471h-442l-156 -471q-6 -20 -26 -20q-29 0 -29 28zM360 535h406l-203 616zM428 1388q0 47 47 47t48 -47q0 -47 -48 -47q-47 0 -47 47zM619 1388q0 47 47 47t47 -47 t-47 -47t-47 47z" />
<glyph unicode="&#xc5;" horiz-adv-x="1126" d="M131 14q0 4 404 1235q6 18 28 19q23 0 29 -19q403 -1231 403 -1235q0 -29 -28 -28q-20 0 -29 20l-154 471h-442l-156 -471q-6 -20 -26 -20q-29 0 -29 28zM360 535h406l-203 616zM366 1430q0 78 55.5 134t134.5 56t134 -56t55 -134t-55 -134.5t-134 -56.5t-134.5 56.5 t-55.5 134.5zM409 1430q0 -59 43.5 -103.5t103.5 -44.5t103 44t43 104q0 59 -43 103t-103 44t-103.5 -44t-43.5 -103z" />
<glyph unicode="&#xc6;" horiz-adv-x="1710" d="M141 12q0 10 4 17l799 1208q8 12 23 12q14 0 18 -6q2 0 4 2h551q29 1 29 -28t-29 -29h-522v-494h342q29 0 29 -28q0 -29 -29 -29h-342v-588h522q29 0 29 -29t-29 -28h-551q-29 0 -28 28v455q0 -2 -453 -2l-313 -475q-10 -14 -25 -14q-29 0 -29 28zM547 530h414v629z" />
<glyph unicode="&#xc7;" horiz-adv-x="1042" d="M131 626q0 175 63.5 342.5t190.5 254.5q80 53 170 53q178 0 303 -195q53 -84 53 -110.5t-28 -26.5q-18 0 -27 19q-127 256 -301 256q-72 0 -137 -45q-115 -76 -172 -231.5t-57.5 -316.5t57 -316.5t172.5 -233.5q66 -43 137 -43q174 0 301 256q8 18 27 18q29 0 28 -28 q0 -25 -53 -109q-125 -195 -303 -195q-90 0 -170 54q-127 84 -190.5 253t-63.5 344zM510 -152l25 150q4 23 29 22q29 0 28 -28q0 -2 -14 -90q43 23 78 22q74 0 73 -82q0 -59 -59 -120.5t-119 -61.5q-26 0 -26 27t32.5 31.5t73.5 44.5t41 72t-18 32q-25 0 -67 -24.5 t-48 -24.5q-29 0 -29 30z" />
<glyph unicode="&#xc8;" horiz-adv-x="882" d="M141 23v1200q0 29 29 28h553q29 0 29 -28q0 -29 -29 -29h-524v-496h342q29 0 28 -28q0 -29 -28 -29h-342v-590h524q29 0 29 -28q0 -29 -29 -29h-553q-29 0 -29 29zM305 1528q0 28 29 28q12 0 20 -8l189 -188q8 -8 8 -21q0 -29 -29 -28q-12 0 -20 8l-188 188q-8 8 -9 21z " />
<glyph unicode="&#xc9;" horiz-adv-x="882" d="M141 23v1200q0 29 29 28h553q29 0 29 -28q0 -29 -29 -29h-524v-496h342q29 0 28 -28q0 -29 -28 -29h-342v-590h524q29 0 29 -28q0 -29 -29 -29h-553q-29 0 -29 29zM367 1337q0 12 8 21l190 190q8 8 21 8q29 0 28 -28q0 -10 -8 -19l-190 -190q-8 -10 -21 -10 q-28 -1 -28 28z" />
<glyph unicode="&#xca;" horiz-adv-x="882" d="M141 23v1200q0 29 29 28h553q29 0 29 -28q0 -29 -29 -29h-524v-496h342q29 0 28 -28q0 -29 -28 -29h-342v-590h524q29 0 29 -28q0 -29 -29 -29h-553q-29 0 -29 29zM284 1354q0 -29 29 -29q16 0 25 15l96 147l98 -147q9 -15 25 -15q29 0 28 29q0 10 -125 199q-8 12 -25 12 t-26 -12q-125 -188 -125 -199z" />
<glyph unicode="&#xcb;" horiz-adv-x="882" d="M141 23v1200q0 29 29 28h553q29 0 29 -28q0 -29 -29 -29h-524v-496h342q29 0 28 -28q0 -29 -28 -29h-342v-590h524q29 0 29 -28q0 -29 -29 -29h-553q-29 0 -29 29zM305 1409q0 47 47 47t48 -47q0 -47 -48 -47q-47 0 -47 47zM496 1409q0 47 47 47t47 -47t-47 -47t-47 47z " />
<glyph unicode="&#xcc;" horiz-adv-x="544" d="M131 35q0 29 29 28h84v1117h-84q-29 0 -29 28q0 29 29 29h225q29 0 29 -29t-29 -28h-84v-1117h84q29 0 29 -28q0 -29 -29 -29h-225q-29 0 -29 29zM141 1528q0 28 29 28q12 0 20 -8l189 -188q8 -8 8 -21q0 -29 -29 -28q-12 0 -20 8l-188 188q-8 8 -9 21z" />
<glyph unicode="&#xcd;" horiz-adv-x="544" d="M131 35q0 29 29 28h84v1117h-84q-29 0 -29 28q0 29 29 29h225q29 0 29 -29t-29 -28h-84v-1117h84q29 0 29 -28q0 -29 -29 -29h-225q-29 0 -29 29zM141 1337q0 12 9 21l190 190q8 8 20 8q29 0 29 -28q0 -10 -8 -19l-191 -190q-8 -10 -20 -10q-29 -1 -29 28z" />
<glyph unicode="&#xce;" horiz-adv-x="544" d="M121 1333q0 -29 29 -29q16 0 25 15l96 147l98 -147q9 -15 25 -15q29 0 28 29q0 10 -125 199q-8 12 -25 12t-26 -12q-125 -188 -125 -199zM131 35q0 29 29 28h84v1117h-84q-29 0 -29 28q0 29 29 29h225q29 0 29 -29t-29 -28h-84v-1117h84q29 0 29 -28q0 -29 -29 -29h-225 q-29 0 -29 29z" />
<glyph unicode="&#xcf;" horiz-adv-x="544" d="M121 1388q0 47 47 47t48 -47q0 -47 -48 -47q-47 0 -47 47zM131 35q0 29 29 28h84v1117h-84q-29 0 -29 28q0 29 29 29h225q29 0 29 -29t-29 -28h-84v-1117h84q29 0 29 -28q0 -29 -29 -29h-225q-29 0 -29 29zM312 1388q0 47 47 47t47 -47t-47 -47t-47 47z" />
<glyph unicode="&#xd0;" horiz-adv-x="1101" d="M141 666q0 27 39 30q-12 -2 58 -2v523q0 31 30 30h295q133 0 238 -127q86 -102 123 -236.5t37 -266.5t-37 -266t-123 -236q-104 -125 -238 -125h-284q-6 -4 -13 -4q-29 0 -28 28v623h-58q-39 2 -39 29zM295 47h268q115 0 205 115q135 174 135 456q0 123 -33 245 t-112.5 224.5t-194.5 102.5h-268v-496h227q29 0 29 -28q0 -29 -29 -29h-227v-590z" />
<glyph unicode="&#xd1;" horiz-adv-x="937" d="M141 16v1209q0 29 29 28q18 0 27 -16l542 -1094v1086q0 29 29 28q29 0 29 -28v-1209q0 -29 -29 -28q-18 0 -25 16l-544 1094v-1086q0 -29 -29 -28q-29 0 -29 28zM284 1341q0 66 27 119t82 53t103 -74.5t77 -74.5q37 0 43 119q2 31 29 30q29 0 28 -28q0 -178 -104 -179 q-53 0 -103.5 75t-72.5 75q-41 0 -51 -115q-2 -29 -29 -28q-29 -1 -29 28z" />
<glyph unicode="&#xd2;" horiz-adv-x="1110" d="M131 624q0 175 63.5 343.5t190.5 253.5q80 53 169 53t171 -53q127 -84 190.5 -253.5t63.5 -344t-63.5 -342.5t-190.5 -254q-82 -53 -171 -53.5t-169 53.5q-127 86 -190.5 254t-63.5 343zM240 319q63 -168 178 -243q65 -45 137 -45t137 45q115 76 172 231t57.5 316.5 t-57 318t-172.5 232.5q-66 43 -137 43q-72 0 -137 -43q-115 -76 -172 -232q-116 -319 -6 -623zM325 1549q0 28 29 28q12 0 20 -8l189 -188q8 -8 8 -21q0 -29 -29 -28q-12 0 -20 8l-188 188q-8 8 -9 21z" />
<glyph unicode="&#xd3;" horiz-adv-x="1110" d="M131 624q0 175 63.5 343.5t190.5 253.5q80 53 169 53t171 -53q127 -84 190.5 -253.5t63.5 -344t-63.5 -342.5t-190.5 -254q-82 -53 -171 -53.5t-169 53.5q-127 86 -190.5 254t-63.5 343zM240 319q63 -168 178 -243q65 -45 137 -45t137 45q115 76 172 231t57.5 316.5 t-57 318t-172.5 232.5q-66 43 -137 43q-72 0 -137 -43q-115 -76 -172 -232q-116 -319 -6 -623zM449 1337q0 12 8 21l190 190q8 8 21 8q29 0 28 -28q0 -10 -8 -19l-190 -190q-8 -10 -21 -10q-28 -1 -28 28z" />
<glyph unicode="&#xd4;" horiz-adv-x="1110" d="M131 624q0 175 63.5 343.5t190.5 253.5q80 53 169 53t171 -53q127 -84 190.5 -253.5t63.5 -344t-63.5 -342.5t-190.5 -254q-82 -53 -171 -53.5t-169 53.5q-127 86 -190.5 254t-63.5 343zM240 319q63 -168 178 -243q65 -45 137 -45t137 45q115 76 172 231t57.5 316.5 t-57 318t-172.5 232.5q-66 43 -137 43q-72 0 -137 -43q-115 -76 -172 -232q-116 -319 -6 -623zM407 1333q0 -29 29 -29q16 0 25 15l96 147l98 -147q9 -15 25 -15q29 0 28 29q0 10 -125 199q-8 12 -25 12t-26 -12q-125 -188 -125 -199z" />
<glyph unicode="&#xd5;" horiz-adv-x="1110" d="M131 624q0 175 63.5 343.5t190.5 253.5q80 53 169 53t171 -53q127 -84 190.5 -253.5t63.5 -344t-63.5 -342.5t-190.5 -254q-82 -53 -171 -53.5t-169 53.5q-127 86 -190.5 254t-63.5 343zM240 319q63 -168 178 -243q65 -45 137 -45t137 45q115 76 172 231t57.5 316.5 t-57 318t-172.5 232.5q-66 43 -137 43q-72 0 -137 -43q-115 -76 -172 -232q-116 -319 -6 -623zM346 1362q0 66 27 119t82 53t103 -74.5t77 -74.5q37 0 43 119q2 31 29 30q29 0 28 -28q0 -178 -104 -179q-53 0 -103.5 75t-72.5 75q-41 0 -51 -115q-2 -29 -29 -28 q-29 -1 -29 28z" />
<glyph unicode="&#xd6;" horiz-adv-x="1110" d="M131 624q0 175 63.5 343.5t190.5 253.5q80 53 169 53t171 -53q127 -84 190.5 -253.5t63.5 -344t-63.5 -342.5t-190.5 -254q-82 -53 -171 -53.5t-169 53.5q-127 86 -190.5 254t-63.5 343zM240 319q63 -168 178 -243q65 -45 137 -45t137 45q115 76 172 231t57.5 316.5 t-57 318t-172.5 232.5q-66 43 -137 43q-72 0 -137 -43q-115 -76 -172 -232q-116 -319 -6 -623zM407 1388q0 47 47 47t48 -47q0 -47 -48 -47q-47 0 -47 47zM598 1388q0 47 47 47t47 -47t-47 -47t-47 47z" />
<glyph unicode="&#xd7;" horiz-adv-x="733" d="M141 457q0 12 9 20l182 180l-182 183q-18 18 0 41q20 18 40 0l181 -183l182 183q20 18 39.5 -1t-0.5 -40l-180 -183l180 -180q20 -20 1 -40.5t-40 -0.5l-182 182l-181 -182q-8 -8 -20 -8q-29 0 -29 29z" />
<glyph unicode="&#xd8;" horiz-adv-x="1128" d="M141 623q0 174 64 341.5t190 254.5q80 53 170 53q131 0 240 -115q12 29 29 63.5t38 34.5q29 0 29 -28q0 -8 -57 -117q143 -195 143 -487q0 -176 -62.5 -344t-191.5 -254q-146 -97 -303 -21q-68 33 -108 84q-12 -27 -28.5 -59.5t-35.5 -32.5q-29 0 -29 29q0 8 54 112 q-141 193 -142 486zM199 623q0 -274 112 -428l465 907q-94 113 -211 112q-72 0 -139 -45q-115 -76 -171 -231t-56 -315zM350 143q96 -115 215 -114q72 0 137 45q115 76 171.5 231.5t56.5 317.5q0 272 -115 430z" />
<glyph unicode="&#xd9;" horiz-adv-x="1034" d="M141 326v905q0 29 29 29t29 -29v-905q0 -139 88 -216.5t231 -76.5q143 0 230.5 75.5t87.5 217.5v905q-1 29 28 29t29 -29v-905q0 -166 -103.5 -258.5t-270.5 -92.5t-272.5 93.5t-105.5 257.5zM366 1508q0 28 29 28q12 0 20 -8l189 -188q8 -8 8 -21q0 -29 -29 -28 q-12 0 -20 8l-188 188q-8 8 -9 21z" />
<glyph unicode="&#xda;" horiz-adv-x="1034" d="M141 326v905q0 29 29 29t29 -29v-905q0 -139 88 -216.5t231 -76.5q143 0 230.5 75.5t87.5 217.5v905q-1 29 28 29t29 -29v-905q0 -166 -103.5 -258.5t-270.5 -92.5t-272.5 93.5t-105.5 257.5zM449 1337q0 12 8 21l190 190q8 8 21 8q29 0 28 -28q0 -10 -8 -19l-190 -190 q-8 -10 -21 -10q-28 -1 -28 28z" />
<glyph unicode="&#xdb;" horiz-adv-x="1034" d="M141 326v905q0 29 29 29t29 -29v-905q0 -139 88 -216.5t231 -76.5q143 0 230.5 75.5t87.5 217.5v905q-1 29 28 29t29 -29v-905q0 -166 -103.5 -258.5t-270.5 -92.5t-272.5 93.5t-105.5 257.5zM366 1354q0 -29 29 -29q16 0 25 15l96 147l98 -147q9 -15 25 -15q29 0 28 29 q0 10 -125 199q-8 12 -25 12t-26 -12q-125 -188 -125 -199z" />
<glyph unicode="&#xdc;" horiz-adv-x="1034" d="M141 326v905q0 29 29 29t29 -29v-905q0 -139 88 -216.5t231 -76.5q143 0 230.5 75.5t87.5 217.5v905q-1 29 28 29t29 -29v-905q0 -166 -103.5 -258.5t-270.5 -92.5t-272.5 93.5t-105.5 257.5zM366 1388q0 47 47 47t48 -47q0 -47 -48 -47q-47 0 -47 47zM557 1388 q0 47 47 47t47 -47t-47 -47t-47 47z" />
<glyph unicode="&#xdd;" horiz-adv-x="978" d="M131 1223q0 29 29 28q16 0 24 -16l305 -573l306 573q8 16 24 16q29 0 29 -28q0 -8 -330 -631v-572q0 -29 -29 -28q-29 0 -28 28v574q-330 621 -330 629zM407 1337q0 12 9 21l190 190q8 8 20 8q29 0 29 -28q0 -10 -8 -19l-191 -190q-8 -10 -20 -10q-29 -1 -29 28z" />
<glyph unicode="&#xde;" horiz-adv-x="929" d="M141 16v1207q0 29 29 28q29 0 29 -28v-250h245q145 0 250 -103.5t105 -250t-104.5 -250t-250.5 -103.5h-245v-250q0 -29 -29 -28q-29 0 -29 28zM199 324h245q123 0 210 86.5t87 208.5t-87 208t-210 86h-245v-589z" />
<glyph unicode="&#xdf;" horiz-adv-x="884" d="M141 14v1037q0 92 61.5 141t165 49t182.5 -81t79 -191q0 -66 -33 -122t-78 -105.5t-45 -57.5q0 -20 97.5 -114.5t170.5 -166.5q72 -78 72 -181t-71.5 -181t-178.5 -78q-158 0 -295 158q-8 8 -8 20q0 29 29 29l94 -75q94 -75 178 -75t139.5 60.5t55.5 141.5t-58 143 q-78 74 -172 166t-106 131q-4 14 -4 24q0 25 77.5 114t77.5 173t-62.5 147.5t-148.5 63.5q-162 0 -161 -133v-1037q0 -29 -29 -28q-29 0 -29 28z" />
<glyph unicode="&#xe0;" d="M131 330q0 143 94 249.5t236 106.5q190 0 287 -178v137q-1 29 28 29t29 -29v-625q0 -29 -29 -28q-29 0 -28 28v132q-96 -178 -287 -179q-141 0 -235.5 106.5t-94.5 250.5zM188 330q0 -119 78 -209t195 -90t194.5 90t77.5 209t-77.5 209t-194.5 90t-195 -90t-78 -209z M346 955q0 28 29 28q12 0 20 -8l189 -188q8 -8 8 -21q0 -29 -29 -28q-12 0 -20 8l-188 188q-8 8 -9 21z" />
<glyph unicode="&#xe1;" d="M131 330q0 143 94 249.5t236 106.5q190 0 287 -178v137q-1 29 28 29t29 -29v-625q0 -29 -29 -28q-29 0 -28 28v132q-96 -178 -287 -179q-141 0 -235.5 106.5t-94.5 250.5zM188 330q0 -119 78 -209t195 -90t194.5 90t77.5 209t-77.5 209t-194.5 90t-195 -90t-78 -209z M408 764q0 12 8 20l190 191q8 8 21 8q29 0 28 -29q0 -10 -8 -18l-190 -191q-8 -10 -21 -10q-28 0 -28 29z" />
<glyph unicode="&#xe2;" d="M131 330q0 143 94 249.5t236 106.5q190 0 287 -178v137q-1 29 28 29t29 -29v-625q0 -29 -29 -28q-29 0 -28 28v132q-96 -178 -287 -179q-141 0 -235.5 106.5t-94.5 250.5zM188 330q0 -119 78 -209t195 -90t194.5 90t77.5 209t-77.5 209t-194.5 90t-195 -90t-78 -209z M325 760q0 -29 29 -29q16 0 25 15l96 147l98 -147q9 -15 25 -15q29 0 28 29q0 10 -125 199q-8 12 -25 12t-26 -12q-125 -188 -125 -199z" />
<glyph unicode="&#xe3;" d="M131 330q0 143 94 249.5t236 106.5q190 0 287 -178v137q-1 29 28 29t29 -29v-625q0 -29 -29 -28q-29 0 -28 28v132q-96 -178 -287 -179q-141 0 -235.5 106.5t-94.5 250.5zM188 330q0 -119 78 -209t195 -90t194.5 90t77.5 209t-77.5 209t-194.5 90t-195 -90t-78 -209z M264 788q0 66 27 119t82 53t103 -74.5t77 -74.5q37 0 43 119q2 31 29 30q29 0 28 -28q0 -178 -104 -179q-53 0 -103.5 75t-72.5 75q-41 0 -51 -115q-2 -29 -29 -28q-29 -1 -29 28z" />
<glyph unicode="&#xe4;" d="M131 330q0 143 94 249.5t236 106.5q190 0 287 -178v137q-1 29 28 29t29 -29v-625q0 -29 -29 -28q-29 0 -28 28v132q-96 -178 -287 -179q-141 0 -235.5 106.5t-94.5 250.5zM188 330q0 -119 78 -209t195 -90t194.5 90t77.5 209t-77.5 209t-194.5 90t-195 -90t-78 -209z M305 815q0 47 47 47t48 -47q0 -47 -48 -47q-47 0 -47 47zM496 815q0 47 47 47t47 -47t-47 -47t-47 47z" />
<glyph unicode="&#xe5;" d="M131 330q0 143 94 249.5t236 106.5q190 0 287 -178v137q-1 29 28 29t29 -29v-625q0 -29 -29 -28q-29 0 -28 28v132q-96 -178 -287 -179q-141 0 -235.5 106.5t-94.5 250.5zM188 330q0 -119 78 -209t195 -90t194.5 90t77.5 209t-77.5 209t-194.5 90t-195 -90t-78 -209z M284 836q0 78 55.5 134t134.5 56t134 -56t55 -134t-55 -134.5t-134 -56.5t-134.5 56.5t-55.5 134.5zM327 836q0 -59 43.5 -103.5t103.5 -44.5t103 44t43 104q0 59 -43 103t-103 44t-103.5 -44t-43.5 -103z" />
<glyph unicode="&#xe6;" horiz-adv-x="1527" d="M131 326.5q0 142.5 94 249t236 106.5q180 0 276 -166v123q0 29 29 29t29 -29v-113q98 156 274 156q139 0 233.5 -106.5t94.5 -247.5q0 -29 -29 -29h-569q10 -111 86 -190.5t184 -79.5q147 0 234 121q10 14 24 14q29 0 29 -29q0 -8 -4 -14q-86 -150 -272.5 -150 t-284.5 158v-113q0 -29 -29 -28q-29 0 -29 28v121q-96 -166 -276 -166q-141 0 -235.5 106.5t-94.5 249zM188 328q0 -119 78 -209t195 -90t194.5 90t77.5 209t-77.5 208t-194.5 89t-195 -89.5t-78 -207.5zM799 356h538q-10 111 -84.5 190t-183.5 79t-184.5 -79t-85.5 -190z " />
<glyph unicode="&#xe7;" horiz-adv-x="872" d="M131 330q0 143 94 249.5t233.5 106.5t237.5 -104q41 -47 41 -66q0 -29 -28 -29q-12 0 -23 11q-80 131 -225 131q-117 0 -195 -90t-78 -209t78 -209t195 -90q66 0 129 35.5t94 91.5q10 18 27 18q30 0 30 -29q0 -8 -6 -16q-98 -158 -274 -158q-141 0 -235.5 106.5 t-94.5 250.5zM407 -152l25 150q4 23 29 22q29 0 28 -28q0 -2 -14 -90q43 23 78 22q74 0 73 -82q0 -59 -59 -120.5t-119 -61.5q-26 0 -26 27t32.5 31.5t73.5 44.5t41 72t-18 32q-25 0 -67 -24.5t-48 -24.5q-29 0 -29 30z" />
<glyph unicode="&#xe8;" horiz-adv-x="923" d="M131 330q0 143 94.5 249.5t235.5 106.5t236.5 -106.5t95.5 -249.5q0 -29 -31 -29h-572q10 -111 86 -190.5t185 -79.5q150 0 235 121q10 14 25 14q29 0 29 -29q0 -8 -5 -14q-86 -150 -284 -150q-139 0 -234.5 106.5t-95.5 250.5zM190 358h541q-10 111 -86 191t-184 80 q-109 0 -185 -80t-86 -191zM264 955q0 28 29 28q12 0 20 -8l189 -188q8 -8 8 -21q0 -29 -29 -28q-12 0 -20 8l-188 188q-8 8 -9 21z" />
<glyph unicode="&#xe9;" horiz-adv-x="923" d="M131 330q0 143 94.5 249.5t235.5 106.5t236.5 -106.5t95.5 -249.5q0 -29 -31 -29h-572q10 -111 86 -190.5t185 -79.5q150 0 235 121q10 14 25 14q29 0 29 -29q0 -8 -5 -14q-86 -150 -284 -150q-139 0 -234.5 106.5t-95.5 250.5zM190 358h541q-10 111 -86 191t-184 80 q-109 0 -185 -80t-86 -191zM346 764q0 12 8 20l191 191q8 8 20 8q29 0 29 -29q0 -10 -8 -18l-191 -191q-8 -10 -20 -10q-29 0 -29 29z" />
<glyph unicode="&#xea;" horiz-adv-x="923" d="M131 330q0 143 94.5 249.5t235.5 106.5t236.5 -106.5t95.5 -249.5q0 -29 -31 -29h-572q10 -111 86 -190.5t185 -79.5q150 0 235 121q10 14 25 14q29 0 29 -29q0 -8 -5 -14q-86 -150 -284 -150q-139 0 -234.5 106.5t-95.5 250.5zM190 358h541q-10 111 -86 191t-184 80 q-109 0 -185 -80t-86 -191zM305 760q0 -29 29 -29q16 0 25 15l96 147l98 -147q9 -15 25 -15q29 0 28 29q0 10 -125 199q-8 12 -25 12t-26 -12q-125 -188 -125 -199z" />
<glyph unicode="&#xeb;" horiz-adv-x="923" d="M131 330q0 143 94.5 249.5t235.5 106.5t236.5 -106.5t95.5 -249.5q0 -29 -31 -29h-572q10 -111 86 -190.5t185 -79.5q150 0 235 121q10 14 25 14q29 0 29 -29q0 -8 -5 -14q-86 -150 -284 -150q-139 0 -234.5 106.5t-95.5 250.5zM190 358h541q-10 111 -86 191t-184 80 q-109 0 -185 -80t-86 -191zM305 815q0 47 47 47t48 -47q0 -47 -48 -47q-47 0 -47 47zM496 815q0 47 47 47t47 -47t-47 -47t-47 47z" />
<glyph unicode="&#xec;" horiz-adv-x="376" d="M-23 955q0 28 29 28q12 0 20 -8l189 -188q8 -8 8 -21q0 -29 -29 -28q-12 0 -20 8l-188 188q-8 8 -9 21zM160 16v623q-1 29 28 29t29 -29v-623q0 -29 -29 -28q-29 0 -28 28z" />
<glyph unicode="&#xed;" horiz-adv-x="376" d="M160 16v623q-1 29 28 29t29 -29v-623q0 -29 -29 -28q-29 0 -28 28zM161 764q0 12 9 21l190 190q8 8 20 8q29 0 29 -28q0 -10 -8 -19l-191 -190q-8 -10 -20 -10q-29 -1 -29 28z" />
<glyph unicode="&#xee;" horiz-adv-x="376" d="M39 780q0 -29 29 -29q16 0 25 15l96 147l98 -147q9 -15 25 -15q29 0 28 29q0 10 -125 199q-8 12 -25 12t-26 -12q-125 -188 -125 -199zM160 16v623q-1 29 28 29t29 -29v-623q0 -29 -29 -28q-29 0 -28 28z" />
<glyph unicode="&#xef;" horiz-adv-x="376" d="M39 815q0 47 47 47t48 -47q0 -47 -48 -47q-47 0 -47 47zM160 16v623q-1 29 28 29t29 -29v-623q0 -29 -29 -28q-29 0 -28 28zM230 815q0 47 47 47t47 -47t-47 -47t-47 47z" />
<glyph unicode="&#xf0;" horiz-adv-x="944" d="M141 326.5q0 142.5 94.5 249t235.5 106.5q174 0 272 -154q-20 377 -198 545q-164 -145 -174 -145q-29 0 -29 28q0 12 160 154q-86 63 -191 76q-20 0 -53 4t-33 31t29 26q162 0 291 -98q104 94 114 94q29 0 29 -29q0 -14 -100 -104q215 -205 215 -674v-55q-2 -37 -2 -53 q0 -143 -94.5 -250t-235.5 -107t-235.5 106.5t-94.5 249zM199 328q0 -119 77.5 -209t196.5 -90t195 91t75.5 211t-80 207t-194.5 87t-192.5 -89.5t-77.5 -207.5z" />
<glyph unicode="&#xf1;" horiz-adv-x="831" d="M141 18v627q0 29 29 29t29 -29v-100q83 143 237 143q121 0 193 -90t71 -213v-365q0 -29 -28 -28q-29 0 -29 28v365q0 100 -55.5 173t-164 73t-166.5 -92.5t-58 -233.5v-287q0 -29 -29 -28q-29 0 -29 28zM223 788q0 66 27 119t82 53t103 -74.5t77 -74.5q37 0 43 119 q2 31 29 30q29 0 28 -28q0 -178 -104 -179q-53 0 -103.5 75t-72.5 75q-41 0 -51 -115q-2 -29 -29 -28q-29 -1 -29 28z" />
<glyph unicode="&#xf2;" horiz-adv-x="923" d="M131 330.5q0 142.5 94.5 250t235.5 107.5t236.5 -107.5t95.5 -249.5t-95.5 -249t-236.5 -107t-235.5 106.5t-94.5 249zM188 332q0 -119 78 -209t195 -90t194.5 90t77.5 209t-77.5 208t-194.5 89t-195 -89t-78 -208zM243 955q0 28 29 28q12 0 20 -8l189 -188q8 -8 8 -21 q0 -29 -29 -28q-12 0 -20 8l-188 188q-8 8 -9 21z" />
<glyph unicode="&#xf3;" horiz-adv-x="923" d="M131 330.5q0 142.5 94.5 250t235.5 107.5t236.5 -107.5t95.5 -249.5t-95.5 -249t-236.5 -107t-235.5 106.5t-94.5 249zM188 332q0 -119 78 -209t195 -90t194.5 90t77.5 209t-77.5 208t-194.5 89t-195 -89t-78 -208zM428 764q0 12 9 21l190 190q8 8 20 8q29 0 29 -28 q0 -10 -8 -19l-191 -190q-8 -10 -20 -10q-29 -1 -29 28z" />
<glyph unicode="&#xf4;" horiz-adv-x="923" d="M131 330.5q0 142.5 94.5 250t235.5 107.5t236.5 -107.5t95.5 -249.5t-95.5 -249t-236.5 -107t-235.5 106.5t-94.5 249zM188 332q0 -119 78 -209t195 -90t194.5 90t77.5 209t-77.5 208t-194.5 89t-195 -89t-78 -208zM305 739q0 -29 29 -29q16 0 25 15l96 147l98 -147 q9 -15 25 -15q29 0 28 29q0 10 -125 199q-8 12 -25 12t-26 -12q-125 -188 -125 -199z" />
<glyph unicode="&#xf5;" horiz-adv-x="923" d="M131 330.5q0 142.5 94.5 250t235.5 107.5t236.5 -107.5t95.5 -249.5t-95.5 -249t-236.5 -107t-235.5 106.5t-94.5 249zM188 332q0 -119 78 -209t195 -90t194.5 90t77.5 209t-77.5 208t-194.5 89t-195 -89t-78 -208zM243 768q0 66 27 119t82 53t103 -74.5t77 -74.5 q37 0 43 119q2 31 29 30q29 0 28 -28q0 -178 -104 -179q-53 0 -103.5 75t-72.5 75q-41 0 -51 -115q-2 -29 -29 -28q-29 -1 -29 28z" />
<glyph unicode="&#xf6;" horiz-adv-x="923" d="M131 330.5q0 142.5 94.5 250t235.5 107.5t236.5 -107.5t95.5 -249.5t-95.5 -249t-236.5 -107t-235.5 106.5t-94.5 249zM188 332q0 -119 78 -209t195 -90t194.5 90t77.5 209t-77.5 208t-194.5 89t-195 -89t-78 -208zM305 815q0 47 47 47t48 -47q0 -47 -48 -47 q-47 0 -47 47zM496 815q0 47 47 47t47 -47t-47 -47t-47 47z" />
<glyph unicode="&#xf7;" horiz-adv-x="743" d="M141 664q0 29 29 28h405q27 0 27 -28q0 -29 -27 -29h-405q-29 0 -29 29zM326 545q0 47 47 47t47 -47t-47 -47t-47 47zM326 793q0 47 47 47t47 -47q0 -48 -47 -48t-47 48z" />
<glyph unicode="&#xf8;" horiz-adv-x="931" d="M131 334.5q0 140.5 94 247t222.5 106.5t218.5 -78q57 66 69 66q29 0 29 -29q0 -10 -57 -78q84 -102 84 -241t-94.5 -246t-221.5 -107t-217 76q-60 -69 -72 -69q-29 0 -28 28q0 12 59 82q-86 102 -86 242.5zM188 336q0 -115 68 -201l373 432q-74 63 -179.5 63.5 t-183.5 -89.5t-78 -205zM297 94q72 -61 176.5 -61t182 90t77.5 204t-65 197z" />
<glyph unicode="&#xf9;" horiz-adv-x="831" d="M131 272v367q0 29 29 29t28 -29v-367q0 -100 54.5 -173t152.5 -72q238 0 238 379v233q0 29 29 29t28 -29v-627q0 -29 -28 -28q-29 0 -29 28v119q-80 -162 -238 -162q-121 0 -192.5 90t-71.5 213zM264 893q0 28 29 28q12 0 20 -8l189 -188q8 -8 8 -21q0 -29 -29 -28 q-12 0 -20 8l-188 188q-8 8 -9 21z" />
<glyph unicode="&#xfa;" horiz-adv-x="831" d="M131 272v367q0 29 29 29t28 -29v-367q0 -100 54.5 -173t152.5 -72q238 0 238 379v233q0 29 29 29t28 -29v-627q0 -29 -28 -28q-29 0 -29 28v119q-80 -162 -238 -162q-121 0 -192.5 90t-71.5 213zM325 743q0 12 9 21l190 190q8 8 20 8q29 0 29 -28q0 -10 -8 -19l-191 -190 q-8 -10 -20 -10q-29 -1 -29 28z" />
<glyph unicode="&#xfb;" horiz-adv-x="831" d="M131 272v367q0 29 29 29t28 -29v-367q0 -100 54.5 -173t152.5 -72q238 0 238 379v233q0 29 29 29t28 -29v-627q0 -29 -28 -28q-29 0 -29 28v119q-80 -162 -238 -162q-121 0 -192.5 90t-71.5 213zM264 739q0 -29 29 -29q16 0 25 15l96 147l98 -147q9 -15 25 -15 q29 0 28 29q0 10 -125 199q-8 12 -25 12t-26 -12q-125 -188 -125 -199z" />
<glyph unicode="&#xfc;" horiz-adv-x="831" d="M131 272v367q0 29 29 29t28 -29v-367q0 -100 54.5 -173t152.5 -72q238 0 238 379v233q0 29 29 29t28 -29v-627q0 -29 -28 -28q-29 0 -29 28v119q-80 -162 -238 -162q-121 0 -192.5 90t-71.5 213zM264 815q0 47 47 47t48 -47q0 -47 -48 -47q-47 0 -47 47zM455 815 q0 47 47 47t47 -47t-47 -47t-47 47z" />
<glyph unicode="&#xfd;" horiz-adv-x="835" d="M131 645q0 29 29 29q18 0 26 -17l238 -579l225 577q9 19 27 19q29 0 29 -29q0 -4 -402 -1036q-6 -18 -27 -19q-29 0 -28 29q0 6 147 385q-6 6 -135 318.5t-129 322.5zM346 743q0 12 9 21l190 190q8 8 20 8q29 0 29 -28q0 -10 -8 -19l-191 -190q-8 -10 -20 -10 q-29 -1 -29 28z" />
<glyph unicode="&#xfe;" d="M141 -375v1581q0 29 29 29t29 -29v-700q96 178 286 178q139 0 234.5 -106.5t95.5 -248.5t-95 -250t-235 -108q-190 0 -286 181v-527q0 -29 -29 -28q-29 0 -29 28zM211 328q0 -119 78 -209t195.5 -90t195.5 90t78 209t-78 209t-196 90t-195.5 -90.5t-77.5 -208.5z" />
<glyph unicode="&#xff;" horiz-adv-x="835" d="M131 645q0 29 29 29q18 0 26 -17l238 -579l225 577q9 19 27 19q29 0 29 -29q0 -4 -402 -1036q-6 -18 -27 -19q-29 0 -28 29q0 6 147 385q-6 6 -135 318.5t-129 322.5zM264 815q0 47 47 47t48 -47q0 -47 -48 -47q-47 0 -47 47zM455 815q0 47 47 47t47 -47t-47 -47t-47 47z " />
<glyph unicode="&#x152;" horiz-adv-x="1677" d="M141 642q0 175 64 343t190 252q80 53 168 53q125 0 219.5 -92t145.5 -225v246q0 29 28 28h551q29 0 29 -28q0 -29 -29 -29h-522v-494h340q29 0 29 -28q0 -29 -29 -29h-340v-49q-2 -31 -2 -49l2 -490h522q29 0 29 -28q0 -29 -29 -29h-551q-29 0 -28 29v288 q-51 -131 -145 -224t-220 -93q-88 0 -168 53q-127 84 -190.5 252t-63.5 343zM199 643q0 -160 56 -315.5t171 -233.5q66 -43 137 -43q162 0 271 197q94 168 94 344q0 125 -6 172q-23 170 -105 303q-104 166 -254 166q-72 0 -137 -43q-115 -76 -171 -231.5t-56 -315.5z" />
<glyph unicode="&#x153;" horiz-adv-x="1540" d="M141 326.5q0 142.5 94.5 249t235.5 106.5q98 0 178 -57.5t121 -151.5q39 94 120 152.5t179 58.5q141 0 235.5 -106.5t94.5 -249.5q0 -29 -29 -29h-569q8 -111 84 -189.5t184 -78.5q150 0 234 119q10 14 24 14q29 0 29 -29q0 -6 -4 -14q-88 -147 -283 -148 q-98 0 -179 57.5t-120 149.5q-39 -94 -120 -151.5t-179 -57.5q-141 0 -235.5 106.5t-94.5 249zM199 326q0 -119 77.5 -208t195.5 -89t193 89t74.5 209t-76 209t-192.5 89t-194.5 -90.5t-77.5 -208.5zM801 356h538q-10 111 -85.5 191t-184.5 80t-184.5 -80t-83.5 -191z" />
<glyph unicode="&#x178;" horiz-adv-x="978" d="M131 1223q0 29 29 28q16 0 24 -16l305 -573l306 573q8 16 24 16q29 0 29 -28q0 -8 -330 -631v-572q0 -29 -29 -28q-29 0 -28 28v574q-330 621 -330 629zM346 1327q0 47 47 47t48 -47q0 -47 -48 -47q-47 0 -47 47zM537 1327q0 47 47 47t47 -47t-47 -47t-47 47z" />
<glyph unicode="&#x2c6;" horiz-adv-x="583" d="M141 985q0 -29 29 -29q16 0 25 15l96 147l98 -147q9 -15 25 -15q29 0 28 29q0 10 -125 199q-8 12 -25 12t-26 -12q-125 -188 -125 -199z" />
<glyph unicode="&#x2dc;" horiz-adv-x="671" d="M141 993q0 66 27 119t82 53t103 -74.5t77 -74.5q37 0 43 119q2 31 29 30q29 0 28 -28q0 -178 -104 -179q-53 0 -103.5 75t-72.5 75q-41 0 -51 -115q-2 -29 -29 -28q-29 -1 -29 28z" />
<glyph unicode="&#x2000;" horiz-adv-x="810" />
<glyph unicode="&#x2001;" horiz-adv-x="1620" />
<glyph unicode="&#x2002;" horiz-adv-x="810" />
<glyph unicode="&#x2003;" horiz-adv-x="1620" />
<glyph unicode="&#x2004;" horiz-adv-x="540" />
<glyph unicode="&#x2005;" horiz-adv-x="405" />
<glyph unicode="&#x2006;" horiz-adv-x="270" />
<glyph unicode="&#x2007;" horiz-adv-x="270" />
<glyph unicode="&#x2008;" horiz-adv-x="202" />
<glyph unicode="&#x2009;" horiz-adv-x="324" />
<glyph unicode="&#x200a;" horiz-adv-x="90" />
<glyph unicode="&#x2010;" horiz-adv-x="743" d="M141 664q0 29 29 28h405q27 0 27 -28q0 -29 -27 -29h-405q-29 0 -29 29z" />
<glyph unicode="&#x2011;" horiz-adv-x="743" d="M141 664q0 29 29 28h405q27 0 27 -28q0 -29 -27 -29h-405q-29 0 -29 29z" />
<glyph unicode="&#x2012;" horiz-adv-x="743" d="M141 664q0 29 29 28h405q27 0 27 -28q0 -29 -27 -29h-405q-29 0 -29 29z" />
<glyph unicode="&#x2013;" horiz-adv-x="985" d="M141 664q0 29 29 28h645q29 0 29 -28q0 -29 -29 -29h-645q-29 0 -29 29z" />
<glyph unicode="&#x2014;" horiz-adv-x="1220" d="M141 664q0 29 29 28h881q29 0 28 -28q0 -29 -28 -29h-881q-29 0 -29 29z" />
<glyph unicode="&#x2018;" horiz-adv-x="397" d="M152 1032v12q-2 41 26.5 119t58.5 78t29 -29q-23 -51 -53 -137q33 -10 33 -43q0 -47 -45 -47t-49 47z" />
<glyph unicode="&#x2019;" horiz-adv-x="397" d="M152 1014q25 51 53 137q-33 10 -33 43q0 47 46 47t48 -47v-12q2 -41 -26.5 -119t-58.5 -78t-29 29z" />
<glyph unicode="&#x201a;" horiz-adv-x="397" d="M141 -139q25 49 54 135q-33 10 -33 45q0 47 46 47t48 -47v-12q2 -41 -27 -119t-58.5 -78t-29.5 29z" />
<glyph unicode="&#x201c;" horiz-adv-x="579" d="M152 1032v12q-2 41 26.5 119t58.5 78t29 -29q-23 -51 -53 -137q33 -10 33 -43q0 -47 -45 -47t-49 47zM324 1020v12q-2 41 26.5 119t58.5 78t29 -29q-25 -51 -53 -137q33 -10 33 -43q0 -47 -46 -47t-48 47z" />
<glyph unicode="&#x201d;" horiz-adv-x="579" d="M152 1014q25 51 53 137q-33 10 -33 43q0 47 46 47t48 -47v-12q2 -41 -26.5 -119t-58.5 -78t-29 29zM324 1001q23 51 53 138q-33 10 -33 43q0 47 45 47t49 -47v-13q2 -41 -26.5 -118.5t-58.5 -77.5t-29 28z" />
<glyph unicode="&#x201e;" horiz-adv-x="544" d="M141 -139q25 49 54 135q-33 10 -33 45q0 47 46 47t48 -47v-12q2 -41 -27 -119t-58.5 -78t-29.5 29zM295 -145q25 51 53 137q-33 10 -33 43q0 47 46.5 47t48.5 -47v-12q2 -41 -27 -119t-58.5 -78t-29.5 29z" />
<glyph unicode="&#x2022;" horiz-adv-x="729" d="M141 664.5q0 97.5 64 171t160 73.5t159.5 -73.5t63.5 -170.5t-63.5 -171t-159.5 -74t-160 73.5t-64 171z" />
<glyph unicode="&#x2026;" horiz-adv-x="1077" d="M141 38q0 46 47 46t48 -45q0 -47 -48 -47q-47 0 -47 46zM492 39q0 47 47 47t47 -47t-47 -47t-47 47zM834 39q0 47 47 47t47 -47t-47 -47t-47 47z" />
<glyph unicode="&#x202f;" horiz-adv-x="324" />
<glyph unicode="&#x2039;" horiz-adv-x="485" d="M141 326q0 14 2 16l146 311q8 18 26 19q29 0 29 -29q0 -8 -145 -317q145 -309 145 -316q0 -29 -29 -28q-18 0 -26 16l-146 311q-2 2 -2 17z" />
<glyph unicode="&#x203a;" horiz-adv-x="485" d="M141 10q0 -29 29 -28q18 0 27 16l145 311q2 2 2 17q0 14 -2 16l-145 311q-8 18 -27 19q-29 0 -29 -29q1 -8 146 -317q-145 -309 -146 -316z" />
<glyph unicode="&#x205f;" horiz-adv-x="405" />
<glyph unicode="&#x20ac;" horiz-adv-x="12947" d="M10086 597q0 26 33 30h51q0 39 4 82q-63 0 -53 -2q-35 4 -35 30q0 27 39 31q-18 -2 58 -2q29 188 123 328q119 172 286 172q143 0 242 -117q8 -8 8 -19q0 -29 -29 -28l-71 53q-72 53 -150 53q-143 0 -243 -155q-82 -123 -109 -287h371q29 0 28 -29q0 -29 -28 -28h-379 q-4 -43 -4 -82h383q29 0 28 -29q0 -29 -28 -29h-383q10 -190 94 -348q104 -199 270 -198q78 0 150 53l71 53q29 0 29 -29q0 -12 -8 -20q-98 -115 -242 -115q-193 0 -313 213q-98 176 -109 391q-57 0 -51 -2q-33 4 -33 30z" />
<glyph unicode="&#x2122;" horiz-adv-x="1179" d="M141 1199q0 28 29 28h313q29 0 29 -28t-29 -28h-127v-563q0 -29 -28 -28q-29 0 -29 28v563h-129q-29 0 -29 28zM545 608v598q0 29 25.5 29t33.5 -23l189 -514l190 519q7 18 27 18q29 0 28 -29v-598q0 -29 -28 -28q-29 0 -29 28v441l-160 -439q-10 -27 -29 -26.5t-26 20.5 l-164 445v-441q0 -29 -29 -28q-29 0 -28 28z" />
<glyph unicode="&#xe000;" horiz-adv-x="675" d="M0 0v676h676v-676h-676z" />
</font>
</defs>
</svg>
