<?xml version="1.0" standalone="no"?>
<!DOCTYPE svg PUBLIC "-//W3C//DTD SVG 1.1//EN" "http://www.w3.org/Graphics/SVG/1.1/DTD/svg11.dtd" >
<svg xmlns="http://www.w3.org/2000/svg">
<metadata></metadata>
<defs>
<font id="adobe_hebrewregular" horiz-adv-x="1028" >
<font-face units-per-em="2048" ascent="1489" descent="-559" />
<missing-glyph horiz-adv-x="483" />
<glyph unicode="&#xfb01;" horiz-adv-x="1132" d="M51 848l60 63h102v50q0 86 25 163q48 145 172 244q134 103 264 113q85 -1 140.5 -32.5t84.5 -68.5q29 -39 12 -80q-25 -38 -49 -51q-41 -24 -61 2q-33 37 -57.5 60t-70.5 46t-93 23q-42 0 -75.5 -22t-53.5 -58q-64 -92 -64 -319v-70h168q265 0 395 27v-727 q0 -98 23 -123.5t123 -34.5v-53h-451v53q87 9 109 35t22 123v500q0 76 -17 95t-93 19h-279v-618q0 -94 23.5 -119.5t121.5 -34.5v-53h-469v53q53 6 78.5 12t44 23.5t23 43.5t4.5 75v618h-154z" />
<glyph unicode="&#xfb02;" horiz-adv-x="1128" d="M55 850l58 61h100v35q0 110 27 189q43 135 170 239q120 92 249 107q101 3 177 -49q15 5 29.5 11.5t35.5 18.5t31 17l18 -13v-1255q0 -97 24.5 -122t125.5 -34v-55h-457v55q48 4 71 9.5t39 23.5t19.5 44.5t3.5 78.5v1079q-29 43 -81 69.5t-107 26.5q-89 0 -139 -73 q-62 -80 -62 -289v-113h242q10 -15 2.5 -45.5t-25.5 -40.5h-219v-618q0 -94 22 -118.5t117 -33.5v-55h-463v55q55 7 80.5 12.5t43.5 23t22 42t4 74.5v618h-150z" />
<glyph horiz-adv-x="2048" />
<glyph horiz-adv-x="2048" />
<glyph unicode="&#xd;" horiz-adv-x="2048" />
<glyph unicode=" "  horiz-adv-x="483" />
<glyph unicode="&#x09;" horiz-adv-x="483" />
<glyph unicode="&#xa0;" horiz-adv-x="483" />
<glyph unicode="!" horiz-adv-x="581" d="M168 102q0 53 35 89t86 36q55 0 89 -36t34 -89q0 -58 -33.5 -92.5t-89.5 -34.5h-2q-51 0 -85 35t-34 92zM170 1321q0 33 28 48t89 15h2q62 0 89.5 -14.5t27.5 -48.5q0 -40 -15 -166q-28 -233 -67 -739q-8 -12 -37 -12t-35 12q-3 41 -11 149.5t-12 160.5t-11.5 136.5 t-15 154.5t-16.5 138q-16 134 -16 166z" />
<glyph unicode="&#x22;" horiz-adv-x="679" d="M88 1419l168 60l12 -11q-12 -155 -55 -467l-61 -26q-16 141 -36.5 281.5t-27.5 162.5zM408 1419l167 60l13 -11q-12 -154 -56 -467l-61 -26q-52 414 -63 444z" />
<glyph unicode="#" horiz-adv-x="1011" d="M49 416l23 125h211l59 280h-195l19 127h207l69 316h82l-71 -316h225l70 316h83l-67 -316h182l-20 -127h-193l-63 -280h182l-21 -125h-188l-82 -363h-82l80 363h-227l-78 -363h-84l82 363h-203zM367 541h221l63 280h-225z" />
<glyph unicode="$" d="M129 299l59 12q105 -246 295 -262v348l-57 19q-125 38 -192.5 95.5t-67.5 154.5q0 110 85 187.5t232 90.5v135h72v-131q103 0 244 -43q34 -157 43 -225l-60 -16q-17 42 -33 72t-42 62.5t-64.5 52.5t-87.5 26v-322l41 -12q71 -21 120 -42.5t92.5 -54t65 -78.5t21.5 -106 q0 -115 -95 -192.5t-245 -89.5v-154h-72v151q-156 2 -299 72q-33 117 -55 250zM313 729q0 -112 170 -156v304q-82 -4 -126 -45.5t-44 -102.5zM555 47q84 6 131 45.5t47 108.5q0 62 -37 102.5t-141 75.5v-332z" />
<glyph unicode="%" horiz-adv-x="1497" d="M113 797q0 56 16.5 111.5t49.5 104.5t89.5 79t128.5 30h2q68 0 123 -30.5t87.5 -78.5t49.5 -103.5t17 -110.5q0 -56 -17 -112t-50 -105.5t-88.5 -80t-125.5 -30.5q-71 0 -127.5 31t-89 80.5t-49 104.5t-16.5 110zM270 799q0 -39 5.5 -80t18 -85.5t39.5 -73t64 -28.5 t63.5 28.5t38.5 74t16.5 84.5t4.5 78q0 40 -4.5 80t-16.5 85t-38.5 73t-63.5 28h-2q-37 0 -63 -28t-38.5 -72.5t-18 -85t-5.5 -78.5zM352 -12l717 1163l68 -47l-719 -1165zM827 301q0 44 10.5 89t33 88t55 76.5t81 54t105.5 20.5h2q68 0 123 -31t87.5 -80t49.5 -105t17 -112 q0 -55 -17 -110.5t-50 -104t-88.5 -79t-125.5 -30.5t-126.5 30.5t-89.5 79.5t-50 104t-17 110zM985 303q0 -38 5.5 -78.5t18 -85.5t39.5 -73.5t64 -28.5t63.5 28.5t38.5 74t16.5 84.5t4.5 77q0 41 -4.5 81t-16.5 85t-38.5 72.5t-63.5 27.5h-2q-37 0 -63 -28t-38.5 -72 t-18 -84.5t-5.5 -79.5z" />
<glyph unicode="&#x26;" horiz-adv-x="1501" d="M113 352q0 52 16.5 98.5t32 75.5t66 73.5t71.5 60t95 67.5q21 15 32 23q-76 70 -114 138.5t-38 149.5q0 139 104 236.5t245 97.5q133 0 225 -82.5t92 -206.5q0 -102 -90 -184q-55 -49 -168 -123q219 -190 350 -321q69 103 125 235q32 72 8 99t-135 42v58h483v-58 q-54 -6 -88.5 -15.5t-62.5 -31t-45 -42t-49 -66.5q-82 -119 -183 -275q87 -83 194.5 -208.5t152.5 -208.5l-15 -21q-87 6 -166 32.5t-100 49.5q-49 56 -182 201q-109 -146 -215.5 -210.5t-221.5 -64.5q-97 0 -178.5 33.5t-133 88.5t-79.5 122.5t-28 136.5zM299 414 q0 -138 88 -216.5t201 -78.5h2q95 0 184.5 53.5t145.5 128.5q-180 196 -441 404q-180 -131 -180 -291zM432 1094q0 -78 45.5 -139t149.5 -138q151 109 151 264q0 91 -49.5 154t-126.5 63h-2q-72 0 -120 -57t-48 -147z" />
<glyph unicode="'" horiz-adv-x="362" d="M86 1421l170 58l12 -11q-12 -155 -55 -467l-61 -26q-16 137 -37.5 279t-28.5 167z" />
<glyph unicode="(" horiz-adv-x="727" d="M150 563v2q0 289 110 525t332 387l43 -50q-156 -130 -243 -361t-87 -503t87.5 -505.5t242.5 -360.5l-43 -49q-222 149 -332 386t-110 529z" />
<glyph unicode=")" horiz-adv-x="727" d="M94 -303q156 130 242 361.5t86 504.5q0 271 -87.5 504t-240.5 360l39 50q226 -154 335.5 -388.5t109.5 -525.5v-2q0 -291 -109.5 -525t-335.5 -388z" />
<glyph unicode="*" horiz-adv-x="843" d="M82 1233l31 43l254 -168l122 276l52 -12l-60 -291l283 -4v-55l-277 -51l80 -287l-49 -20l-145 272l-256 -160l-31 47l213 195z" />
<glyph unicode="+" horiz-adv-x="1206" d="M109 475v107h434v430h125v-430h434v-107h-434v-475h-125v475h-434z" />
<glyph unicode="," horiz-adv-x="481" d="M90 -184q164 65 164 176q0 54 -37.5 91t-95.5 50q-9 2 -18 15.5t-9 37.5q0 40 31.5 65t71.5 25h2q67 0 131.5 -64.5t64.5 -166.5q0 -59 -24.5 -108.5t-66.5 -84.5t-89 -59t-102 -41z" />
<glyph unicode="-" horiz-adv-x="747" d="M117 410l30 118h486l-31 -118h-485z" />
<glyph unicode="." horiz-adv-x="481" d="M121 100q0 52 34.5 87.5t86.5 35.5t86 -35.5t34 -87.5q0 -56 -33.5 -90.5t-86.5 -34.5h-2q-52 0 -85.5 34.5t-33.5 90.5z" />
<glyph unicode="/" horiz-adv-x="696" d="M51 -92l459 1476h121l-459 -1476h-121z" />
<glyph unicode="0" d="M86 455q0 216 122 352.5t306 136.5h2q188 0 308 -135.5t120 -347.5q0 -112 -35 -205.5t-94.5 -154t-136.5 -93.5t-162 -33q-190 0 -310.5 131.5t-119.5 348.5zM258 457q0 -182 75.5 -288t182.5 -106q111 0 183.5 106.5t72.5 287.5q0 185 -74 291t-182 106h-2 q-109 0 -182.5 -108t-73.5 -289z" />
<glyph unicode="1" d="M201 0v57l133 17q70 6 88 29.5t18 101.5v457q0 83 -14.5 105t-73.5 26l-127 6v55q176 23 389 90v-739q0 -78 19.5 -102t93.5 -31l125 -15v-57h-651z" />
<glyph unicode="2" d="M125 0v43q14 10 44 32q54 39 83.5 60.5t83.5 64.5t86 74t73 76t64 83t39 83.5t16 89.5q0 86 -48 144.5t-146 58.5q-49 0 -99 -30.5t-74 -57t-59 -70.5q-6 -7 -8 -10l-43 39l107 154q110 110 254 110q141 0 224 -84t83 -211q0 -84 -40 -146t-116 -126q-26 -25 -60 -54.5 t-101 -86.5t-101 -86v-5h332q74 0 101.5 19.5t64.5 91.5l55 -6l-59 -250h-756z" />
<glyph unicode="3" d="M131 -195q12 37 43 56q27 24 53 -2q114 -95 215 -95q92 0 158 76.5t66 218.5q0 68 -22 121t-58 82.5t-76 44.5t-80 15q-62 0 -123 -23l-14 55q148 60 222.5 129t74.5 162q0 87 -47 132.5t-123 45.5q-105 0 -205 -137l-41 37l88 121q41 44 101.5 72t128.5 28h2 q124 0 199 -72.5t75 -189.5q0 -79 -61 -133q-56 -52 -136 -107v-4q127 -21 203 -106.5t76 -194.5q0 -80 -30 -151.5t-78 -122t-106 -91t-116.5 -64t-106.5 -36t-79 -12.5q-53 0 -101.5 20t-76.5 46q-39 33 -25 79z" />
<glyph unicode="4" d="M63 72v75q401 532 619 797h94v-756h197l-21 -116h-176v-398h-174v398h-539zM203 188h399v537h-6q-171 -221 -393 -537z" />
<glyph unicode="5" d="M168 -276q30 5 53.5 9.5t77 20t95 33t92.5 48.5t84.5 68t57 91t23.5 117q0 64 -26.5 113t-69 78t-102.5 47.5t-119 25t-127 6.5l80 516l542 47l-30 -158l-451 -41l-43 -215q77 -1 148 -12.5t141.5 -40t121.5 -71t83 -110.5t32 -153q0 -198 -186 -331q-96 -71 -228 -110.5 t-241 -41.5z" />
<glyph unicode="6" d="M96 467q0 128 43.5 245t119.5 207t170.5 158.5t203.5 112.5q136 54 270 70l15 -66q-148 -32 -261 -119q-123 -67 -207.5 -167.5t-121.5 -205.5l125 52q87 37 127 37q155 0 258.5 -103t103.5 -272q0 -187 -124 -314t-306 -127q-81 0 -154.5 30.5t-132.5 89t-94 154.5 t-35 218zM295 477q0 -197 73.5 -312.5t182.5 -115.5q87 0 145 68.5t58 206.5q0 64 -14 121.5t-44 110.5t-88 84.5t-137 31.5h-2q-69 0 -160 -43q-14 -69 -14 -152z" />
<glyph unicode="7" d="M106 -313q292 402 672 1071h-653v162h799l18 -27q-324 -576 -659 -1202l-162 -31z" />
<glyph unicode="8" d="M121 309q0 109 86 191q50 47 180 123q-217 117 -217 309q0 132 101.5 230t256.5 98h2q144 0 235 -84t91 -213q0 -89 -55 -150q-55 -60 -154 -131q50 -31 79 -50t68.5 -53t61 -65.5t37.5 -77.5t16 -98q0 -69 -25 -129t-65.5 -102t-93 -72.5t-108 -45t-109.5 -14.5 q-169 0 -278 89t-109 245zM291 322q0 -130 71 -205.5t166 -75.5h2q90 0 146.5 62t56.5 178q-1 54 -23.5 99.5t-67.5 84t-89.5 66t-112.5 61.5q-73 -52 -111 -122t-38 -148zM332 995q0 -35 8.5 -65.5t29 -57t39.5 -45.5t55 -42t59.5 -36.5t68.5 -37.5q106 89 106 252 q0 114 -56 172.5t-126 58.5h-2q-85 0 -133.5 -59t-48.5 -140z" />
<glyph unicode="9" d="M57 -281q95 16 186.5 52.5t180 95.5t160.5 151t112 205l-82 -37q-89 -41 -159 -41q-90 0 -170 43t-131.5 128t-51.5 192q0 128 61 229.5t155.5 154t199.5 52.5h2q100 0 178.5 -41t126.5 -110.5t72.5 -155t24.5 -180.5q0 -145 -44.5 -268t-122.5 -211t-169.5 -149.5 t-200.5 -102.5q-60 -23 -154 -43t-163 -23zM287 586q0 -154 82.5 -241t197.5 -87q74 0 142 35q18 61 18 158q0 49 -5 99t-21.5 110.5t-42.5 105.5t-72.5 75.5t-106.5 30.5h-2q-86 0 -138 -84t-52 -202z" />
<glyph unicode=":" horiz-adv-x="481" d="M123 100q0 52 34.5 87.5t86.5 35.5t86.5 -35.5t34.5 -87.5q0 -56 -34 -90.5t-87 -34.5h-2q-52 0 -85.5 34.5t-33.5 90.5zM123 733q0 54 33.5 88.5t85.5 34.5h2q51 0 84.5 -34.5t33.5 -88.5t-34 -89.5t-86 -35.5t-85.5 35.5t-33.5 89.5z" />
<glyph unicode=";" horiz-adv-x="481" d="M94 -184q162 66 162 176q0 54 -37.5 91t-95.5 50q-9 2 -18 15.5t-9 37.5q0 40 31.5 65t71.5 25h2q67 0 131.5 -64.5t64.5 -164.5q0 -59 -24.5 -110t-67 -86.5t-89.5 -60t-101 -40.5zM121 733q0 54 33.5 88.5t87.5 34.5h2q50 0 84 -35t34 -88q0 -54 -34.5 -89.5 t-85.5 -35.5q-54 0 -87.5 35.5t-33.5 89.5z" />
<glyph unicode="&#x3c;" horiz-adv-x="1148" d="M125 475v103l901 477v-121l-776 -406v-4l776 -405v-119z" />
<glyph unicode="=" horiz-adv-x="1206" d="M109 285v108h993v-108h-993zM109 666v106h993v-106h-993z" />
<glyph unicode="&#x3e;" horiz-adv-x="1148" d="M125 0v119l778 405v4l-778 408v119l901 -477v-103z" />
<glyph unicode="?" horiz-adv-x="798" d="M119 1227q0 39 45 78q45 38 103 58.5t95 20.5h3q130 0 233.5 -103t103.5 -232q0 -57 -23 -100.5t-79 -88.5q-11 -9 -61.5 -45.5t-81 -61t-59.5 -64t-29 -73.5q0 -47 22 -82.5t72 -80.5l-39 -47q-78 27 -158 105t-80 165q0 55 40.5 108t140.5 127q115 82 155 125 q52 56 53 101q0 52 -31.5 81t-88.5 29q-46 0 -91 -18.5t-72.5 -40t-50.5 -40t-30 -18.5q-28 0 -60 30t-32 67zM270 100q0 52 33.5 88.5t85.5 36.5q50 0 84.5 -36.5t34.5 -88.5q0 -56 -33.5 -90.5t-85.5 -34.5h-2q-52 0 -84.5 34.5t-32.5 90.5z" />
<glyph unicode="@" horiz-adv-x="1585" d="M109 434q1 142 45.5 266.5t121.5 216t179 157.5t218.5 99t237.5 33q137 0 250.5 -43.5t187.5 -117t114 -170.5t40 -205q0 -140 -65 -259t-180 -189t-254 -70q-54 0 -79.5 19.5t-25.5 52.5t8 77l25 119l-4 2q-60 -87 -175 -178.5t-184 -91.5q-42 0 -72 45.5t-30 132.5 q2 97 44 203t128 188q157 150 338 153q34 0 106 -16q39 -8 70 -8q-55 -232 -98 -471q-17 -82 -8.5 -109.5t47.5 -27.5q54 2 107 30t98 79.5t72.5 134.5t27.5 184q0 212 -139 333t-361 121q-190 0 -339.5 -86.5t-231.5 -239.5t-82 -345q0 -86 18.5 -164.5t61 -152 t106.5 -127.5t161 -86t218 -32q86 0 185 25.5t147 52.5l24 -59q-198 -113 -424 -113q-127 0 -239.5 40.5t-201.5 117.5t-141 200.5t-52 278.5zM633 383q0 -96 43 -96q33 0 110.5 65.5t161.5 184.5q26 87 53 231q-52 23 -112 23h-2q-78 0 -135 -64q-47 -52 -82.5 -150 t-36.5 -194z" />
<glyph unicode="A" horiz-adv-x="1464" d="M41 0v59q57 8 84.5 16t56.5 32t49 61t50 108l436 1090l69 18q381 -1036 408 -1110q26 -71 44 -108t45.5 -61t56.5 -32t85 -14v-59h-526v59q101 13 123 35q11 11 11 32q0 20 -11 50q-30 90 -111 316h-450q-43 -126 -88 -265q-22 -59 -22 -93q0 -22 9 -34q23 -30 144 -41 v-59h-463zM498 580h381l-183 524h-4q-55 -137 -194 -524z" />
<glyph unicode="B" horiz-adv-x="1247" d="M76 0v59q50 4 77 7.5t52 13t35 19.5t18 35t9 51t1 75v834q0 49 -1 74.5t-8 51t-15.5 35t-31.5 19t-48 12.5t-72 6v62h549q216 0 320 -72q55 -36 86.5 -100.5t31.5 -137.5q0 -228 -288 -311v-4q372 -55 372 -330q0 -207 -198 -315q-151 -84 -416 -84h-473zM455 264 q0 -113 37 -151.5t139 -38.5q65 1 120 18.5t100 52.5t71 95t26 139q0 305 -401 305h-92v-420zM455 754h96q169 0 246 65.5t77 198.5q0 117 -68.5 191.5t-207.5 74.5q-80 0 -117 -22q-26 -17 -26 -103v-405z" />
<glyph unicode="C" horiz-adv-x="1415" d="M92 659q0 215 105 380.5t291.5 255t424.5 89.5q78 0 154 -11t147 -28t76 -18q36 -237 45 -319l-63 -15q-41 166 -142 240t-274 74q-103 0 -191 -33t-151.5 -90.5t-109 -134.5t-67.5 -165.5t-22 -183.5q0 -290 156 -472.5t399 -182.5q155 0 254.5 79.5t186.5 248.5l61 -23 q-65 -218 -121 -325q-6 -1 -38.5 -8t-56.5 -12t-66 -12.5t-77 -12t-77.5 -8t-79.5 -3.5q-154 0 -282.5 40t-216 107t-148.5 156.5t-89 187t-28 199.5z" />
<glyph unicode="D" horiz-adv-x="1562" d="M68 0v57q51 4 78.5 7.5t53.5 13t36.5 20.5t19.5 35.5t10.5 52.5t1.5 76v830q0 48 -1.5 76t-9.5 52t-17.5 34.5t-33.5 19.5t-48 12t-70 6v62h604q409 0 598 -180q83 -78 131.5 -192t48.5 -255q0 -359 -262 -555q-228 -172 -628 -172h-512zM457 276q0 -116 51 -157t172 -41 q141 0 252.5 49.5t180.5 136t104.5 196.5t35.5 236q0 165 -61.5 294.5t-179.5 201.5q-139 90 -361 90q-124 0 -168 -27q-15 -11 -20.5 -35t-5.5 -85v-859z" />
<glyph unicode="E" horiz-adv-x="1200" d="M59 0v59q53 4 83 8t56.5 14t38 21t20 35.5t10 51t1.5 73.5v823q0 51 -1.5 79.5t-9.5 53.5t-16.5 36t-32.5 20t-48 12t-70 6v62h942q1 -35 21 -303l-64 -9q-26 109 -69 179q-23 32 -73.5 44.5t-162.5 12.5h-156q-50 0 -60.5 -10t-10.5 -56v-471h194q50 0 80.5 1.5t56 8.5 t38 15.5t24 29t16.5 41.5t13 60h61v-401h-61q-7 36 -12.5 56.5t-12.5 40.5t-19 29.5t-25 18t-38 11t-50.5 4t-68.5 1.5h-196v-389q0 -75 11 -112.5t40 -55.5q28 -17 76 -21.5t139 -4.5q117 0 173 14.5t91 54.5q61 75 107 197l61 -8q-9 -54 -34 -168.5t-38 -163.5h-1024z" />
<glyph unicode="F" horiz-adv-x="1118" d="M84 0v59q47 4 72.5 7.5t49.5 13t33.5 20.5t17.5 36t9.5 53t1.5 77v821q0 49 -1.5 77.5t-9.5 53.5t-17 36t-32.5 20t-47.5 12t-70 6v62h932q3 -122 22 -310l-63 -10q-25 118 -59 170q-28 44 -76 59t-164 15h-156q-47 0 -58 -10t-11 -56v-491h213q51 0 81.5 1.5t56 9 t37.5 15t23 28.5t16 40.5t13 58.5h64v-405h-64q-7 41 -12 62.5t-16 44.5t-24 32t-37.5 18t-56.5 11t-81 2h-213v-373q0 -50 1.5 -77.5t10.5 -52.5t19.5 -36t38 -20.5t56.5 -13t83 -7.5v-59h-582z" />
<glyph unicode="G" horiz-adv-x="1521" d="M92 668q0 140 44.5 258t121.5 201.5t180.5 142t221.5 86.5t245 28q62 0 132 -8t112.5 -16t102 -20.5t67.5 -14.5q12 -144 33 -332l-64 -12q-35 179 -141.5 253.5t-274.5 74.5q-244 0 -399.5 -167.5t-155.5 -449.5q0 -93 21.5 -183.5t68.5 -175t113.5 -149t164.5 -103 t214 -38.5q114 0 184 37q35 21 50.5 49t15.5 86v174q0 43 -1.5 65.5t-10 45t-20 31.5t-39.5 18t-60.5 12.5t-89.5 7.5v62h545v-62q-94 -12 -114 -34.5t-20 -116.5v-176q0 -126 15 -197q-7 -2 -79.5 -18.5t-101 -22t-89.5 -16.5t-111 -15t-99 -4q-232 0 -410 88t-275 247 t-97 364z" />
<glyph unicode="H" horiz-adv-x="1628" d="M80 1292v62h557v-62q-46 -3 -70.5 -6.5t-48 -12t-33 -19.5t-17.5 -34.5t-9.5 -51t-1.5 -74.5v-334h714v334q0 47 -1.5 74.5t-9.5 51t-18 34.5t-33.5 19.5t-48.5 12t-71 6.5v62h559v-62q-48 -3 -74 -6t-50.5 -12t-34.5 -19.5t-18 -34.5t-9.5 -51.5t-1.5 -74.5v-834 q0 -48 1.5 -75.5t9.5 -51.5t18 -34.5t34.5 -20t50 -12.5t74.5 -7v-59h-573v59q50 4 76.5 7t52.5 12.5t36 20t19 34.5t10.5 51.5t1.5 75.5v412h-714v-412q0 -47 1.5 -74.5t10 -51.5t18.5 -35t34.5 -20t51 -12.5t74.5 -7.5v-59h-561v59q47 4 72 7t49 12.5t33.5 20t18 34.5 t10 51.5t1.5 75.5v834q0 47 -1.5 74.5t-10 51t-18.5 34.5t-35 20t-51 12t-74 6z" />
<glyph unicode="I" horiz-adv-x="724" d="M80 0v59q48 4 74 7.5t50.5 12.5t34.5 20t18 35.5t9.5 52t1.5 75.5v828q0 49 -1.5 76.5t-9.5 52t-18 35t-34.5 20t-50.5 12.5t-74 6v62h565v-62q-48 -3 -74 -6t-50.5 -12.5t-34.5 -20t-18 -35t-9.5 -52t-1.5 -76.5v-828q0 -49 1.5 -76.5t9.5 -52t18 -35t34.5 -20t50 -12.5 t74.5 -7v-59h-565z" />
<glyph unicode="J" horiz-adv-x="700" d="M55 -281q163 77 203 271q21 121 21 399v701q0 48 -1.5 75.5t-9.5 52t-18 35.5t-34.5 20t-50.5 12.5t-73 6.5v62h555v-62q-46 -3 -71 -6.5t-48 -12.5t-33 -20t-17.5 -35.5t-9 -52t-1.5 -75.5v-764q0 -206 -40 -328.5t-146 -218.5q-90 -85 -197 -121z" />
<glyph unicode="K" horiz-adv-x="1427" d="M84 1292v62h553v-62q-46 -3 -71 -6.5t-49 -13t-34 -21.5t-18 -36.5t-10 -54.5t-2 -79v-362q60 12 149 98q224 213 348 365q41 47 41 70q-1 4 -1 6q-6 22 -75 30l-47 4v62h510v-62q-121 -11 -183.5 -38t-160.5 -115q-73 -66 -366 -359q110 -137 254.5 -304t236.5 -265 q81 -85 129.5 -113t126.5 -39v-59h-334q-185 211 -514 602q-35 42 -59.5 54.5t-54.5 7.5v-394q0 -49 2 -78t10.5 -54t19 -37t35.5 -21.5t52 -13t75 -7.5v-59h-555v59q44 4 68.5 7.5t47 13t32 21.5t17.5 37t9.5 54t1.5 78v811q0 38 -1 62.5t-5 47t-8.5 36t-15.5 25.5 t-22.5 17.5t-33 10.5t-42.5 7t-56 5z" />
<glyph unicode="L" horiz-adv-x="1134" d="M76 0v59q49 4 76 7.5t51.5 13t35 21t18.5 36.5t9.5 52.5t1.5 76.5v826q0 49 -1.5 76t-9 51.5t-17 35t-34 19.5t-49.5 12t-73 6v62h559v-62q-48 -3 -73 -5.5t-49.5 -11t-34 -19.5t-18 -35t-10 -52t-1.5 -77v-820q0 -84 10 -120.5t39 -51.5q46 -26 199 -26q90 0 144 13.5 t89 49.5q61 67 111 205l61 -10q-11 -64 -36.5 -177t-41.5 -155h-956z" />
<glyph unicode="M" horiz-adv-x="1880" d="M53 0v59q93 12 130.5 37.5t47.5 87.5q23 144 41 383l29 426q4 56 6 90q1 17 1 34t-1 34q-2 34 -4.5 51t-14 34.5t-22.5 24.5t-36 14.5t-47.5 10t-63.5 6.5v62h352l477 -1032l482 1032h364v-62q-32 -3 -50 -4.5t-40 -5.5t-32.5 -7t-24.5 -11t-19 -15t-12 -21t-8.5 -27.5 t-3.5 -36.5t-1.5 -46t1.5 -57l20 -752q2 -64 3 -95t10 -63.5t18 -43.5t34 -23.5t51 -16t77 -8.5v-59h-560v59q127 13 152 48q23 32 23 176v24l-7 842h-8l-510 -1137h-45l-469 1108h-4l-31 -588q-7 -151 -7 -269q0 -39 1 -75q3 -70 42 -93t151 -36v-59h-492z" />
<glyph unicode="N" horiz-adv-x="1572" d="M41 1292v62h319l881 -1037h6v500q0 208 -14 346q-7 69 -52 96t-157 33v62h500v-62q-91 -5 -130 -31t-46 -94q-13 -137 -13 -350v-837h-67l-906 1087h-4v-516q0 -218 13 -350q9 -78 51 -107t151 -35v-59h-499v59q92 5 133.5 34t50.5 102q12 136 12 356v453q0 112 -6.5 144 t-34.5 69q-33 38 -73 53.5t-115 21.5z" />
<glyph unicode="O" horiz-adv-x="1591" d="M92 664q0 140 50.5 270t141 230t228 160t299.5 60h2q135 0 259.5 -50t219.5 -138t152 -219t57 -283q0 -164 -57 -302t-154.5 -229.5t-227.5 -142.5t-276 -51q-192 0 -350.5 89.5t-251 249t-92.5 356.5zM315 719q0 -191 66.5 -345.5t185 -241.5t264.5 -87q89 0 168 37 t141.5 108.5t99 187t36.5 261.5q0 159 -40.5 287.5t-110 210.5t-160.5 126t-195 44h-2q-89 0 -169.5 -37.5t-144 -109t-101.5 -185.5t-38 -256z" />
<glyph unicode="P" horiz-adv-x="1193" d="M84 0v57q46 4 72.5 8t49.5 14t33.5 21.5t18 36t9 51.5t1.5 74v828q0 50 -1.5 78.5t-9 53t-16 35t-32 19t-46 11t-67.5 5.5v62h531q234 0 352 -86q137 -99 137 -295q0 -98 -34.5 -177.5t-93 -130t-129.5 -80.5t-152 -40q-29 -4 -58 -4q-19 0 -39 2l-155 41v-324 q0 -48 1.5 -75.5t11 -51.5t20 -35t38.5 -20t56 -12.5t82 -8.5v-57h-580zM455 653q65 -24 149 -24q43 0 82.5 9t80.5 33t70.5 60.5t48.5 96.5t19 137q0 109 -44 182.5t-112.5 105t-156.5 31.5q-91 0 -115 -24q-22 -16 -22 -97v-510z" />
<glyph unicode="Q" horiz-adv-x="1587" d="M92 655q0 146 50 277.5t141 232t230 160t306 59.5q135 0 258.5 -50.5t217.5 -139.5t150 -221t56 -285q0 -133 -40 -250t-108 -201.5t-153.5 -143.5t-181.5 -89q265 -181 516 -293l-16 -45q-23 -1 -45 -1q-128 0 -232 30q-60 15 -187 83t-302 193q-107 5 -228.5 49 t-212.5 132q-101 93 -160 223t-59 280zM315 711q0 -258 120 -439t306 -221l148 49q19 -10 59 -41q64 19 121 63.5t104 113t75 170.5t28 223q0 316 -142.5 497t-365.5 181q-90 0 -170.5 -38.5t-144 -111t-101 -188t-37.5 -258.5z" />
<glyph unicode="R" horiz-adv-x="1314" d="M80 0v59q47 4 73.5 7.5t50.5 13t34 20.5t18.5 35.5t10 52t1.5 74.5v832q0 48 -1.5 75.5t-9.5 51t-17 34t-33 19.5t-48 12t-71 6v62h528q122 0 201.5 -16.5t138.5 -55.5q67 -41 104.5 -111t37.5 -163q0 -238 -269 -353q49 -94 187 -301q116 -165 170 -219q69 -74 149 -98 l-8 -53q-51 0 -76 2q-124 6 -200 47t-146 141q-26 36 -56.5 83t-51.5 81.5t-54 90t-47 77.5q-29 47 -66.5 65.5t-113.5 18.5h-63v-328q0 -47 1.5 -74.5t10 -52t18.5 -35.5t34 -20.5t50.5 -13t73.5 -7.5v-59h-561zM453 659h96q155 0 229 60q59 47 86 109t27 149 q0 81 -25 141.5t-68.5 95t-96 51.5t-113.5 17q-86 0 -113 -20q-22 -14 -22 -91v-512z" />
<glyph unicode="S" horiz-adv-x="1003" d="M88 373l62 16q11 -44 28 -86.5t46.5 -91t66.5 -84.5t91 -60t116 -24q116 0 180.5 67t64.5 181q0 45 -13.5 83t-34.5 67t-58.5 58t-73.5 50.5t-90 50.5q-43 22 -65.5 34t-65 38.5t-67.5 47.5t-57.5 54.5t-49.5 66.5t-30 77t-13 92q0 159 119 266.5t317 107.5 q115 0 268 -49q4 -37 16.5 -129.5t20.5 -158.5l-61 -15q-13 46 -26 80t-36 74t-50.5 65.5t-70 42.5t-94.5 17q-112 0 -171.5 -66t-59.5 -160q0 -103 63 -168t203 -135q50 -26 75.5 -39.5t71 -41t70.5 -48t57.5 -54t49 -66t29 -75.5t12.5 -91q0 -169 -131 -283.5t-340 -114.5 q-102 0 -207 33q-60 17 -107 41q-10 32 -27.5 140t-27.5 190z" />
<glyph unicode="T" horiz-adv-x="1308" d="M57 1024q25 322 27 381h43q22 -34 44 -42.5t73 -8.5h839q40 0 61 10.5t48 40.5h43q0 -129 20 -375l-61 -6q-31 139 -70 190q-28 37 -71 50.5t-158 13.5h-145v-1020q0 -66 5.5 -98.5t30 -56t63.5 -31t118 -13.5v-59h-611v59q51 4 81 8t55.5 13.5t37.5 21t20.5 35.5 t10.5 50t2 71v1020h-127q-126 0 -174.5 -14t-73.5 -50q-26 -37 -67 -190h-64z" />
<glyph unicode="U" horiz-adv-x="1554" d="M68 1292v62h553v-62q-46 -3 -71 -6t-48.5 -12t-33 -20.5t-17.5 -37.5t-9.5 -55.5t-1.5 -81.5v-465q0 -254 101.5 -390t294.5 -136q397 0 397 590v160q0 237 -16 338q-7 60 -50.5 84t-154.5 32v62h504v-62q-95 -6 -136 -32.5t-47 -90.5q-12 -114 -12 -333v-168 q0 -193 -36.5 -326.5t-125.5 -224.5q-69 -74 -168.5 -110t-210.5 -36q-211 0 -342 103q-96 71 -141 191.5t-45 305.5v508q0 51 -1.5 81t-10 55.5t-17.5 36.5t-34 20.5t-49 12.5t-72 7z" />
<glyph unicode="V" horiz-adv-x="1488" d="M37 1292v62h526v-62q-110 -12 -130 -34q-9 -9 -9 -27q0 -24 16 -64q157 -413 348 -897h5q87 211 183 464t144 399q19 53 19 84q0 21 -10 33q-23 26 -150 42v62h475v-62q-59 -7 -89 -15t-60 -32.5t-50.5 -63t-52.5 -112.5q-64 -149 -197.5 -479t-238.5 -613h-70 q-198 535 -436 1129q-46 114 -85.5 145.5t-137.5 40.5z" />
<glyph unicode="W" horiz-adv-x="2052" d="M33 1292v62h522v-62q-113 -12 -133 -38q-9 -11 -9 -33q0 -27 15 -72q160 -545 256 -846h4q42 133 160 487t176 545h68q161 -464 368 -1034h4q65 206 138 460.5t98 362.5q8 35 10.5 55t0 40t-11 29.5t-28 19t-47 14.5t-70.5 10v62h467v-62q-58 -7 -87.5 -15t-56 -32 t-42.5 -58.5t-41 -103.5q-118 -340 -350 -1106h-70q-281 798 -366 1029h-4q-49 -152 -165.5 -499t-174.5 -530h-72q-33 110 -344 1108q-21 66 -38 102.5t-43 59t-53.5 30.5t-80.5 15z" />
<glyph unicode="X" horiz-adv-x="1390" d="M14 0v59q91 11 147 37t101 82q137 175 346 494q-152 242 -284 444q-67 103 -113.5 133.5t-157.5 42.5v62h529v-62q-91 -11 -107.5 -29.5t12.5 -56.5q63 -110 236 -375q136 206 207 332q27 48 27 74q1 12 -5 19q-18 24 -121 36v62h488v-62q-119 -12 -172 -40.5 t-123 -118.5q-48 -60 -256 -367q97 -154 334 -516q72 -107 127.5 -143t165.5 -48v-59h-568v59q95 12 115 33q8 8 9 21q0 20 -19 51q-2 3 -99 158t-178 280q-177 -271 -254 -416q-27 -45 -27 -71q0 -12 6 -19q18 -24 122 -37v-59h-488z" />
<glyph unicode="Y" horiz-adv-x="1343" d="M33 1292v62h514v-62q-46 -5 -73 -12t-41.5 -15t-15.5 -22t4.5 -26.5t18.5 -36.5q39 -73 87 -157t105.5 -182.5t88.5 -152.5q196 354 248 469q23 48 23 75q0 15 -7 24q-20 24 -139 36v62h469v-62q-75 -8 -114 -23.5t-67 -45t-71 -97.5q-139 -217 -264 -450 q-22 -41 -28.5 -66.5t-6.5 -66.5v-279q0 -48 1.5 -75.5t10 -52.5t20 -36.5t38 -21.5t56.5 -13.5t83 -7.5v-57h-602v57q51 4 80 7.5t54.5 13t36.5 21t19.5 36.5t10 52.5t1.5 76.5v271q0 31 -7.5 52.5t-33.5 71.5q-30 51 -114.5 199.5t-149.5 257.5q-66 109 -105 139t-130 37z " />
<glyph unicode="Z" horiz-adv-x="1280" d="M59 31q617 855 887 1245h-362q-112 0 -171.5 -8.5t-83 -22.5t-44.5 -45q-38 -60 -72 -184l-63 2q18 239 24 387h51q19 -34 40 -42.5t71 -8.5h854l14 -29q-59 -83 -211 -296.5t-232 -326.5t-202.5 -288.5t-224.5 -323.5q105 -12 340 -12q195 0 276 15t125 61 q57 60 117 219l63 -13q-64 -319 -75 -360h-1100z" />
<glyph unicode="[" horiz-adv-x="724" d="M252 -336v1800h358v-61q-46 -4 -73.5 -6.5t-55 -8.5t-41 -10.5t-26.5 -16.5t-17.5 -21.5t-8.5 -32t-4.5 -41t-0.5 -54.5v-1300q0 -36 0.5 -54t4 -41t8 -32t17.5 -22t26.5 -17t41 -10t55.5 -8.5t74 -6.5v-57h-358z" />
<glyph unicode="\" horiz-adv-x="702" d="M76 1384h119l438 -1476h-121z" />
<glyph unicode="]" horiz-adv-x="724" d="M117 -279q46 4 73.5 7t55 9t41 10.5t26.5 17t17.5 22t8.5 32t4.5 41t0.5 54.5v1298q0 36 -0.5 54.5t-4.5 41t-8.5 32t-17.5 21.5t-26.5 16.5t-41 10.5t-55 8.5t-73.5 6.5v61h358v-1800h-358v57z" />
<glyph unicode="^" horiz-adv-x="1173" d="M141 438l400 856h94l399 -856h-127l-323 717l-324 -717h-119z" />
<glyph unicode="_" horiz-adv-x="1038" d="M0 -156h1038v-104h-1038v104z" />
<glyph unicode="`" horiz-adv-x="831" d="M207 1354l10 18q15 8 79 19.5t87 7.5q16 -40 62 -166t69 -184l-59 -29q-81 113 -248 334z" />
<glyph unicode="a" horiz-adv-x="927" d="M80 231q0 75 41.5 125.5t128.5 79.5q257 82 325 135v37q0 110 -47 171t-127 61q-55 0 -92 -37q-32 -37 -61 -139q-15 -52 -66 -52q-31 0 -61.5 29t-30.5 64q0 20 16 38.5t50 44.5q59 41 148.5 86t168.5 62q104 0 176 -57q53 -43 73.5 -105.5t20.5 -152.5v-379 q0 -66 22 -95.5t54 -29.5q34 0 74 20l22 -53l-184 -109q-25 0 -54 12t-46 29q-38 35 -51 90q-10 -7 -41.5 -28t-46 -31t-41.5 -26.5t-44 -24.5t-37.5 -14.5t-35.5 -6.5q-110 0 -182 77t-72 179zM268 262q0 -75 46.5 -116.5t99.5 -41.5q37 0 84 21t77 49v326q-3 -2 -180 -84 q-65 -29 -96 -64.5t-31 -89.5z" />
<glyph unicode="b" horiz-adv-x="1073" d="M14 1360v49q163 17 312 72v-639l163 71q61 23 91 23q172 0 294.5 -128t122.5 -310q0 -149 -73.5 -270t-195 -187t-263.5 -66q-147 0 -313 74v1155q0 45 -2 65.5t-8 40.5t-22.5 27.5t-39.5 13t-66 9.5zM326 244q0 -47 12 -74q16 -40 64.5 -77.5t119.5 -37.5 q129 0 204 102.5t75 284.5q0 174 -91.5 274.5t-226.5 100.5q-81 0 -157 -37v-536z" />
<glyph unicode="c" horiz-adv-x="888" d="M78 410q0 244 211 407q80 58 166.5 88.5t150.5 30.5h2q61 0 112.5 -17t76.5 -40q34 -27 34 -64q0 -32 -25.5 -62t-45.5 -30q-16 0 -41 22q-92 89 -211 89q-106 0 -179 -86.5t-73 -243.5q0 -82 22 -149.5t55.5 -109t77 -70.5t83.5 -40.5t77 -11.5q71 0 128 24t126 89 l35 -46q-70 -95 -167.5 -155t-188.5 -60q-129 0 -228 63t-148.5 160.5t-49.5 211.5z" />
<glyph unicode="d" horiz-adv-x="1114" d="M80 420q0 141 75 260.5t199.5 187.5t266.5 68q67 0 137 -23v291q0 37 -1 58t-8 39t-15 26t-29.5 15.5t-43 10t-63.5 5.5v51q194 24 336 72v-1237q0 -57 7.5 -82t25.5 -34.5t61 -12.5l66 -6v-56q-222 -40 -336 -78v136l-125 -76q-105 -60 -162 -60q-66 0 -133.5 29 t-125.5 82.5t-95 141t-37 192.5zM279 475q0 -89 25.5 -161t67.5 -115.5t92 -66.5t101 -23q99 0 193 67v572q-35 53 -92.5 79.5t-118.5 26.5q-31 0 -64 -10t-70.5 -36.5t-66.5 -67.5t-48 -109.5t-19 -155.5z" />
<glyph unicode="e" horiz-adv-x="894" d="M78 418q0 212 137 362q65 73 146.5 114.5t162.5 41.5h2q130 0 224 -97.5t94 -224.5q-2 -32 -11.5 -45.5t-37.5 -19.5q-36 -6 -207.5 -18t-337.5 -17q1 -99 29 -176.5t73 -123t98.5 -68.5t110.5 -23q129 0 240 102l33 -45q-61 -77 -134.5 -126.5t-123 -64t-89.5 -14.5 q-125 0 -219.5 62t-142 161.5t-47.5 219.5zM262 600q168 0 344 6q28 0 38.5 9t12.5 32q0 86 -50 147.5t-132 61.5h-2q-72 0 -131 -66.5t-80 -189.5z" />
<glyph unicode="f" horiz-adv-x="630" d="M53 848l60 63h98v45q0 97 22 168q45 145 164 246q114 97 234 111q109 -3 166 -70q18 -22 18 -47q0 -14 -6 -29q-11 -29 -41 -53q-15 -9 -29 -9q-17 0 -30 15q-80 80 -170 80q-73 0 -111 -61q-43 -67 -43 -285v-29v-82h250q9 -14 1.5 -45t-26.5 -41h-225v-594 q0 -42 1.5 -66t9.5 -45t17 -30.5t33 -18t48.5 -11.5t70.5 -7v-53h-504v55q101 9 125.5 34.5t24.5 127.5v608h-148z" />
<glyph unicode="g" horiz-adv-x="987" d="M61 -281v7q0 62 54 112q42 41 170 142q-106 33 -156 114q-24 38 -24 77q0 5 1 11q60 23 110 58.5t77 68.5q-79 33 -131.5 106t-52.5 173q0 69 23.5 127.5t61.5 98t87.5 68t100.5 41.5t101 13h4q109 0 203 -55q131 5 289 30l10 -18q-13 -28 -41.5 -61t-52.5 -46l-117 9 q60 -76 60 -187q0 -80 -32 -144.5t-85.5 -104.5t-118.5 -61.5t-135 -21.5q-35 0 -107 13q-23 -14 -41 -39t-18 -47q0 -33 32.5 -55.5t98.5 -22.5q39 0 111.5 1t107.5 1q44 0 82.5 -5.5t80.5 -22t71.5 -43t49 -72t19.5 -105.5q0 -78 -43.5 -154.5t-114.5 -133.5t-168.5 -92.5 t-199.5 -35.5q-167 0 -266 79t-101 177zM233 -229q0 -84 79.5 -141.5t197.5 -57.5q141 0 219 64t78 165q0 106 -98 146q-58 26 -199 26h-2q-73 0 -114 -10t-70 -35q-91 -80 -91 -157zM295 621q0 -121 54 -199t140 -78q72 3 121 67t49 181q0 122 -53 200t-141 78h-2 q-68 0 -118 -66.5t-50 -182.5z" />
<glyph unicode="h" horiz-adv-x="1126" d="M37 0v55q51 4 76 10t42 24t21 46t4 82v991q0 37 -0.5 56t-6.5 38.5t-12.5 26.5t-25 15t-38.5 10.5t-58 5.5v49q158 22 317 72v-697q64 64 142.5 108t156.5 44q134 0 212.5 -89t78.5 -272v-358q0 -55 3.5 -82t19.5 -46t40 -24.5t74 -9.5v-55h-448v55q48 4 72 10t40.5 24.5 t20.5 46t4 81.5v342q0 254 -205 254q-57 0 -113 -27t-98 -77v-492q0 -101 21 -128t112 -34v-55h-452z" />
<glyph unicode="i" horiz-adv-x="567" d="M66 0v55q54 5 79 10.5t43 24.5t21.5 47.5t3.5 85.5v426q0 97 -19.5 121t-109.5 37v51q159 24 303 82v-717q0 -38 1.5 -61t8 -42.5t15 -29t27 -17.5t40 -11.5t58.5 -6.5v-55h-471zM176 1223q0 46 34 79t79 33q46 0 77 -32.5t31 -79.5q0 -45 -32 -78t-78 -33 q-43 0 -77 33.5t-34 77.5z" />
<glyph unicode="j" horiz-adv-x="544" d="M-51 -440q0 40 43 49q116 23 153 76q37 49 50 151q18 135 18 406v399q0 38 -1 60.5t-7.5 41.5t-14 28t-26 17.5t-37.5 12t-55 8.5v49q157 20 315 82v-704q0 -111 -10 -185t-39 -153q-49 -137 -127.5 -250.5t-130.5 -159.5q-36 -25 -57 -25q-23 0 -48.5 30t-25.5 67z M176 1223q0 47 33 79.5t78 32.5q46 0 77 -32.5t31 -79.5q0 -46 -31.5 -78.5t-78.5 -32.5q-43 0 -76 33t-33 78z" />
<glyph unicode="k" horiz-adv-x="1046" d="M29 0v55q56 5 83 11t44 25.5t20.5 46t3.5 81.5v981q0 102 -21 126.5t-116 33.5v49q133 13 311 72v-979q76 15 129 71q45 43 148 183q23 34 23 54q0 7 -3 12q-12 19 -84 26v57l434 19v-56q-108 -17 -160 -40t-112 -80q-58 -56 -178 -195q28 -44 147 -182.5t179 -202.5 q57 -58 103 -84t103 -29v-55l-295 -4q-43 47 -99.5 116t-128.5 159t-111 137q-35 43 -62 43q-18 0 -33 -5v-227q0 -103 25 -129t127 -35v-55h-477z" />
<glyph unicode="l" horiz-adv-x="536" d="M31 0v55q70 6 98.5 18.5t39.5 43.5t11 104v979q0 29 -0.5 47t-4 35.5t-6 26.5t-12 18t-17.5 13t-26 8t-33 5.5t-44 4.5v51q167 18 319 72v-1260q0 -56 4 -84.5t22 -47.5t44.5 -24.5t81.5 -9.5v-55h-477z" />
<glyph unicode="m" horiz-adv-x="1724" d="M57 0v53q55 5 82 11t46 24.5t23.5 46.5t4.5 82v428q0 100 -19 124.5t-108 37.5v49q174 30 301 86v-170q107 77 152 105q93 59 170 59t140.5 -46.5t94.5 -125.5q80 59 172 115q83 57 160 57q123 0 195.5 -85.5t72.5 -238.5v-397q0 -56 3 -82.5t20 -45t39 -23.5t73 -11v-53 h-452v53q50 5 73.5 11t41.5 24.5t23 49t5 87.5v342q0 240 -182 240q-103 0 -227 -105q6 -38 6 -90v-399q0 -98 22.5 -124.5t110.5 -35.5v-53h-455v53q97 9 122.5 35.5t25.5 126.5v354q0 240 -183 240q-95 0 -223 -107v-487q0 -99 21 -126t98 -36v-53h-449z" />
<glyph unicode="n" horiz-adv-x="1153" d="M59 0v55q58 7 84.5 12.5t44.5 24.5t21.5 45t3.5 82v426q0 54 -3 80t-19 44t-35.5 23.5t-67.5 14.5v49q183 33 299 86v-168q84 60 141 96q95 66 172 66q127 0 200 -85.5t73 -236.5v-395q0 -57 3 -84t19 -46t38.5 -24t72.5 -10v-55h-442v55q91 9 113 37t22 137v344 q0 234 -189 234q-97 0 -223 -102v-486q0 -57 3 -84t19 -46t39 -24t74 -10v-55h-463z" />
<glyph unicode="o" horiz-adv-x="1079" d="M78 434q0 99 29.5 183.5t78 142t110 98.5t124.5 59.5t123 18.5h2q194 0 325 -136.5t131 -330.5q0 -97 -27.5 -179.5t-73.5 -139t-105.5 -97t-123.5 -59.5t-128 -19q-107 0 -196.5 39t-147 104t-89.5 147t-32 169zM283 504q0 -199 78 -329t204 -130q49 0 89 19t73 61.5 t51.5 118t18.5 180.5q0 192 -73.5 316t-203.5 124h-2q-98 0 -166.5 -96.5t-68.5 -263.5z" />
<glyph unicode="p" horiz-adv-x="1107" d="M37 -442q37 3 58 6t40.5 10.5t28 16.5t15 28t8 41t1.5 59v940q0 37 -1 57t-7 38.5t-12.5 26.5t-25 15.5t-37 10t-54.5 6.5v51q124 19 314 92v-165l188 108q58 37 106 37q111 0 197.5 -56.5t130 -145.5t43.5 -193q0 -91 -28 -173t-77 -146t-114.5 -115t-142 -84 t-158.5 -48q-83 3 -145 37v-274q0 -42 1.5 -66t9 -45.5t17 -31.5t32.5 -18.5t48 -11.5t70 -7v-58h-506v58zM365 158q34 -34 88.5 -56t105.5 -22q130 0 208.5 104t78.5 273q0 163 -81 256.5t-198 93.5q-81 0 -202 -86v-563z" />
<glyph unicode="q" horiz-adv-x="1079" d="M80 412q0 144 80 266.5t210 190.5q128 67 271 67h4q103 -11 148 -29q35 -12 57 -12q27 4 76 27l8 -9q-6 -135 -6 -221v-966q0 -39 1 -61.5t8.5 -42.5t15 -28.5t29 -16.5t42.5 -11t63 -8v-58h-514v58q46 4 71 7t48 11t32.5 17.5t17 29.5t9 42.5t1.5 62.5v331l-217 -84 q-111 0 -200.5 39.5t-143.5 104t-82.5 140t-28.5 153.5zM279 479q0 -90 29 -165t76 -122t103.5 -72.5t114.5 -25.5q78 0 150 33v633q-34 41 -91.5 65.5t-107.5 24.5q-113 0 -193.5 -97.5t-80.5 -273.5z" />
<glyph unicode="r" horiz-adv-x="786" d="M66 0v55q53 4 79 9.5t43 24t21 46t4 82.5v432q0 37 -1 58t-7 39.5t-12.5 27t-23.5 16.5t-34.5 11t-50.5 8v47q165 26 303 84v-229h6q128 225 252 225q53 0 89 -34t36 -73q0 -33 -20.5 -63.5t-51.5 -44.5q-36 -15 -55 4q-28 25 -47.5 35t-44.5 10q-40 0 -86 -46.5 t-78 -129.5v-375q0 -39 1 -60t8 -41.5t16.5 -29t31 -17t47.5 -11t70 -5.5v-55h-495z" />
<glyph unicode="s" horiz-adv-x="772" d="M86 297l57 8q30 -111 98.5 -185.5t159.5 -74.5q58 0 102 40t44 101q0 64 -39.5 106t-124.5 83q-58 25 -96 46.5t-81 56.5t-65 81.5t-22 104.5q0 114 88.5 193t230.5 79q103 0 191 -39q13 -32 27.5 -106t17.5 -115l-56 -14q-32 96 -86.5 150t-128.5 54q-60 0 -96.5 -38.5 t-36.5 -100.5q0 -61 47 -102.5t127 -73.5q132 -52 199.5 -118t67.5 -169q0 -91 -52.5 -158.5t-129.5 -99t-164 -31.5q-75 0 -143.5 21.5t-100.5 46.5q-10 23 -21.5 108.5t-13.5 145.5z" />
<glyph unicode="t" horiz-adv-x="647" d="M35 848l59 63h92v150l146 143l30 -6v-287h234q15 -19 11.5 -46.5t-23.5 -39.5h-222v-530q0 -197 125 -197q57 0 125 33l21 -53l-146 -76q-55 -27 -88 -27q-103 0 -158 62.5t-55 187.5v600h-143z" />
<glyph unicode="u" horiz-adv-x="1122" d="M59 838v49q86 4 158 16q86 9 154 23q-6 -68 -6 -305v-281q0 -125 50 -178t130 -53q119 0 221 96v485q0 56 -9 83t-25 36t-54 16l-74 13v49q96 3 193 16q89 9 143 23v-693q0 -78 18 -99.5t78 -24.5l58 -5v-55q-60 -8 -162 -33q-30 -7 -81.5 -21.5t-70.5 -19.5l-14 13v147 q-12 -9 -44.5 -33t-57.5 -41t-52 -32q-91 -54 -161 -54q-116 0 -189.5 76.5t-73.5 235.5v403q0 79 -14 102t-55 31z" />
<glyph unicode="v" horiz-adv-x="972" d="M-6 856v55h440v-55q-84 -12 -98 -33q-4 -7 -4 -19q0 -24 18 -69q74 -201 197 -504q101 244 182 490q16 43 16 70q0 19 -7 29q-18 26 -105 36v55h373v-55q-58 -8 -87 -22t-49 -42t-49 -94q-121 -259 -299 -721h-59q-107 286 -293 728q-35 89 -63 113.5t-113 37.5z" />
<glyph unicode="w" horiz-adv-x="1437" d="M18 856v55h441v-55q-93 -14 -111 -36q-8 -9 -8 -28q0 -24 14 -63q57 -193 152 -475h4q113 289 240 645h59q99 -269 252 -651h4q110 352 141 471q10 38 10 63q0 24 -10 36q-20 22 -123 38v55h383v-55q-77 -12 -106 -39t-64 -115q-116 -317 -252 -725h-63q-78 203 -256 639 q-36 -96 -120 -308t-128 -331h-61q-120 381 -244 742q-27 81 -53.5 103.5t-100.5 33.5z" />
<glyph unicode="x" horiz-adv-x="993" d="M8 0v55q95 13 134.5 36t101.5 99q66 83 178 248l-182 285q-50 76 -85 98.5t-122 34.5v55h426v-55q-64 -10 -75 -28q-3 -5 -3 -11q0 -18 22 -49l123 -190q75 115 119 192q18 32 18 49q-1 8 -5 13q-12 15 -83 24v55h386v-55q-97 -11 -135.5 -29.5t-94.5 -83.5 q-17 -20 -166 -223l209 -313q58 -86 96.5 -112.5t130.5 -39.5v-55h-456v55q67 8 81.5 25.5t-12.5 58.5l-153 238q-76 -114 -133 -215q-22 -37 -22 -58q0 -9 4 -15q13 -21 91 -34v-55h-393z" />
<glyph unicode="y" horiz-adv-x="966" d="M0 856v55h436v-55q-73 -12 -88 -34q-6 -9 -6 -24q0 -22 14 -57l189 -514q110 264 188 510q11 29 11 50q0 20 -10 33q-21 24 -107 36v55h379v-55q-83 -13 -113.5 -38.5t-71.5 -115.5q-23 -48 -55 -122.5t-93 -221t-116 -276.5q-175 -415 -219 -565q-13 -54 -66 -54 q-43 0 -82.5 34t-39.5 73t53 74q52 32 87.5 73t74.5 111q45 85 61 139q6 18 6 37q0 26 -10 55q-140 397 -242 641q-35 87 -66 115.5t-114 40.5z" />
<glyph unicode="z" horiz-adv-x="886" d="M61 33q253 367 523 805h-181q-76 0 -118 -14t-65.5 -42t-57.5 -94l-29 -57l-53 20q50 177 72 303h43q9 -24 34.5 -33.5t83.5 -9.5h488l14 -32q-391 -612 -510 -805h203q80 0 128.5 17t80 49t76.5 102l28 51l51 -27q-11 -31 -43.5 -125.5t-50.5 -140.5h-698z" />
<glyph unicode="{" horiz-adv-x="729" d="M133 532v60q53 4 90.5 18t56.5 30.5t29.5 42.5t12.5 44.5t2 46.5q0 70 -7.5 215t-7.5 209q0 279 307 279v-64q-56 -6 -93 -24t-54 -46.5t-23 -56t-6 -65.5q0 -66 13.5 -206t13.5 -208q0 -92 -42 -156.5t-132 -83.5v-8q89 -21 131.5 -86.5t42.5 -157.5q0 -70 -13.5 -205.5 t-13.5 -197.5q0 -41 5.5 -70t22.5 -58t54 -47.5t94 -25.5v-61q-36 0 -66.5 3.5t-68 12t-66.5 28t-54 47.5t-38.5 73.5t-13.5 103.5q0 75 7.5 222t7.5 212q0 27 -2 45t-12.5 44.5t-29.5 43t-56.5 30.5t-90.5 17z" />
<glyph unicode="|" horiz-adv-x="555" d="M207 -520v2079h141v-2079h-141z" />
<glyph unicode="}" horiz-adv-x="729" d="M113 -289q104 14 141 64t37 131q0 64 -13.5 202t-13.5 205q0 93 42 158.5t134 87.5v8q-90 21 -133 85t-43 155q0 68 13.5 209t13.5 207q0 80 -36.5 129t-141.5 63v62q32 0 59 -2.5t60 -10t58.5 -19t51 -32t42.5 -48t27.5 -68.5t10.5 -91q0 -78 -7 -221.5t-7 -202.5 q0 -31 1.5 -49.5t12 -46.5t29 -45t56.5 -31.5t91 -17.5v-62q-44 -3 -77.5 -12t-53.5 -25t-32.5 -31.5t-18 -39t-7 -39.5t-1.5 -41q0 -58 7 -202t7 -224q0 -266 -309 -266v61z" />
<glyph unicode="~" horiz-adv-x="1206" d="M113 410q92 227 274 227q57 0 111 -19t131 -61q136 -82 211 -82q62 0 102 41t72 129l80 -47q-34 -110 -102 -168.5t-165 -58.5q-67 0 -128 24t-136 66q-107 69 -184 69q-65 0 -110 -42.5t-81 -133.5z" />
<glyph unicode="&#xa1;" horiz-adv-x="581" d="M168 807q0 57 34.5 92t88.5 35h2q52 0 85.5 -35.5t33.5 -91.5q0 -54 -34.5 -89.5t-86.5 -35.5q-54 0 -88.5 35.5t-34.5 89.5zM174 -410q0 50 14 162q32 246 66 744q9 12 39.5 12t36.5 -12q5 -56 25.5 -329.5t37.5 -414.5q17 -136 17 -162q0 -33 -28 -48t-89 -15h-2 q-61 0 -89 15t-28 48z" />
<glyph unicode="&#xa2;" d="M135 446q0 114 53.5 212.5t145.5 164.5q113 76 221 95v165h72v-157q10 2 26 2q131 -3 205 -54q29 -20 29 -55q0 -30 -22 -56t-46 -26q-17 0 -31 17q-77 83 -161 92v-674q144 0 256 115l41 -43q-56 -77 -137 -130t-160 -67v-192h-72v188q-192 9 -306 127t-114 276z M307 530q0 -79 22 -143.5t58.5 -106t79 -66.5t88.5 -34v666q-29 -1 -61 -12t-66 -35.5t-60.5 -59t-43.5 -89t-17 -120.5z" />
<glyph unicode="&#xa3;" d="M68.5 12.5q-12.5 24.5 9.5 65.5q18 38 82 110q82 89 82 236q0 30 -6 90h-162v78h153q-8 70 -8 121q0 87 44.5 173t131.5 148q48 40 107.5 63t105.5 23q61 0 115 -22.5t76 -50.5q20 -34 8 -70q-15 -26 -39 -47q-31 -19 -57 4q-93 86 -185 86q-51 0 -83.5 -27t-43 -63.5 t-10.5 -83.5q0 -31 6 -72.5t15.5 -95.5t13.5 -86h321v-78h-315v-22q-3 -165 -166 -304q134 10 258 -47q130 -65 205 -65q42 0 67 24t25 58q0 30 -10 57q-10 23 4 43q17 24 39.5 38.5t40.5 14.5q21 0 34 -22.5t13 -50.5q0 -56 -45 -123t-109 -109q-94 -59 -188 -59 q-36 0 -83 16t-83 34t-94 50q-35 19 -48.5 26t-34.5 14t-40 7q-47 0 -78 -82q-11 -24 -31 -24q-25 0 -37.5 24.5z" />
<glyph unicode="&#xa4;" horiz-adv-x="1011" d="M57 281l144 137q-88 114 -88 258q0 147 90 254l-146 141l86 84l136 -156q96 80 223 80h2q54 0 113 -20.5t106 -59.5l133 156l90 -84l-143 -141q88 -106 88 -254q0 -145 -90 -256l145 -139l-90 -88l-133 159q-48 -40 -107 -61t-114 -21q-57 0 -117.5 20.5t-105.5 59.5 l-136 -157zM246 676q0 -133 73.5 -216t184.5 -83q110 0 183 83.5t73 215.5q0 131 -73 214t-183 83h-2q-109 0 -182.5 -83.5t-73.5 -213.5z" />
<glyph unicode="&#xa5;" d="M33 1053v53h422v-55l-54 -9q-36 -8 -44.5 -20t5.5 -37q87 -173 185 -350q130 244 164 323q17 36 8 54.5t-53 25.5l-56 13v55h363v-55q-72 -9 -104 -32.5t-74 -90.5q-100 -158 -193 -330h262v-74h-278v-51v-96h280v-76h-280v-100q0 -45 4.5 -68t23.5 -41.5t52 -25.5 t94 -11v-55h-518v55q62 4 95 11t50.5 27t21 42t3.5 70v96h-283v76h283v82v65h-283v74h258q-115 221 -182 334q-39 66 -71.5 88t-100.5 33z" />
<glyph unicode="&#xa6;" horiz-adv-x="555" d="M207 -365v730h141v-730h-141zM207 676v727h141v-727h-141z" />
<glyph unicode="&#xa7;" horiz-adv-x="999" d="M113 770q3 182 166 360q82 89 151.5 136t163.5 71q38 0 77.5 -15t63.5 -34q25 -25 25 -49q-2 -35 -39 -72q-26 -13 -41 0q-21 19 -66 38.5t-94 19.5q-63 0 -97 -35t-34 -74q0 -73 76 -141q41 -34 126.5 -107.5t104.5 -89.5q199 -164 199 -354v-2q-3 -220 -207 -442 q-73 -79 -141 -125t-150 -70q-29 0 -73 13t-72 34q-39 29 -39 62q0 17 14 37.5t29 31.5q24 17 45 8q81 -61 164 -61q58 0 100 31.5t43 91.5q2 45 -28.5 92t-110.5 121q-59 57 -207 205q-149 142 -149 319zM219 858q0 -84 42 -160.5t140 -169.5q209 -190 261 -266 q19 -30 31 -77t9 -87l3 -2q81 116 81 234q0 160 -170 309q-151 131 -231 211q-41 39 -65.5 95t-20.5 114h-6q-74 -100 -74 -197v-4z" />
<glyph unicode="&#xa8;" horiz-adv-x="831" d="M133 1221q0 44 31 76t74 32q42 0 71 -31.5t29 -76.5q0 -43 -29 -74t-73 -31q-41 0 -72 31t-31 74zM494 1221q0 44 30.5 76t71.5 32q44 0 73 -31.5t29 -76.5q0 -44 -29.5 -74.5t-74.5 -30.5q-40 0 -70 31t-30 74z" />
<glyph unicode="&#xa9;" horiz-adv-x="1464" d="M104 670q0 173 81.5 318t225.5 230t320 85h2q176 0 320 -84.5t225.5 -229.5t81.5 -319q0 -172 -81.5 -316.5t-226.5 -229.5t-321 -85t-320.5 85t-225.5 229.5t-81 316.5zM203 672q0 -156 68.5 -284t190 -201.5t271.5 -73.5t271.5 73.5t189.5 201.5t68 284 q0 117 -40 220.5t-109.5 178t-168.5 117.5t-211 43h-2q-150 0 -271 -73.5t-189 -201t-68 -284.5zM381 666q0 112 57 196.5t148 127t200 42.5q132 0 218 -37q3 -24 22 -186l-45 -8q-53 174 -207 174q-111 0 -174 -82.5t-63 -212.5q0 -135 69.5 -222t171.5 -87q81 0 134 45 t89 131l50 -10q-5 -17 -18 -62.5t-23 -76.5t-17 -48q-100 -41 -217 -41q-97 0 -174.5 31t-124.5 82.5t-71.5 114t-24.5 129.5z" />
<glyph unicode="&#xaa;" horiz-adv-x="643" d="M66 719q0 89 104 127q13 5 53.5 19.5t64 23.5t53.5 22.5t46 24.5v20q0 51 -27 82t-75 31q-33 0 -59 -29.5t-40 -78.5q-11 -33 -43 -33q-24 0 -45.5 17.5t-21.5 41.5q0 31 43 60q33 24 92 51.5t113 36.5q90 0 139 -47t49 -138v-225q0 -68 45 -68q20 0 49 13l15 -41 l-134 -70q-74 5 -96 82q-122 -82 -160 -82q-69 0 -117 49.5t-48 110.5zM203 741q0 -40 27.5 -65t62.5 -25q53 0 94 41v187q-13 -8 -123 -54q-33 -19 -47 -36.5t-14 -47.5z" />
<glyph unicode="&#xab;" horiz-adv-x="931" d="M104 459q155 163 332 385l47 -31l-192 -354l192 -348l-47 -33q-219 274 -332 381zM453 459q161 170 333 385l48 -31l-193 -354l193 -348l-48 -33q-230 283 -333 381z" />
<glyph unicode="&#xac;" horiz-adv-x="1206" d="M109 662v106h993v-565h-125v459h-868z" />
<glyph unicode="&#xad;" horiz-adv-x="747" d="M117 410l30 118h486l-31 -118h-485z" />
<glyph unicode="&#xae;" horiz-adv-x="667" d="M66 1102q0 110 77.5 190t190.5 80h2q115 0 191.5 -79.5t76.5 -190.5q0 -109 -77 -188.5t-193 -79.5q-115 0 -191.5 77t-76.5 191zM125 1102q0 -94 60.5 -157.5t148.5 -63.5q91 0 152 63.5t61 157.5t-61 157.5t-152 63.5h-2q-89 0 -148 -63.5t-59 -157.5zM203 963v30 q30 2 36.5 7t6.5 32v144q0 27 -6.5 33t-34.5 8v30h145q41 0 70 -17.5t29 -58.5q0 -45 -56 -69q33 -57 68 -96q18 -18 28 -23l-8 -22q-70 0 -100 40q-8 13 -21 37t-18 31q-9 14 -29 14h-8v-51q0 -27 6 -32t33 -7v-30h-141zM305 1114h19q18 0 38 8q21 15 21 43 q0 29 -15.5 40.5t-35.5 11.5q-27 0 -27 -25v-78z" />
<glyph unicode="&#xaf;" horiz-adv-x="831" d="M184 1139v118h465v-118h-465z" />
<glyph unicode="&#xb0;" horiz-adv-x="714" d="M66 1098q0 126 85.5 205t206.5 79h2q118 0 204.5 -79.5t86.5 -204.5q0 -129 -86 -207t-207 -78q-122 0 -207 78t-85 207zM193 1098q0 -86 46.5 -139.5t120.5 -53.5t120 53t46 138q0 88 -46 141t-120 53h-2q-73 0 -119 -52.5t-46 -139.5z" />
<glyph unicode="&#xb1;" horiz-adv-x="1206" d="M109 0v106h993v-106h-993zM109 645v105h434v395h125v-395h434v-105h-434v-420h-125v420h-434z" />
<glyph unicode="&#xb2;" horiz-adv-x="718" d="M84 838v47q43 33 59 46t63 52t70.5 62.5t60 64t55.5 71.5t33.5 69.5t14.5 72.5q0 73 -38.5 112.5t-98.5 39.5q-92 0 -178 -115l-37 37l68 92q35 44 89.5 69t114.5 25q95 0 163.5 -60.5t68.5 -162.5q0 -71 -49 -139t-172 -174l-107 -93v-6h189q63 0 89.5 15.5t55.5 74.5 l49 -14q-42 -142 -51 -186h-512z" />
<glyph unicode="&#xb3;" horiz-adv-x="718" d="M98 928q8 27 37 49q21 15 43 -2q95 -72 160 -72q58 0 94.5 38t36.5 116q0 68 -46 103.5t-112 35.5q-42 0 -86 -14l-12 53q203 62 203 160q0 40 -28.5 67t-80.5 27q-43 0 -84.5 -31.5t-70.5 -71.5l-33 33l59 88q30 30 80.5 52t103.5 22h3q90 0 144 -46t54 -114 q0 -54 -39 -82q-34 -30 -92 -63v-2q87 -15 135.5 -60.5t48.5 -113.5q0 -54 -28 -101.5t-70 -79t-91.5 -54.5t-91.5 -33.5t-71 -10.5q-44 0 -83.5 14t-59.5 31q-33 25 -23 62z" />
<glyph unicode="&#xb4;" horiz-adv-x="831" d="M348 1055q37 84 135 329q15 8 86.5 15.5t89.5 3.5l9 -19l-267 -360z" />
<glyph unicode="&#xb5;" horiz-adv-x="1081" d="M141 895l178 41q7 -59 7 -219v-355q0 -71 17 -123t46 -79t60.5 -39t66.5 -12q59 0 112.5 32t88.5 74v680l176 41v-696q0 -142 88 -146q32 0 74 21l20 -56q-30 -35 -80.5 -59.5t-103.5 -24.5q-66 0 -111.5 44t-56.5 118h-4q-141 -162 -277 -162q-54 0 -99 24t-71 62h-8 v-32q-1 -116 25.5 -294.5t50.5 -244.5l-27 -27q-35 4 -85.5 31t-75.5 53q-4 16 -4.5 95t1 226.5t1.5 217.5v610q0 128 -9 199z" />
<glyph unicode="&#xb6;" horiz-adv-x="1044" d="M102 666q0 100 39 187.5t103 147.5q65 61 151 96.5t162 35.5h416l8 -25l-61 -57l-187 -23v-985q0 -127 -34 -217.5t-109 -167.5q-41 -43 -101.5 -73.5t-80.5 -30.5q-93 0 -140 47q-32 28 -20 65q3 14 15.5 30.5t25.5 24.5q20 17 39 3q73 -48 135 -48q26 0 47.5 7.5 t43 29.5t36.5 57t24 95t9 139v305l-140 -57q-12 -6 -37 -6q-37 0 -81.5 18t-91 54.5t-84.5 85t-62.5 117.5t-24.5 145z" />
<glyph unicode="&#xb7;" horiz-adv-x="479" d="M119 483q0 54 34.5 89.5t86.5 35.5q53 0 89 -35.5t36 -89.5q0 -55 -36 -90t-89 -35h-2q-51 0 -85 35t-34 90z" />
<glyph unicode="&#xb8;" horiz-adv-x="831" d="M293 -442q127 53 127 127q2 32 -47 77q-43 38 -48.5 65.5t25.5 68.5l80 104h84l-47 -55q-20 -28 -17.5 -44.5t29.5 -41.5q84 -81 84 -146t-66 -121t-180 -90z" />
<glyph unicode="&#xb9;" horiz-adv-x="718" d="M158 1473v47q148 19 284 61v-571q0 -72 24.5 -93t111.5 -30v-49h-418v49q87 6 113 28t26 95v364q0 60 -12.5 75.5t-65.5 18.5z" />
<glyph unicode="&#xba;" horiz-adv-x="706" d="M55 840q0 70 29 128.5t74 93.5t96 54t100 19h2q126 0 209.5 -82.5t83.5 -198.5q-1 -91 -46.5 -160t-111 -102t-137.5 -33q-136 0 -218.5 85t-80.5 196zM207 870q0 -111 45.5 -181.5t112.5 -70.5q58 0 95 50.5t38 154.5q0 111 -43.5 182.5t-116.5 71.5h-2q-50 0 -88 -55 t-41 -152z" />
<glyph unicode="&#xbb;" horiz-adv-x="935" d="M104 111l193 350l-193 352l48 31q205 -253 331 -383q-133 -133 -331 -381zM451 111l194 350l-194 352l49 31q231 -286 331 -383q-110 -104 -331 -381z" />
<glyph unicode="&#xbc;" horiz-adv-x="1603" d="M164 1210v50q155 16 285 63v-575q0 -72 24 -92t111 -29v-52h-418v52q87 6 112 27t25 94v366q0 60 -11.5 74.5t-64.5 17.5zM352 -6l850 1366l70 -49l-856 -1368zM852 205v51q250 327 387 489h86v-460h121v-80h-121v-58q0 -60 21 -77t92 -23v-47h-381v47q86 6 110.5 23 t24.5 77v58h-340zM961 285h231v303h-6q-96 -115 -225 -303z" />
<glyph unicode="&#xbd;" horiz-adv-x="1605" d="M147 1210v50q151 16 285 63v-575q0 -72 24 -92t111 -29v-52h-417v52q88 6 113.5 27.5t25.5 93.5v366q0 59 -12.5 74t-65.5 18zM317 -6l850 1366l70 -49l-856 -1368zM920 0v47q148 117 213 183q141 145 141 257q0 72 -38 111t-99 39q-96 0 -179 -115l-36 39l67 90 q35 44 90 69t115 25q95 0 163 -59.5t68 -163.5q0 -72 -49.5 -140.5t-171.5 -170.5l-106 -94v-4h188q63 0 90.5 16t57.5 74l47 -17q-39 -128 -51 -186h-510z" />
<glyph unicode="&#xbe;" horiz-adv-x="1605" d="M154 666q9 28 36 49q23 17 48 -2q83 -70 157 -72q57 0 94 38.5t37 115.5q0 68 -46.5 103.5t-110.5 35.5q-34 0 -88 -12l-13 51q99 31 151 69t52 91q0 41 -27.5 67.5t-78.5 26.5q-79 0 -158 -103l-33 33l64 88q27 31 77.5 54.5t102.5 23.5h2q90 0 145.5 -48t55.5 -116 q0 -52 -41 -82q-40 -36 -91 -61v-4q86 -15 135.5 -60t49.5 -112q0 -68 -42 -124.5t-101.5 -89t-115.5 -50t-93 -17.5q-44 0 -84 14t-62 31q-32 25 -22 62zM356 -6l850 1366l70 -49l-856 -1368zM840 205v51q211 281 385 489h84v-460h125v-80h-125v-58q0 -59 22 -76.5 t94 -23.5v-47h-381v47q85 6 108.5 23t23.5 77v58h-336zM948 285h228v303h-5q-115 -142 -223 -303z" />
<glyph unicode="&#xbf;" horiz-adv-x="798" d="M96 -139q0 57 23 100.5t78 85.5q11 9 63.5 47.5t82 63.5t58.5 65t29 74q0 48 -22 83.5t-72 76.5l39 51q32 -13 70.5 -38t76.5 -60t63 -81t25 -91q0 -58 -39.5 -111.5t-138.5 -126.5q-45 -31 -69.5 -49.5t-62.5 -52t-56.5 -64.5t-18.5 -61q0 -52 31 -79.5t88 -27.5 q58 0 113 29t89.5 57.5t41.5 28.5q27 0 59.5 -29.5t32.5 -66.5q0 -39 -45 -78q-46 -37 -105.5 -58.5t-93.5 -21.5h-2q-131 0 -234.5 102.5t-103.5 231.5zM285 813q0 53 33 87t85 34h3q48 0 82 -34.5t34 -86.5q0 -53 -34.5 -88t-84.5 -35q-52 0 -85 34.5t-33 88.5z" />
<glyph unicode="&#xc0;" horiz-adv-x="1464" d="M41 0v59q57 8 84.5 16t56.5 32t49 61t50 108l436 1090l69 18q381 -1036 408 -1110q26 -71 44 -108t45.5 -61t56.5 -32t85 -14v-59h-526v59q100 13 122.5 35t0.5 82q-30 90 -111 316h-450q-43 -126 -88 -265q-36 -97 -13 -126.5t144 -41.5v-59h-463zM436 1571 q4 26 38 71.5t54 53.5q155 -99 334 -217l-26 -56l-398 131zM498 580h381l-183 524h-4q-55 -137 -194 -524z" />
<glyph unicode="&#xc1;" horiz-adv-x="1464" d="M41 0v59q57 8 84.5 16t56.5 32t49 61t50 108l436 1090l69 18q381 -1036 408 -1110q26 -71 44 -108t45.5 -61t56.5 -32t85 -14v-59h-526v59q100 13 122.5 35t0.5 82q-30 90 -111 316h-450q-43 -126 -88 -265q-36 -97 -13 -126.5t144 -41.5v-59h-463zM498 580h381l-183 524 h-4q-55 -137 -194 -524zM645 1477q36 24 155.5 102.5t176.5 114.5q20 -4 53.5 -49.5t38.5 -71.5l-4 -17l-393 -133z" />
<glyph unicode="&#xc2;" horiz-adv-x="1464" d="M41 0v59q57 8 84.5 16t56.5 32t49 61t50 108l436 1090l69 18q381 -1036 408 -1110q26 -71 44 -108t45.5 -61t56.5 -32t85 -14v-59h-526v59q100 13 122.5 35t0.5 82q-30 90 -111 316h-450q-43 -126 -88 -265q-36 -97 -13 -126.5t144 -41.5v-59h-463zM469 1477 q184 143 264 225h49q78 -82 262 -225l-32 -54q-86 38 -256 129q-209 -110 -252 -129zM498 580h381l-183 524h-4q-55 -137 -194 -524z" />
<glyph unicode="&#xc3;" horiz-adv-x="1464" d="M41 0v59q57 8 84.5 16t56.5 32t49 61t50 108l436 1090l69 18q381 -1036 408 -1110q26 -71 44 -108t45.5 -61t56.5 -32t85 -14v-59h-526v59q100 13 122.5 35t0.5 82q-30 90 -111 316h-450q-43 -126 -88 -265q-36 -97 -13 -126.5t144 -41.5v-59h-463zM475 1470 q69 172 172 172h2q49 0 127 -36q67 -37 115 -37q30 0 52 22t46 68l53 -27q-60 -182 -176 -182q-46 0 -145 47q-6 2 -22.5 10t-23.5 10.5t-20.5 5.5t-25.5 3q-56 0 -101 -94zM498 580h381l-183 524h-4q-55 -137 -194 -524z" />
<glyph unicode="&#xc4;" horiz-adv-x="1464" d="M41 0v59q57 8 84.5 16t56.5 32t49 61t50 108l436 1090l69 18q381 -1036 408 -1110q26 -71 44 -108t45.5 -61t56.5 -32t85 -14v-59h-526v59q100 13 122.5 35t0.5 82q-30 90 -111 316h-450q-43 -126 -88 -265q-36 -97 -13 -126.5t144 -41.5v-59h-463zM442 1552 q0 45 31.5 76t73.5 31h2q43 0 72.5 -30.5t29.5 -76.5q0 -42 -30 -73t-74 -31q-41 0 -73 31.5t-32 72.5zM498 580h381l-183 524h-4q-55 -137 -194 -524zM846 1552q0 47 30.5 78t73.5 31h2q43 0 73 -31t30 -78q0 -42 -30.5 -73t-74.5 -31q-42 0 -73 31t-31 73z" />
<glyph unicode="&#xc5;" horiz-adv-x="1464" d="M41 0v59q57 8 84.5 16t56.5 32t49 61t50 108l436 1090l69 18q381 -1036 408 -1110q26 -71 44 -108t45.5 -61t56.5 -32t85 -14v-59h-526v59q100 13 122.5 35t0.5 82q-30 90 -111 316h-450q-43 -126 -88 -265q-36 -97 -13 -126.5t144 -41.5v-59h-463zM498 580h381l-183 524 h-4q-55 -137 -194 -524zM565 1610q0 76 56 125t129 49h2q73 0 129.5 -49t56.5 -125q0 -80 -57 -130t-131 -50q-73 0 -129 50t-56 130zM659 1610q0 -50 26 -82.5t67 -32.5t65.5 32.5t24.5 82.5q0 46 -24.5 76t-65.5 30h-2q-40 0 -65.5 -30t-25.5 -76z" />
<glyph unicode="&#xc6;" horiz-adv-x="1832" d="M-23 0v57q103 15 147 46t103 135q78 135 158 282t201 376.5t143 270.5q35 64 24 85.5t-89 31.5l-89 10v60h1090q0 -76 21 -299l-64 -8q-28 119 -70 172q-26 33 -70.5 46t-148.5 13h-170q-47 0 -58 -10.5t-11 -55.5v-514h182q44 0 72.5 2t53 5t39 12t26 18.5t18.5 30 t12 40t12 54.5h64v-411h-64q-8 42 -13.5 65.5t-17.5 44.5t-24 30t-39.5 16t-57 8t-81.5 1h-182v-340q0 -82 11 -119.5t40 -54.5q29 -16 77 -20t136 -4q110 0 170 15t96 54q58 69 105 205l61 -16q-10 -58 -36 -174t-40 -160h-1001v59q48 4 77.5 8.5t53.5 15t35.5 23.5 t19.5 39.5t10 56.5t2 81v333h-372q-111 -212 -199 -399q-39 -81 -18 -112t139 -48v-57h-484zM578 700h333v566q-28 0 -59 -37q-178 -339 -274 -529z" />
<glyph unicode="&#xc7;" horiz-adv-x="1409" d="M96 655q0 212 102.5 378.5t287 258.5t419.5 92q63 0 130 -7.5t104 -15t89.5 -19.5t55.5 -13q27 -177 45 -328l-65 -12q-47 172 -142.5 244t-273.5 72q-158 0 -278 -79.5t-183 -216.5t-63 -309q0 -188 65 -335.5t188.5 -231.5t286.5 -84q82 0 146.5 20t117 63.5t94 101 t85.5 143.5l63 -23q-63 -220 -117 -329q-221 -50 -356 -54l-23 -24q-19 -29 -16 -46t29 -44q80 -77 80 -144q0 -63 -65 -120.5t-177 -92.5l-27 60q126 54 129 125q0 5 -1 10.5t-3 10.5t-3.5 9t-5.5 9.5t-6 8t-7.5 8.5t-6.5 7l-8 8l-6 6q-40 40 -46 67t20 65l59 77 q-146 5 -267 47t-203 109t-138.5 154.5t-82.5 181.5t-26 192z" />
<glyph unicode="&#xc8;" horiz-adv-x="1200" d="M59 0v59q53 4 83 8t56.5 14t38 21t20 35.5t10 51t1.5 73.5v823q0 51 -1.5 79.5t-9.5 53.5t-16.5 36t-32.5 20t-48 12t-70 6v62h942q1 -35 21 -303l-64 -9q-26 109 -69 179q-23 32 -73.5 44.5t-162.5 12.5h-156q-50 0 -60.5 -10t-10.5 -56v-471h194q50 0 80.5 1.5t56 8.5 t38 15.5t24 29t16.5 41.5t13 60h61v-401h-61q-7 36 -12.5 56.5t-12.5 40.5t-19 29.5t-25 18t-38 11t-50.5 4t-68.5 1.5h-196v-389q0 -75 11 -112.5t40 -55.5q28 -17 76 -21.5t139 -4.5q117 0 173 14.5t91 54.5q61 75 107 197l61 -8q-9 -54 -34 -168.5t-38 -163.5h-1024z M309 1571q6 27 39 72.5t53 52.5q215 -135 334 -217l-26 -56l-396 131z" />
<glyph unicode="&#xc9;" horiz-adv-x="1200" d="M59 0v59q53 4 83 8t56.5 14t38 21t20 35.5t10 51t1.5 73.5v823q0 51 -1.5 79.5t-9.5 53.5t-16.5 36t-32.5 20t-48 12t-70 6v62h942q1 -35 21 -303l-64 -9q-26 109 -69 179q-23 32 -73.5 44.5t-162.5 12.5h-156q-50 0 -60.5 -10t-10.5 -56v-471h194q50 0 80.5 1.5t56 8.5 t38 15.5t24 29t16.5 41.5t13 60h61v-401h-61q-7 36 -12.5 56.5t-12.5 40.5t-19 29.5t-25 18t-38 11t-50.5 4t-68.5 1.5h-196v-389q0 -75 11 -112.5t40 -55.5q28 -17 76 -21.5t139 -4.5q117 0 173 14.5t91 54.5q61 75 107 197l61 -8q-9 -54 -34 -168.5t-38 -163.5h-1024z M489 1477q36 24 155.5 102.5t176.5 114.5q18 -4 51.5 -50t38.5 -71l-4 -17l-393 -133z" />
<glyph unicode="&#xca;" horiz-adv-x="1200" d="M59 0v59q53 4 83 8t56.5 14t38 21t20 35.5t10 51t1.5 73.5v823q0 51 -1.5 79.5t-9.5 53.5t-16.5 36t-32.5 20t-48 12t-70 6v62h942q1 -35 21 -303l-64 -9q-26 109 -69 179q-23 32 -73.5 44.5t-162.5 12.5h-156q-50 0 -60.5 -10t-10.5 -56v-471h194q50 0 80.5 1.5t56 8.5 t38 15.5t24 29t16.5 41.5t13 60h61v-401h-61q-7 36 -12.5 56.5t-12.5 40.5t-19 29.5t-25 18t-38 11t-50.5 4t-68.5 1.5h-196v-389q0 -75 11 -112.5t40 -55.5q28 -17 76 -21.5t139 -4.5q117 0 173 14.5t91 54.5q61 75 107 197l61 -8q-9 -54 -34 -168.5t-38 -163.5h-1024z M319 1477q189 147 265 225h47q72 -74 262 -225l-33 -54q-84 38 -254 129q-209 -110 -252 -129z" />
<glyph unicode="&#xcb;" horiz-adv-x="1200" d="M59 0v59q53 4 83 8t56.5 14t38 21t20 35.5t10 51t1.5 73.5v823q0 51 -1.5 79.5t-9.5 53.5t-16.5 36t-32.5 20t-48 12t-70 6v62h942q1 -35 21 -303l-64 -9q-26 109 -69 179q-23 32 -73.5 44.5t-162.5 12.5h-156q-50 0 -60.5 -10t-10.5 -56v-471h194q50 0 80.5 1.5t56 8.5 t38 15.5t24 29t16.5 41.5t13 60h61v-401h-61q-7 36 -12.5 56.5t-12.5 40.5t-19 29.5t-25 18t-38 11t-50.5 4t-68.5 1.5h-196v-389q0 -75 11 -112.5t40 -55.5q28 -17 76 -21.5t139 -4.5q117 0 173 14.5t91 54.5q61 75 107 197l61 -8q-9 -54 -34 -168.5t-38 -163.5h-1024z M307 1559q0 45 31.5 75.5t73.5 30.5h2q42 0 72 -30.5t30 -75.5q0 -42 -31 -73.5t-73 -31.5q-41 0 -73 32t-32 73zM711 1559q0 47 30.5 77.5t73.5 30.5h2q42 0 72.5 -31t30.5 -77q0 -42 -31.5 -73.5t-73.5 -31.5t-73 31.5t-31 73.5z" />
<glyph unicode="&#xcc;" horiz-adv-x="724" d="M74 1571q6 27 38 72.5t52 52.5q182 -114 338 -217l-29 -56l-395 131zM80 0v59q48 4 74 7.5t50.5 12.5t34.5 20t18 35.5t9.5 52t1.5 75.5v828q0 49 -1.5 76.5t-9.5 52t-18 35t-34.5 20t-50.5 12.5t-74 6v62h565v-62q-48 -3 -74 -6t-50.5 -12.5t-34.5 -20t-18 -35t-9.5 -52 t-1.5 -76.5v-828q0 -49 1.5 -76.5t9.5 -52t18 -35t34.5 -20t50 -12.5t74.5 -7v-59h-565z" />
<glyph unicode="&#xcd;" horiz-adv-x="724" d="M80 0v59q48 4 74 7.5t50.5 12.5t34.5 20t18 35.5t9.5 52t1.5 75.5v828q0 49 -1.5 76.5t-9.5 52t-18 35t-34.5 20t-50.5 12.5t-74 6v62h565v-62q-48 -3 -74 -6t-50.5 -12.5t-34.5 -20t-18 -35t-9.5 -52t-1.5 -76.5v-828q0 -49 1.5 -76.5t9.5 -52t18 -35t34.5 -20t50 -12.5 t74.5 -7v-59h-565zM242 1477q55 35 167.5 110t163.5 107q18 -4 52 -50t39 -71l-5 -17l-393 -133z" />
<glyph unicode="&#xce;" horiz-adv-x="724" d="M76 1477q7 6 43 34t48 38l42 35t47 40t40 36.5t42 41.5h49q83 -88 264 -225l-35 -54q-107 48 -254 129q-27 -14 -80 -42t-94.5 -49.5t-78.5 -37.5zM80 0v59q48 4 74 7.5t50.5 12.5t34.5 20t18 35.5t9.5 52t1.5 75.5v828q0 49 -1.5 76.5t-9.5 52t-18 35t-34.5 20 t-50.5 12.5t-74 6v62h565v-62q-48 -3 -74 -6t-50.5 -12.5t-34.5 -20t-18 -35t-9.5 -52t-1.5 -76.5v-828q0 -49 1.5 -76.5t9.5 -52t18 -35t34.5 -20t50 -12.5t74.5 -7v-59h-565z" />
<glyph unicode="&#xcf;" horiz-adv-x="724" d="M57 1552q0 46 31 77.5t72 31.5h2q44 0 74 -31t30 -78q0 -42 -30.5 -73t-75.5 -31q-40 0 -71.5 31.5t-31.5 72.5zM80 0v59q48 4 74 7.5t50.5 12.5t34.5 20t18 35.5t9.5 52t1.5 75.5v828q0 49 -1.5 76.5t-9.5 52t-18 35t-34.5 20t-50.5 12.5t-74 6v62h565v-62 q-48 -3 -74 -6t-50.5 -12.5t-34.5 -20t-18 -35t-9.5 -52t-1.5 -76.5v-828q0 -49 1.5 -76.5t9.5 -52t18 -35t34.5 -20t50 -12.5t74.5 -7v-59h-565zM461 1554q0 45 31 76t73 31h2q42 0 72.5 -31t30.5 -76q0 -42 -31 -73t-74 -31q-41 0 -72.5 31.5t-31.5 72.5z" />
<glyph unicode="&#xd0;" horiz-adv-x="1564" d="M80 666v86h213v315q0 54 -1.5 85.5t-9.5 58.5t-17 39t-32.5 22t-48.5 13.5t-71 6.5v62h594q392 0 583 -180q83 -78 133 -192.5t50 -252.5q0 -356 -265 -557q-233 -172 -620 -172h-492v57q49 4 77.5 8t53 15t35.5 24t19.5 40.5t10 58.5t1.5 84v379h-213zM479 276 q0 -56 7.5 -90t30 -59.5t63 -36t106.5 -10.5q140 0 250 49t177.5 134.5t102.5 195t35 235.5q0 171 -60 300t-175 202q-128 86 -342 86q-133 0 -166 -22q-29 -16 -29 -93v-415h330v-86h-330v-390z" />
<glyph unicode="&#xd1;" horiz-adv-x="1572" d="M41 1292v62h319l881 -1037h6v500q0 208 -14 346q-7 69 -52 96t-157 33v62h500v-62q-91 -5 -130 -31t-46 -94q-13 -137 -13 -350v-837h-67l-906 1087h-4v-516q0 -218 13 -350q9 -78 51 -107t151 -35v-59h-499v59q92 5 133.5 34t50.5 102q12 136 12 356v453q0 112 -6.5 144 t-34.5 69q-33 38 -73 53.5t-115 21.5zM518 1470q35 92 80 132t90 40h2q44 0 127 -38q68 -35 117 -35q29 0 52 22.5t44 67.5l53 -29q-32 -97 -78.5 -138.5t-95.5 -41.5q-22 0 -48 7t-42.5 14.5t-54.5 25.5q-5 2 -19 8t-20 8l-16.5 5.5t-19.5 4.5t-19 1q-57 0 -101 -92z" />
<glyph unicode="&#xd2;" horiz-adv-x="1591" d="M92 664q0 140 50.5 270t141 230t228 160t299.5 60h2q135 0 259.5 -50t219.5 -138t152 -219t57 -283q0 -164 -57 -302t-154.5 -229.5t-227.5 -142.5t-276 -51q-192 0 -350.5 89.5t-251 249t-92.5 356.5zM315 719q0 -191 66.5 -345.5t185 -241.5t264.5 -87q89 0 168 37 t141.5 108.5t99 187t36.5 261.5q0 159 -40.5 287.5t-110 210.5t-160.5 126t-195 44h-2q-89 0 -169.5 -37.5t-144 -109t-101.5 -185.5t-38 -256zM520 1589q6 26 38.5 72t51.5 53q67 -42 186.5 -120t149.5 -97l-26 -55l-396 131z" />
<glyph unicode="&#xd3;" horiz-adv-x="1591" d="M92 664q0 140 50.5 270t141 230t228 160t299.5 60h2q135 0 259.5 -50t219.5 -138t152 -219t57 -283q0 -164 -57 -302t-154.5 -229.5t-227.5 -142.5t-276 -51q-192 0 -350.5 89.5t-251 249t-92.5 356.5zM315 719q0 -191 66.5 -345.5t185 -241.5t264.5 -87q89 0 168 37 t141.5 108.5t99 187t36.5 261.5q0 159 -40.5 287.5t-110 210.5t-160.5 126t-195 44h-2q-89 0 -169.5 -37.5t-144 -109t-101.5 -185.5t-38 -256zM649 1493q313 203 332 215q20 -3 53.5 -48t38.5 -71l-4 -18l-393 -131z" />
<glyph unicode="&#xd4;" horiz-adv-x="1591" d="M92 664q0 140 50.5 270t141 230t228 160t299.5 60h2q135 0 259.5 -50t219.5 -138t152 -219t57 -283q0 -164 -57 -302t-154.5 -229.5t-227.5 -142.5t-276 -51q-192 0 -350.5 89.5t-251 249t-92.5 356.5zM315 719q0 -191 66.5 -345.5t185 -241.5t264.5 -87q89 0 168 37 t141.5 108.5t99 187t36.5 261.5q0 159 -40.5 287.5t-110 210.5t-160.5 126t-195 44h-2q-89 0 -169.5 -37.5t-144 -109t-101.5 -185.5t-38 -256zM508 1493q188 145 264 225h47q19 -21 42.5 -43t40.5 -37t46.5 -39.5t42.5 -34.5t48 -37t44 -34l-32 -53q-134 59 -256 129 q-170 -91 -254 -129z" />
<glyph unicode="&#xd5;" horiz-adv-x="1591" d="M92 664q0 140 50.5 270t141 230t228 160t299.5 60h2q135 0 259.5 -50t219.5 -138t152 -219t57 -283q0 -164 -57 -302t-154.5 -229.5t-227.5 -142.5t-276 -51q-192 0 -350.5 89.5t-251 249t-92.5 356.5zM315 719q0 -191 66.5 -345.5t185 -241.5t264.5 -87q89 0 168 37 t141.5 108.5t99 187t36.5 261.5q0 159 -40.5 287.5t-110 210.5t-160.5 126t-195 44h-2q-89 0 -169.5 -37.5t-144 -109t-101.5 -185.5t-38 -256zM520 1489q34 91 79.5 131.5t90.5 40.5h2q42 0 127 -39q79 -35 117 -35q29 0 50.5 22t45.5 68l53 -28q-32 -97 -78 -138t-96 -41 t-145 43q-63 29 -94 29q-56 0 -103 -92z" />
<glyph unicode="&#xd6;" horiz-adv-x="1591" d="M92 664q0 140 50.5 270t141 230t228 160t299.5 60h2q135 0 259.5 -50t219.5 -138t152 -219t57 -283q0 -164 -57 -302t-154.5 -229.5t-227.5 -142.5t-276 -51q-192 0 -350.5 89.5t-251 249t-92.5 356.5zM315 719q0 -191 66.5 -345.5t185 -241.5t264.5 -87q89 0 168 37 t141.5 108.5t99 187t36.5 261.5q0 159 -40.5 287.5t-110 210.5t-160.5 126t-195 44h-2q-89 0 -169.5 -37.5t-144 -109t-101.5 -185.5t-38 -256zM492 1563q0 45 30 75.5t72 30.5h2q43 0 72.5 -30.5t29.5 -75.5q0 -42 -30.5 -73.5t-73.5 -31.5q-41 0 -71.5 31.5t-30.5 73.5z M893 1563q0 45 31 75.5t73 30.5h2q43 0 73 -30.5t30 -75.5q0 -42 -30.5 -72.5t-74.5 -30.5q-41 0 -72.5 31t-31.5 72z" />
<glyph unicode="&#xd7;" horiz-adv-x="1206" d="M125 102l397 412l-397 408l76 79l401 -409l404 414l79 -80l-403 -412l403 -412l-79 -82l-404 412l-401 -412z" />
<glyph unicode="&#xd8;" horiz-adv-x="1599" d="M104 666q0 140 51.5 269t143 229t230.5 160t302 60q199 0 351 -96l106 156l64 -43l-105 -154q122 -97 195.5 -240t73.5 -311q0 -163 -56.5 -300.5t-153.5 -230t-228.5 -144.5t-280.5 -52q-205 0 -369 105l-123 -170l-55 51l115 162q-120 98 -190.5 239.5t-70.5 309.5z M324 715q0 -131 37.5 -251t101.5 -206l639 916q-124 133 -318 133q-91 0 -173 -38t-146.5 -110t-102.5 -186.5t-38 -257.5zM514 193q58 -71 141.5 -109.5t175.5 -38.5q114 0 204 46t146.5 126.5t85.5 187t29 232.5q0 280 -145 475z" />
<glyph unicode="&#xd9;" horiz-adv-x="1554" d="M68 1292v62h553v-62q-46 -3 -71 -6t-48.5 -12t-33 -20.5t-17.5 -37.5t-9.5 -55.5t-1.5 -81.5v-465q0 -254 101.5 -390t294.5 -136q397 0 397 590v160q0 237 -16 338q-7 60 -50.5 84t-154.5 32v62h504v-62q-95 -6 -136 -32.5t-47 -90.5q-12 -114 -12 -333v-168 q0 -193 -36.5 -326.5t-125.5 -224.5q-69 -74 -168.5 -110t-210.5 -36q-211 0 -342 103q-96 71 -141 191.5t-45 305.5v508q0 51 -1.5 81t-10 55.5t-17.5 36.5t-34 20.5t-49 12.5t-72 7zM504 1571q6 27 38 72.5t52 52.5q211 -135 336 -217l-27 -56l-395 131z" />
<glyph unicode="&#xda;" horiz-adv-x="1554" d="M68 1292v62h553v-62q-46 -3 -71 -6t-48.5 -12t-33 -20.5t-17.5 -37.5t-9.5 -55.5t-1.5 -81.5v-465q0 -254 101.5 -390t294.5 -136q397 0 397 590v160q0 237 -16 338q-7 60 -50.5 84t-154.5 32v62h504v-62q-95 -6 -136 -32.5t-47 -90.5q-12 -114 -12 -333v-168 q0 -193 -36.5 -326.5t-125.5 -224.5q-69 -74 -168.5 -110t-210.5 -36q-211 0 -342 103q-96 71 -141 191.5t-45 305.5v508q0 51 -1.5 81t-10 55.5t-17.5 36.5t-34 20.5t-49 12.5t-72 7zM678 1477q61 39 175.5 114.5t156.5 102.5q18 -4 51.5 -50t38.5 -71l-4 -17l-394 -133z " />
<glyph unicode="&#xdb;" horiz-adv-x="1554" d="M68 1292v62h553v-62q-46 -3 -71 -6t-48.5 -12t-33 -20.5t-17.5 -37.5t-9.5 -55.5t-1.5 -81.5v-465q0 -254 101.5 -390t294.5 -136q397 0 397 590v160q0 237 -16 338q-7 60 -50.5 84t-154.5 32v62h504v-62q-95 -6 -136 -32.5t-47 -90.5q-12 -114 -12 -333v-168 q0 -193 -36.5 -326.5t-125.5 -224.5q-69 -74 -168.5 -110t-210.5 -36q-211 0 -342 103q-96 71 -141 191.5t-45 305.5v508q0 51 -1.5 81t-10 55.5t-17.5 36.5t-34 20.5t-49 12.5t-72 7zM518 1477q6 4 51 40t59.5 48t49 40.5t59 51t47.5 45.5h45q38 -39 90 -84t79.5 -66.5 t95.5 -74.5l-33 -54q-85 38 -256 129q-26 -13 -79.5 -41.5t-95 -49.5t-79.5 -38z" />
<glyph unicode="&#xdc;" horiz-adv-x="1554" d="M68 1292v62h553v-62q-46 -3 -71 -6t-48.5 -12t-33 -20.5t-17.5 -37.5t-9.5 -55.5t-1.5 -81.5v-465q0 -254 101.5 -390t294.5 -136q397 0 397 590v160q0 237 -16 338q-7 60 -50.5 84t-154.5 32v62h504v-62q-95 -6 -136 -32.5t-47 -90.5q-12 -114 -12 -333v-168 q0 -193 -36.5 -326.5t-125.5 -224.5q-69 -74 -168.5 -110t-210.5 -36q-211 0 -342 103q-96 71 -141 191.5t-45 305.5v508q0 51 -1.5 81t-10 55.5t-17.5 36.5t-34 20.5t-49 12.5t-72 7zM494 1552q0 47 30 78t72 31h2q43 0 72.5 -31t29.5 -78q0 -42 -30 -73t-74 -31 q-41 0 -71.5 31.5t-30.5 72.5zM895 1554q0 45 31 76t73 31h2q43 0 73 -31t30 -76q0 -42 -30.5 -73t-74.5 -31q-41 0 -72.5 31.5t-31.5 72.5z" />
<glyph unicode="&#xdd;" horiz-adv-x="1343" d="M33 1292v62h514v-62q-46 -5 -73 -12t-41.5 -15t-15.5 -22t4.5 -26.5t18.5 -36.5q39 -73 87 -157t105.5 -182.5t88.5 -152.5q196 354 248 469q36 75 16 99t-139 36v62h469v-62q-75 -8 -114 -23.5t-67 -45t-71 -97.5q-139 -217 -264 -450q-22 -41 -28.5 -66.5t-6.5 -66.5 v-279q0 -48 1.5 -75.5t10 -52.5t20 -36.5t38 -21.5t56.5 -13.5t83 -7.5v-57h-602v57q51 4 80 7.5t54.5 13t36.5 21t19.5 36.5t10 52.5t1.5 76.5v271q0 31 -7.5 52.5t-33.5 71.5q-30 51 -114.5 199.5t-149.5 257.5q-66 109 -105 139t-130 37zM578 1477q54 35 167.5 109.5 t165.5 107.5q20 -4 52.5 -49.5t37.5 -71.5l-4 -17l-393 -133z" />
<glyph unicode="&#xde;" horiz-adv-x="1163" d="M80 0v59q45 3 71 7t48.5 14t32.5 22t17.5 37.5t9 55t1.5 79.5v805q0 52 -1 80.5t-8.5 55t-16 37.5t-30.5 21t-46 13t-68 6v62h522v-62q-33 -3 -51 -4.5t-39 -7t-30.5 -11.5t-20.5 -19t-14.5 -27.5t-7.5 -40.5t-4.5 -54.5t-0.5 -72.5q132 4 187 4q217 0 334.5 -87.5 t117.5 -271.5q0 -92 -39.5 -166t-106.5 -121.5t-154 -73t-185 -26.5l-154 37v-88q0 -47 2 -75t10.5 -51.5t20 -35t37 -21t53.5 -13t78 -7.5v-59h-565zM444 426q68 -27 140 -27q122 0 204 76.5t82 218.5q0 144 -76.5 217.5t-213.5 73.5q-84 0 -113 -18q-23 -13 -23 -68v-473z " />
<glyph unicode="&#xdf;" horiz-adv-x="1150" d="M57 840l60 71h98v23q0 96 25 180q49 151 176 256q126 99 268 113q150 -3 240.5 -87t93.5 -231q2 -42 -23 -82q-211 -162 -211 -278q0 -15 4 -29.5t7.5 -25.5t15 -27t17 -23.5t23 -25t23.5 -23t27.5 -25t26.5 -24.5q35 -30 59 -54t52 -59.5t42.5 -77t14.5 -85.5 q0 -73 -39.5 -140.5t-98.5 -113t-126 -72.5t-125 -27q-72 0 -117 27q-51 27 -41 74q1 12 12.5 28t24.5 25q22 19 45 4q81 -65 157 -65q52 0 98 42.5t46 127.5q0 62 -34.5 112.5t-106.5 112.5q-89 77 -132 138.5t-43 119.5q0 56 34 107.5t116 138.5q77 74 86 90q14 22 14 67 q0 106 -71 188.5t-179 82.5q-42 0 -76 -16.5t-57.5 -43.5t-41 -70t-27.5 -88t-15.5 -105.5t-7.5 -115t-2 -123.5v-614q0 -96 19 -124.5t92 -37.5v-55h-437v55q100 9 126 37t26 123v602h-149z" />
<glyph unicode="&#xe0;" horiz-adv-x="927" d="M80 231q0 75 41.5 125.5t128.5 79.5q257 82 325 135v37q0 110 -47 171t-127 61q-55 0 -92 -37q-32 -37 -61 -139q-15 -52 -66 -52q-31 0 -61.5 29t-30.5 64q0 20 16 38.5t50 44.5q59 41 148.5 86t168.5 62q104 0 176 -57q53 -43 73.5 -105.5t20.5 -152.5v-379 q0 -66 22 -95.5t54 -29.5q34 0 74 20l22 -53l-184 -109q-25 0 -54 12t-46 29q-38 35 -51 90q-10 -7 -41.5 -28t-46 -31t-41.5 -26.5t-44 -24.5t-37.5 -14.5t-35.5 -6.5q-110 0 -182 77t-72 179zM225 1354l11 18q15 8 78.5 19.5t86.5 7.5q16 -40 62 -166t69 -184l-59 -29 q-81 113 -248 334zM268 262q0 -75 46.5 -116.5t99.5 -41.5q37 0 84 21t77 49v326q-3 -2 -180 -84q-65 -29 -96 -64.5t-31 -89.5z" />
<glyph unicode="&#xe1;" horiz-adv-x="927" d="M80 231q0 75 41.5 125.5t128.5 79.5q257 82 325 135v37q0 110 -47 171t-127 61q-55 0 -92 -37q-32 -37 -61 -139q-15 -52 -66 -52q-31 0 -61.5 29t-30.5 64q0 20 16 38.5t50 44.5q59 41 148.5 86t168.5 62q104 0 176 -57q53 -43 73.5 -105.5t20.5 -152.5v-379 q0 -66 22 -95.5t54 -29.5q34 0 74 20l22 -53l-184 -109q-25 0 -54 12t-46 29q-38 35 -51 90q-10 -7 -41.5 -28t-46 -31t-41.5 -26.5t-44 -24.5t-37.5 -14.5t-35.5 -6.5q-110 0 -182 77t-72 179zM268 262q0 -75 46.5 -116.5t99.5 -41.5q37 0 84 21t77 49v326q-3 -2 -180 -84 q-65 -29 -96 -64.5t-31 -89.5zM375 1055q37 84 135 329q15 8 86.5 15.5t89.5 3.5l8 -19l-266 -360z" />
<glyph unicode="&#xe2;" horiz-adv-x="927" d="M80 231q0 75 41.5 125.5t128.5 79.5q257 82 325 135v37q0 110 -47 171t-127 61q-55 0 -92 -37q-32 -37 -61 -139q-15 -52 -66 -52q-31 0 -61.5 29t-30.5 64q0 20 16 38.5t50 44.5q59 41 148.5 86t168.5 62q104 0 176 -57q53 -43 73.5 -105.5t20.5 -152.5v-379 q0 -66 22 -95.5t54 -29.5q34 0 74 20l22 -53l-184 -109q-25 0 -54 12t-46 29q-38 35 -51 90q-10 -7 -41.5 -28t-46 -31t-41.5 -26.5t-44 -24.5t-37.5 -14.5t-35.5 -6.5q-110 0 -182 77t-72 179zM201 1059q110 149 213 340h55q102 -192 211 -340l-53 -39q-101 94 -187 203 q-91 -115 -188 -203zM268 262q0 -75 46.5 -116.5t99.5 -41.5q37 0 84 21t77 49v326q-3 -2 -180 -84q-65 -29 -96 -64.5t-31 -89.5z" />
<glyph unicode="&#xe3;" horiz-adv-x="927" d="M80 231q0 75 41.5 125.5t128.5 79.5q257 82 325 135v37q0 110 -47 171t-127 61q-55 0 -92 -37q-32 -37 -61 -139q-15 -52 -66 -52q-31 0 -61.5 29t-30.5 64q0 20 16 38.5t50 44.5q59 41 148.5 86t168.5 62q104 0 176 -57q53 -43 73.5 -105.5t20.5 -152.5v-379 q0 -66 22 -95.5t54 -29.5q34 0 74 20l22 -53l-184 -109q-25 0 -54 12t-46 29q-38 35 -51 90q-10 -7 -41.5 -28t-46 -31t-41.5 -26.5t-44 -24.5t-37.5 -14.5t-35.5 -6.5q-110 0 -182 77t-72 179zM172 1116q31 100 77.5 145.5t94.5 45.5t121 -41q76 -39 115 -39 q26 0 47.5 23.5t44.5 72.5l51 -31q-57 -190 -166 -190q-56 0 -139 47q-56 35 -99 35q-26 0 -48 -25t-46 -78zM268 262q0 -75 46.5 -116.5t99.5 -41.5q37 0 84 21t77 49v326q-3 -2 -180 -84q-65 -29 -96 -64.5t-31 -89.5z" />
<glyph unicode="&#xe4;" horiz-adv-x="927" d="M80 231q0 75 41.5 125.5t128.5 79.5q257 82 325 135v37q0 110 -47 171t-127 61q-55 0 -92 -37q-32 -37 -61 -139q-15 -52 -66 -52q-31 0 -61.5 29t-30.5 64q0 20 16 38.5t50 44.5q59 41 148.5 86t168.5 62q104 0 176 -57q53 -43 73.5 -105.5t20.5 -152.5v-379 q0 -66 22 -95.5t54 -29.5q34 0 74 20l22 -53l-184 -109q-25 0 -54 12t-46 29q-38 35 -51 90q-10 -7 -41.5 -28t-46 -31t-41.5 -26.5t-44 -24.5t-37.5 -14.5t-35.5 -6.5q-110 0 -182 77t-72 179zM158 1221q0 44 30.5 76t73.5 32q42 0 71 -31.5t29 -76.5q0 -43 -29 -74 t-73 -31q-41 0 -71.5 31t-30.5 74zM268 262q0 -75 46.5 -116.5t99.5 -41.5q37 0 84 21t77 49v326q-3 -2 -180 -84q-65 -29 -96 -64.5t-31 -89.5zM518 1221q0 44 31 76t72 32q44 0 73 -31.5t29 -76.5q0 -43 -30 -74t-75 -31q-40 0 -70 31t-30 74z" />
<glyph unicode="&#xe5;" horiz-adv-x="927" d="M80 231q0 75 41.5 125.5t128.5 79.5q257 82 325 135v37q0 110 -47 171t-127 61q-55 0 -92 -37q-32 -37 -61 -139q-15 -52 -66 -52q-31 0 -61.5 29t-30.5 64q0 20 16 38.5t50 44.5q59 41 148.5 86t168.5 62q104 0 176 -57q53 -43 73.5 -105.5t20.5 -152.5v-379 q0 -66 22 -95.5t54 -29.5q34 0 74 20l22 -53l-184 -109q-25 0 -54 12t-46 29q-38 35 -51 90q-10 -7 -41.5 -28t-46 -31t-41.5 -26.5t-44 -24.5t-37.5 -14.5t-35.5 -6.5q-110 0 -182 77t-72 179zM258 1219q0 78 56 126t132 48q72 0 128.5 -48t56.5 -126q0 -81 -57 -131 t-130 -50q-75 0 -130.5 50t-55.5 131zM268 262q0 -75 46.5 -116.5t99.5 -41.5q37 0 84 21t77 49v326q-3 -2 -180 -84q-65 -29 -96 -64.5t-31 -89.5zM352 1219q0 -50 27 -82.5t67 -32.5q41 0 68 32t27 83q0 46 -27.5 77t-69.5 31q-38 0 -65 -31t-27 -77z" />
<glyph unicode="&#xe6;" horiz-adv-x="1409" d="M82 227q0 78 40 127t126 78q278 93 346 139v47q0 97 -53 160.5t-127 63.5q-66 0 -99 -45q-29 -37 -55 -135q-15 -54 -63 -54q-29 0 -64 29t-35 61q0 42 66 90q60 41 150.5 85.5t168.5 62.5q96 0 158 -47q56 -39 84 -109q65 70 147.5 113t159.5 43q135 1 230.5 -96.5 t95.5 -223.5q2 -36 -8 -50.5t-41 -20.5q-27 -5 -202.5 -16.5t-352.5 -16.5q-1 -191 94.5 -291t230.5 -100q122 0 232 102l37 -45q-43 -58 -95.5 -101t-100.5 -63.5t-85 -29.5t-66 -9q-112 0 -199.5 49.5t-135.5 135.5l-76 -58q-68 -52 -139 -89.5t-113 -37.5 q-113 0 -184.5 77t-71.5 175zM268 268q0 -74 46 -116.5t106 -42.5h2q52 0 109 27t104 87q-43 81 -43 277q-44 -24 -199 -86q-66 -27 -95.5 -60t-29.5 -86zM768 594q39 1 111 1.5t132 1.5t113 3q24 0 34.5 10t10.5 37q0 85 -49.5 147t-134.5 62h-2q-76 0 -138.5 -68.5 t-76.5 -193.5z" />
<glyph unicode="&#xe7;" horiz-adv-x="884" d="M78 408q0 120 54.5 225t156.5 182q161 121 323 121q47 0 103.5 -16t87.5 -41t31 -62q-1 -32 -27.5 -63t-50.5 -31q-17 0 -39 22q-99 89 -215 89q-44 0 -86 -19t-78.5 -57t-59 -103.5t-22.5 -148.5q0 -86 22.5 -155t56.5 -111t77.5 -70t83 -38.5t75.5 -10.5q71 0 127.5 25 t126.5 92l37 -50q-139 -168 -293 -204l-26 -37q-18 -29 -15 -44t29 -42q80 -80 80 -142q0 -63 -64.5 -119.5t-175.5 -91.5l-22 56q61 27 93 60.5t32 66.5q0 15 -9 31.5t-15.5 23.5t-22.5 23q-40 40 -45.5 64t20.5 61l64 81q-183 7 -298.5 129.5t-115.5 303.5z" />
<glyph unicode="&#xe8;" horiz-adv-x="894" d="M78 418q0 212 137 362q65 73 146.5 114.5t162.5 41.5h2q130 0 224 -97.5t94 -224.5q-2 -32 -11.5 -45.5t-37.5 -19.5q-36 -6 -207.5 -18t-337.5 -17q1 -99 29 -176.5t73 -123t98.5 -68.5t110.5 -23q129 0 240 102l33 -45q-61 -77 -134.5 -126.5t-123 -64t-89.5 -14.5 q-125 0 -219.5 62t-142 161.5t-47.5 219.5zM252 1354l10 18q15 8 79 19.5t87 7.5q16 -40 62 -166t69 -184l-59 -29q-81 113 -248 334zM262 600q168 0 344 6q28 0 38.5 9t12.5 32q0 86 -50 147.5t-132 61.5h-2q-72 0 -131 -66.5t-80 -189.5z" />
<glyph unicode="&#xe9;" horiz-adv-x="894" d="M78 418q0 212 137 362q65 73 146.5 114.5t162.5 41.5h2q130 0 224 -97.5t94 -224.5q-2 -32 -11.5 -45.5t-37.5 -19.5q-36 -6 -207.5 -18t-337.5 -17q1 -99 29 -176.5t73 -123t98.5 -68.5t110.5 -23q129 0 240 102l33 -45q-61 -77 -134.5 -126.5t-123 -64t-89.5 -14.5 q-125 0 -219.5 62t-142 161.5t-47.5 219.5zM262 600q168 0 344 6q28 0 38.5 9t12.5 32q0 86 -50 147.5t-132 61.5h-2q-72 0 -131 -66.5t-80 -189.5zM406 1055q37 84 135 329q15 8 86.5 15.5t89.5 3.5l8 -19l-266 -360z" />
<glyph unicode="&#xea;" horiz-adv-x="894" d="M78 418q0 212 137 362q65 73 146.5 114.5t162.5 41.5h2q130 0 224 -97.5t94 -224.5q-2 -32 -11.5 -45.5t-37.5 -19.5q-36 -6 -207.5 -18t-337.5 -17q1 -99 29 -176.5t73 -123t98.5 -68.5t110.5 -23q129 0 240 102l33 -45q-61 -77 -134.5 -126.5t-123 -64t-89.5 -14.5 q-125 0 -219.5 62t-142 161.5t-47.5 219.5zM238 1059q110 149 213 340h55q102 -192 211 -340l-53 -39q-101 94 -187 203q-91 -115 -188 -203zM262 600q168 0 344 6q28 0 38.5 9t12.5 32q0 86 -50 147.5t-132 61.5h-2q-72 0 -131 -66.5t-80 -189.5z" />
<glyph unicode="&#xeb;" horiz-adv-x="894" d="M78 418q0 212 137 362q65 73 146.5 114.5t162.5 41.5h2q130 0 224 -97.5t94 -224.5q-2 -32 -11.5 -45.5t-37.5 -19.5q-36 -6 -207.5 -18t-337.5 -17q1 -99 29 -176.5t73 -123t98.5 -68.5t110.5 -23q129 0 240 102l33 -45q-61 -77 -134.5 -126.5t-123 -64t-89.5 -14.5 q-125 0 -219.5 62t-142 161.5t-47.5 219.5zM188 1221q0 44 31 76t74 32q42 0 71 -31.5t29 -76.5q0 -43 -29 -74t-73 -31q-41 0 -72 31t-31 74zM262 600q168 0 344 6q28 0 38.5 9t12.5 32q0 86 -50 147.5t-132 61.5h-2q-72 0 -131 -66.5t-80 -189.5zM549 1221q0 44 30.5 76 t71.5 32q44 0 73.5 -31.5t29.5 -76.5q0 -43 -30 -74t-75 -31q-40 0 -70 31t-30 74z" />
<glyph unicode="&#xec;" horiz-adv-x="569" d="M51 1354l10 18q15 8 79 19.5t87 7.5q16 -40 62 -166t69 -184l-59 -29q-81 113 -248 334zM68 0v55q99 9 123 37.5t24 136.5v414q0 55 -3 81t-18.5 44.5t-38 25t-71.5 13.5v51q157 24 305 82v-711q0 -109 24 -137t124 -37v-55h-469z" />
<glyph unicode="&#xed;" horiz-adv-x="569" d="M68 0v55q99 9 123 37.5t24 136.5v414q0 55 -3 81t-18.5 44.5t-38 25t-71.5 13.5v51q157 24 305 82v-711q0 -109 24 -137t124 -37v-55h-469zM211 1055q37 84 135 329q15 8 86.5 15.5t89.5 3.5l8 -19l-266 -360z" />
<glyph unicode="&#xee;" horiz-adv-x="569" d="M41 1059q110 149 213 340h55q102 -192 211 -340l-53 -39q-97 90 -186 203q-88 -112 -189 -203zM68 0v55q99 9 123 37.5t24 136.5v414q0 55 -3 81t-18.5 44.5t-38 25t-71.5 13.5v51q157 24 305 82v-711q0 -109 24 -137t124 -37v-55h-469z" />
<glyph unicode="&#xef;" horiz-adv-x="569" d="M-4 1221q0 44 30.5 76t73.5 32q42 0 71.5 -31.5t29.5 -76.5q0 -43 -29.5 -74t-73.5 -31q-41 0 -71.5 31t-30.5 74zM68 0v55q99 9 123 37.5t24 136.5v414q0 55 -3 81t-18.5 44.5t-38 25t-71.5 13.5v51q157 24 305 82v-711q0 -109 24 -137t124 -37v-55h-469zM356 1221 q0 44 31 76t72 32q44 0 73 -31.5t29 -76.5q0 -44 -29.5 -74.5t-74.5 -30.5q-40 0 -70.5 31.5t-30.5 73.5z" />
<glyph unicode="&#xf0;" horiz-adv-x="1069" d="M78 434q0 121 44.5 220t114.5 158.5t150.5 91.5t159.5 32h2q107 0 190 -49q-34 171 -147 297l-307 -164l-33 67l287 150q-171 156 -369 180q-8 12 -3.5 35t17.5 29q116 -6 240 -53t225 -128l271 142l34 -66l-243 -127q278 -287 278 -692q0 -147 -39 -261.5t-105.5 -182.5 t-148.5 -103t-174 -35q-80 0 -151.5 26.5t-124 71.5t-91 104t-58 124.5t-19.5 132.5zM283 494q0 -199 75 -323t201 -124q37 0 69 12t63 43.5t53 80t36 126.5t15 178q1 135 -13.5 197.5t-50.5 99.5q-80 80 -192 80h-2q-113 0 -183.5 -102t-70.5 -268z" />
<glyph unicode="&#xf1;" horiz-adv-x="1153" d="M59 0v55q58 7 84.5 12.5t44.5 24.5t21.5 45t3.5 82v426q0 54 -3 80t-19 44t-35.5 23.5t-67.5 14.5v49q183 33 299 86v-168q84 60 141 96q95 66 172 66q127 0 200 -85.5t73 -236.5v-395q0 -57 3 -84t19 -46t38.5 -24t72.5 -10v-55h-442v55q91 9 113 37t22 137v344 q0 234 -189 234q-97 0 -223 -102v-486q0 -57 3 -84t19 -46t39 -24t74 -10v-55h-463zM295 1116q31 100 77.5 145.5t94.5 45.5t121 -41q76 -39 114 -39q26 0 48 23.5t45 72.5l51 -31q-57 -190 -166 -190q-56 0 -139 47q-56 35 -99 35q-26 0 -48 -25t-46 -78z" />
<glyph unicode="&#xf2;" horiz-adv-x="1079" d="M78 434q0 99 29.5 183.5t78 142t110 98.5t124.5 59.5t123 18.5h2q194 0 325 -136.5t131 -330.5q0 -97 -27.5 -179.5t-73.5 -139t-105.5 -97t-123.5 -59.5t-128 -19q-107 0 -196.5 39t-147 104t-89.5 147t-32 169zM283 504q0 -199 78 -329t204 -130q49 0 89 19t73 61.5 t51.5 118t18.5 180.5q0 192 -73.5 316t-203.5 124h-2q-98 0 -166.5 -96.5t-68.5 -263.5zM315 1354l11 18q15 8 79 19.5t87 7.5q16 -40 62 -166t69 -184l-60 -29q-81 113 -248 334z" />
<glyph unicode="&#xf3;" horiz-adv-x="1079" d="M78 434q0 99 29.5 183.5t78 142t110 98.5t124.5 59.5t123 18.5h2q194 0 325 -136.5t131 -330.5q0 -97 -27.5 -179.5t-73.5 -139t-105.5 -97t-123.5 -59.5t-128 -19q-107 0 -196.5 39t-147 104t-89.5 147t-32 169zM283 504q0 -199 78 -329t204 -130q49 0 89 19t73 61.5 t51.5 118t18.5 180.5q0 192 -73.5 316t-203.5 124h-2q-98 0 -166.5 -96.5t-68.5 -263.5zM465 1055q37 84 135 329q15 8 86.5 15.5t89.5 3.5l8 -19l-266 -360z" />
<glyph unicode="&#xf4;" horiz-adv-x="1079" d="M78 434q0 99 29.5 183.5t78 142t110 98.5t124.5 59.5t123 18.5h2q194 0 325 -136.5t131 -330.5q0 -97 -27.5 -179.5t-73.5 -139t-105.5 -97t-123.5 -59.5t-128 -19q-107 0 -196.5 39t-147 104t-89.5 147t-32 169zM283 504q0 -199 78 -329t204 -130q49 0 89 19t73 61.5 t51.5 118t18.5 180.5q0 192 -73.5 316t-203.5 124h-2q-98 0 -166.5 -96.5t-68.5 -263.5zM299 1059q110 149 213 340h55q102 -192 211 -340l-53 -39q-97 90 -186 203q-88 -112 -189 -203z" />
<glyph unicode="&#xf5;" horiz-adv-x="1079" d="M78 434q0 99 29.5 183.5t78 142t110 98.5t124.5 59.5t123 18.5h2q194 0 325 -136.5t131 -330.5q0 -97 -27.5 -179.5t-73.5 -139t-105.5 -97t-123.5 -59.5t-128 -19q-107 0 -196.5 39t-147 104t-89.5 147t-32 169zM262 1116q31 100 77.5 145.5t94.5 45.5t121 -41 q76 -39 115 -39q26 0 47.5 23.5t44.5 72.5l51 -31q-57 -190 -166 -190q-56 0 -139 47q-56 35 -98 35q-49 0 -95 -103zM283 504q0 -199 78 -329t204 -130q49 0 89 19t73 61.5t51.5 118t18.5 180.5q0 192 -73.5 316t-203.5 124h-2q-98 0 -166.5 -96.5t-68.5 -263.5z" />
<glyph unicode="&#xf6;" horiz-adv-x="1079" d="M78 434q0 99 29.5 183.5t78 142t110 98.5t124.5 59.5t123 18.5h2q194 0 325 -136.5t131 -330.5q0 -97 -27.5 -179.5t-73.5 -139t-105.5 -97t-123.5 -59.5t-128 -19q-107 0 -196.5 39t-147 104t-89.5 147t-32 169zM256 1221q0 44 30.5 76t73.5 32q42 0 71.5 -31.5 t29.5 -76.5q0 -43 -29.5 -74t-73.5 -31q-41 0 -71.5 31t-30.5 74zM283 504q0 -199 78 -329t204 -130q49 0 89 19t73 61.5t51.5 118t18.5 180.5q0 192 -73.5 316t-203.5 124h-2q-98 0 -166.5 -96.5t-68.5 -263.5zM616 1221q0 44 31 76t72 32q44 0 73 -31.5t29 -76.5 q0 -44 -29.5 -74.5t-74.5 -30.5q-40 0 -70.5 31.5t-30.5 73.5z" />
<glyph unicode="&#xf7;" horiz-adv-x="1206" d="M109 475v107h993v-107h-993zM500 217q0 43 30.5 72.5t73.5 29.5h2q39 0 71 -30t32 -72t-32 -73t-73 -31q-43 0 -73.5 30.5t-30.5 73.5zM504 842q0 40 32 72t70 32q44 0 75.5 -32t31.5 -72q0 -44 -31.5 -75.5t-75.5 -31.5h-2q-38 0 -69 32t-31 75z" />
<glyph unicode="&#xf8;" horiz-adv-x="1085" d="M78 436q0 98 30 182t79 141.5t111.5 98t127 59.5t125.5 19q120 0 229 -64l76 109l57 -39l-75 -108q82 -64 126 -159t44 -204q0 -95 -27 -177t-72.5 -139.5t-105 -99t-124.5 -61t-130 -19.5q-136 0 -248 64l-80 -115l-53 49l78 107q-80 65 -124 159.5t-44 196.5zM272 483 q0 -160 62 -268l375 557q-30 42 -79 67t-104 25q-106 0 -180 -100.5t-74 -280.5zM379 150q66 -105 188 -105q105 0 175.5 97t70.5 300q0 155 -61 265z" />
<glyph unicode="&#xf9;" horiz-adv-x="1122" d="M59 838v49q86 4 158 16q86 9 154 23q-6 -68 -6 -305v-281q0 -125 50 -178t130 -53q119 0 221 96v485q0 56 -9 83t-25 36t-54 16l-74 13v49q96 3 193 16q89 9 143 23v-693q0 -78 18 -99.5t78 -24.5l58 -5v-55q-60 -8 -162 -33q-30 -7 -81.5 -21.5t-70.5 -19.5l-14 13v147 q-12 -9 -44.5 -33t-57.5 -41t-52 -32q-91 -54 -161 -54q-116 0 -189.5 76.5t-73.5 235.5v403q0 79 -14 102t-55 31zM313 1354l11 18q15 8 78.5 19.5t86.5 7.5q15 -39 61.5 -165.5t70.5 -184.5l-60 -29q-81 113 -248 334z" />
<glyph unicode="&#xfa;" horiz-adv-x="1122" d="M59 838v49q86 4 158 16q86 9 154 23q-6 -68 -6 -305v-281q0 -125 50 -178t130 -53q119 0 221 96v485q0 56 -9 83t-25 36t-54 16l-74 13v49q96 3 193 16q89 9 143 23v-693q0 -78 18 -99.5t78 -24.5l58 -5v-55q-60 -8 -162 -33q-30 -7 -81.5 -21.5t-70.5 -19.5l-14 13v147 q-12 -9 -44.5 -33t-57.5 -41t-52 -32q-91 -54 -161 -54q-116 0 -189.5 76.5t-73.5 235.5v403q0 79 -14 102t-55 31zM477 1055q37 84 135 329q15 8 86.5 15.5t89.5 3.5l9 -19l-267 -360z" />
<glyph unicode="&#xfb;" horiz-adv-x="1122" d="M59 838v49q86 4 158 16q86 9 154 23q-6 -68 -6 -305v-281q0 -125 50 -178t130 -53q119 0 221 96v485q0 56 -9 83t-25 36t-54 16l-74 13v49q96 3 193 16q89 9 143 23v-693q0 -78 18 -99.5t78 -24.5l58 -5v-55q-60 -8 -162 -33q-30 -7 -81.5 -21.5t-70.5 -19.5l-14 13v147 q-12 -9 -44.5 -33t-57.5 -41t-52 -32q-91 -54 -161 -54q-116 0 -189.5 76.5t-73.5 235.5v403q0 79 -14 102t-55 31zM313 1059q110 149 213 340h56q102 -192 211 -340l-54 -39q-97 90 -186 203q-91 -115 -188 -203z" />
<glyph unicode="&#xfc;" horiz-adv-x="1122" d="M59 838v49q86 4 158 16q86 9 154 23q-6 -68 -6 -305v-281q0 -125 50 -178t130 -53q119 0 221 96v485q0 56 -9 83t-25 36t-54 16l-74 13v49q96 3 193 16q89 9 143 23v-693q0 -78 18 -99.5t78 -24.5l58 -5v-55q-60 -8 -162 -33q-30 -7 -81.5 -21.5t-70.5 -19.5l-14 13v147 q-12 -9 -44.5 -33t-57.5 -41t-52 -32q-91 -54 -161 -54q-116 0 -189.5 76.5t-73.5 235.5v403q0 79 -14 102t-55 31zM262 1221q0 44 31 76t74 32q42 0 71 -31.5t29 -76.5q0 -43 -29 -74t-73 -31q-41 0 -72 31t-31 74zM623 1221q0 44 30.5 76t71.5 32q44 0 73 -31.5t29 -76.5 q0 -44 -29.5 -74.5t-74.5 -30.5q-40 0 -70 31t-30 74z" />
<glyph unicode="&#xfd;" horiz-adv-x="966" d="M0 856v55h436v-55q-73 -12 -88 -34.5t8 -80.5l189 -514q110 264 188 510q21 58 0.5 82.5t-106.5 36.5v55h379v-55q-83 -13 -113.5 -38.5t-71.5 -115.5q-23 -48 -55 -122.5t-93 -221t-116 -276.5q-175 -415 -219 -565q-13 -54 -66 -54q-43 0 -82.5 34t-39.5 73t53 74 q52 32 87.5 73t74.5 111q45 85 61 139q13 41 -4 92q-140 397 -242 641q-35 87 -66 115.5t-114 40.5zM463 1055q37 84 135 329q15 8 86.5 15.5t89.5 3.5l8 -19l-266 -360z" />
<glyph unicode="&#xfe;" horiz-adv-x="1085" d="M10 -442q70 5 98.5 16.5t41 43.5t12.5 106v1476q0 39 -1 60.5t-7 41.5t-13.5 28t-27 15.5t-40 10.5t-59.5 6v51q160 12 322 68v-680q45 24 122.5 64t106.5 55q37 16 76 16q69 0 128.5 -23t102.5 -62t74.5 -89.5t46.5 -107t15 -113.5q1 -113 -41 -212t-115 -170t-168 -118 t-203 -66q-69 2 -145 39v-286q0 -39 2 -62.5t10 -43.5t18.5 -30t34.5 -17.5t50.5 -10.5t72.5 -6v-58h-514v58zM336 166q33 -35 90.5 -59.5t112.5 -24.5t104.5 21t91 64t66 116.5t24.5 169.5q0 173 -81.5 264.5t-204.5 91.5q-86 0 -203 -80v-563z" />
<glyph unicode="&#xff;" horiz-adv-x="966" d="M0 856v55h436v-55q-73 -12 -88 -34.5t8 -80.5l189 -514q110 264 188 510q21 58 0.5 82.5t-106.5 36.5v55h379v-55q-83 -13 -113.5 -38.5t-71.5 -115.5q-23 -48 -55 -122.5t-93 -221t-116 -276.5q-175 -415 -219 -565q-13 -54 -66 -54q-43 0 -82.5 34t-39.5 73t53 74 q52 32 87.5 73t74.5 111q45 85 61 139q13 41 -4 92q-140 397 -242 641q-35 87 -66 115.5t-114 40.5zM225 1221q0 44 31 76t74 32q42 0 71 -31.5t29 -76.5q0 -43 -29 -74t-73 -31q-41 0 -72 31t-31 74zM586 1221q0 44 30.5 76t71.5 32q44 0 73.5 -31.5t29.5 -76.5 q0 -43 -30 -74t-75 -31q-40 0 -70 31t-30 74z" />
<glyph unicode="&#x152;" horiz-adv-x="2062" d="M96 659q0 159 61.5 293.5t169 227t257 144.5t321.5 52q57 0 201 -12q123 -10 199 -10h589q0 -50 19 -297l-66 -8q-27 123 -65 174q-22 31 -72.5 43t-163.5 12h-157q-47 0 -57.5 -10t-10.5 -54v-471h203q47 0 76 1.5t52.5 9.5t35.5 16t22.5 29t15.5 39.5t13 56.5h63v-397 h-63q-9 42 -13.5 62t-15.5 42t-22.5 29.5t-35.5 15.5t-52 9t-76 1h-203v-376q0 -83 10.5 -121.5t38.5 -57.5q19 -13 56 -19t65 -6.5t94 -0.5q119 0 173 13.5t89 51.5q54 56 107 197l65 -6q-32 -160 -75 -332h-648q-121 0 -217 -8q-173 -15 -219 -15q-153 0 -280.5 37 t-215.5 101.5t-149.5 151.5t-90 186t-28.5 206zM319 686q-1 -99 18 -190t62.5 -173.5t108 -142.5t161.5 -95.5t216 -35.5q112 0 174 33q41 21 57.5 51t16.5 94v910q0 56 -9 83t-32 40q-71 40 -209 40q-263 0 -413.5 -165t-150.5 -449z" />
<glyph unicode="&#x153;" horiz-adv-x="1624" d="M76 434q0 99 30 184t78.5 142t109.5 98t121.5 59.5t116.5 18.5h3q115 0 208 -56t146 -153q60 91 158 150t198 59q133 0 228.5 -96.5t95.5 -223.5q0 -36 -9 -49.5t-36 -19.5q-29 -6 -208.5 -18t-354.5 -17q-1 -194 93.5 -293.5t229.5 -99.5q63 0 119 25.5t119 80.5l32 -47 q-43 -59 -93.5 -101.5t-97.5 -63t-83.5 -29.5t-65.5 -9q-111 0 -200 48t-142 133q-64 -89 -155.5 -135t-186.5 -46q-103 0 -190.5 40t-144 106t-88 147.5t-31.5 165.5zM283 502q0 -201 76.5 -328t203.5 -127q46 0 85.5 21t72 64.5t51.5 120t19 177.5q2 192 -72 313t-203 121 h-2q-96 0 -163.5 -98t-67.5 -264zM973 594q116 0 366 4q24 2 33.5 13t9.5 38q0 89 -53 148t-135 59h-2q-76 0 -140.5 -69.5t-78.5 -192.5z" />
<glyph unicode="&#x178;" horiz-adv-x="1343" d="M33 1292v62h514v-62q-46 -5 -73 -12t-41.5 -15t-15.5 -22t4.5 -26.5t18.5 -36.5q39 -73 87 -157t105.5 -182.5t88.5 -152.5q196 354 248 469q36 75 16 99t-139 36v62h469v-62q-75 -8 -114 -23.5t-67 -45t-71 -97.5q-139 -217 -264 -450q-22 -41 -28.5 -66.5t-6.5 -66.5 v-279q0 -48 1.5 -75.5t10 -52.5t20 -36.5t38 -21.5t56.5 -13.5t83 -7.5v-57h-602v57q51 4 80 7.5t54.5 13t36.5 21t19.5 36.5t10 52.5t1.5 76.5v271q0 31 -7.5 52.5t-33.5 71.5q-30 51 -114.5 199.5t-149.5 257.5q-66 109 -105 139t-130 37zM387 1552q0 47 31 78t74 31h2 q42 0 71 -31t29 -78q0 -42 -30 -73t-72 -31t-73.5 31t-31.5 73zM791 1554q0 45 30 76t72 31h2q43 0 72.5 -30.5t29.5 -76.5q0 -42 -30 -73t-74 -31q-41 0 -71.5 31.5t-30.5 72.5z" />
<glyph unicode="&#x2c6;" horiz-adv-x="831" d="M176 1059q110 149 213 340h55q102 -192 211 -340l-53 -39q-97 90 -186 203q-88 -112 -189 -203z" />
<glyph unicode="&#x2dc;" horiz-adv-x="831" d="M139 1116q31 100 77.5 145.5t94.5 45.5t121 -41q76 -39 115 -39q26 0 47.5 23.5t44.5 72.5l51 -31q-57 -190 -166 -190q-56 0 -139 47q-56 35 -98 35q-26 0 -48 -25t-46 -78z" />
<glyph unicode="&#x2000;" horiz-adv-x="892" />
<glyph unicode="&#x2001;" horiz-adv-x="1784" />
<glyph unicode="&#x2002;" horiz-adv-x="892" />
<glyph unicode="&#x2003;" horiz-adv-x="1784" />
<glyph unicode="&#x2004;" horiz-adv-x="594" />
<glyph unicode="&#x2005;" horiz-adv-x="446" />
<glyph unicode="&#x2006;" horiz-adv-x="297" />
<glyph unicode="&#x2007;" horiz-adv-x="297" />
<glyph unicode="&#x2008;" horiz-adv-x="223" />
<glyph unicode="&#x2009;" horiz-adv-x="356" />
<glyph unicode="&#x200a;" horiz-adv-x="99" />
<glyph unicode="&#x2010;" horiz-adv-x="747" d="M117 410l30 118h486l-31 -118h-485z" />
<glyph unicode="&#x2011;" horiz-adv-x="747" d="M117 410l30 118h486l-31 -118h-485z" />
<glyph unicode="&#x2012;" horiz-adv-x="747" d="M117 410l30 118h486l-31 -118h-485z" />
<glyph unicode="&#x2013;" horiz-adv-x="1081" d="M104 416v110h873v-110h-873z" />
<glyph unicode="&#x2014;" horiz-adv-x="1921" d="M104 416v110h1713v-110h-1713z" />
<glyph unicode="&#x2018;" horiz-adv-x="473" d="M86 1212q0 105 81.5 176t197.5 103l22 -57q-83 -34 -124.5 -75.5t-41.5 -101.5q0 -53 38 -88t95 -43q10 -2 19.5 -14t9.5 -31q0 -39 -30.5 -61.5t-63.5 -22.5h-2q-75 0 -138 60.5t-63 154.5z" />
<glyph unicode="&#x2019;" horiz-adv-x="471" d="M88 1042q81 35 122.5 76t41.5 101q0 53 -38 87t-95 44q-10 2 -18.5 13.5t-8.5 31.5q0 38 29 61t61 23h2q74 0 137.5 -61t63.5 -156q0 -105 -81.5 -177t-194.5 -100z" />
<glyph unicode="&#x201a;" horiz-adv-x="505" d="M102 -180q84 37 127 78.5t43 101.5q0 54 -41 89.5t-100 43.5q-10 2 -18.5 14.5t-8.5 32.5q0 39 30 61.5t63 22.5h2q77 0 144 -62t67 -159q0 -109 -84 -182t-205 -105z" />
<glyph unicode="&#x201c;" horiz-adv-x="843" d="M86 1214q0 104 82 174.5t199 102.5l20 -57q-84 -35 -125 -75.5t-41 -101.5q0 -52 37.5 -87t95.5 -44q10 -2 18.5 -14t8.5 -31q0 -39 -29.5 -60.5t-62.5 -21.5h-2q-75 0 -138 60t-63 155zM459 1214q0 54 24 101t65 80.5t88 57t101 38.5l21 -57q-83 -35 -124.5 -75.5 t-41.5 -101.5q0 -52 39 -86.5t96 -44.5q10 -2 18.5 -14t8.5 -31q0 -39 -28.5 -60.5t-61.5 -21.5h-2q-75 0 -139 60t-64 155z" />
<glyph unicode="&#x201d;" horiz-adv-x="851" d="M86 1038q83 37 124.5 78.5t41.5 102.5q0 52 -39 86.5t-96 44.5q-10 2 -18.5 13.5t-8.5 31.5q0 37 29.5 60.5t60.5 23.5h2q76 0 140.5 -61t64.5 -158q0 -104 -82.5 -176.5t-198.5 -102.5zM463 1038q84 36 126 78t42 103q0 51 -38.5 86t-94.5 45q-29 4 -29 45q0 37 30 60.5 t62 23.5h2q75 0 139 -61t64 -158q0 -104 -84 -176.5t-199 -102.5z" />
<glyph unicode="&#x201e;" horiz-adv-x="911" d="M100 -180q85 35 128.5 77t43.5 103q0 54 -40.5 89.5t-100.5 45.5q-27 5 -27 45q0 39 30.5 62.5t64.5 23.5h2q76 0 143.5 -62.5t67.5 -160.5q0 -109 -85 -182t-206 -105zM496 -180q86 35 130 77t44 103q0 54 -41.5 89.5t-102.5 45.5q-10 2 -18 13.5t-8 31.5q0 39 30 62.5 t64 23.5h2q76 0 143.5 -62.5t67.5 -160.5q0 -109 -85 -182t-206 -105z" />
<glyph unicode="&#x2022;" horiz-adv-x="819" d="M135 453q0 117 80.5 198.5t196.5 81.5h2q111 0 190.5 -82t79.5 -198q0 -118 -79.5 -199.5t-192.5 -81.5q-116 0 -196.5 81.5t-80.5 199.5z" />
<glyph unicode="&#x2026;" horiz-adv-x="2041" d="M219 100q0 53 33.5 88t85.5 35q53 0 87 -35t34 -88q0 -57 -33.5 -91t-87.5 -34h-2q-52 0 -84.5 34.5t-32.5 90.5zM905 100q0 53 33 88t84 35q54 0 88.5 -35t34.5 -88q0 -56 -34.5 -90.5t-88.5 -34.5h-2q-50 0 -82.5 34.5t-32.5 90.5zM1579 100q0 53 34.5 88t86.5 35 t86.5 -35t34.5 -88q0 -56 -34 -90.5t-87 -34.5h-2q-52 0 -85.5 34.5t-33.5 90.5z" />
<glyph unicode="&#x202f;" horiz-adv-x="356" />
<glyph unicode="&#x2039;" horiz-adv-x="583" d="M102 459q171 180 332 385l47 -31l-192 -354l192 -348l-47 -33q-206 262 -332 381z" />
<glyph unicode="&#x203a;" horiz-adv-x="583" d="M102 111l195 350l-195 352l50 31q197 -247 329 -383q-137 -137 -329 -381z" />
<glyph unicode="&#x205f;" horiz-adv-x="446" />
<glyph unicode="&#x20ac;" d="M35 428l26 76h97q-3 60 6 117h-92l26 77h78q41 195 181.5 310.5t334.5 115.5q38 0 80 -6.5t67.5 -13t57 -16t37.5 -11.5q11 -73 29 -239l-56 -13q-17 56 -34 92.5t-44 70t-67.5 49.5t-95.5 16q-115 0 -190.5 -96t-102.5 -259h542l-28 -77h-520q-7 -63 -2 -117h485 l-29 -76h-450q24 -175 101.5 -278t197.5 -103q87 0 140 52t116 169l55 -22q-41 -159 -82 -228q-140 -43 -242 -43q-117 0 -207.5 35t-148 99t-91 143t-46.5 176h-129z" />
<glyph unicode="&#x2122;" horiz-adv-x="966" d="M53 1223q1 23 4.5 62.5t3.5 53.5h27q3 -10 10 -10q6 -2 17 -2h223q19 0 29 12h24q0 -26 4 -116h-30q-14 45 -27 51q-10 16 -49 16h-31v-200q0 -43 8.5 -53t48.5 -11v-35h-182v35q38 1 45.5 11t7.5 53v200h-26q-38 0 -49 -18q-16 -12 -25 -49h-33zM420 991v35q22 0 32 6.5 t13 22.5q8 32 12 86l6 82q6 42 -3 52t-48 13v39h137l103 -209l102 209h135v-39q-34 -3 -41.5 -11.5t-7.5 -43.5l2 -141q1 -44 9 -54t42 -12v-35h-170v35q35 1 42.5 10t7.5 47v187h-2l-123 -273h-27l-111 258h-4l-6 -120q-2 -19 -2 -80q2 -16 11.5 -22t37.5 -7v-35h-147z" />
<glyph unicode="&#xe000;" horiz-adv-x="911" d="M0 0v911h911v-911h-911z" />
<glyph unicode="&#xfb03;" horiz-adv-x="1689" d="M51 848l58 63h96v41q0 74 26 150q43 132 177 235q129 92 264 105q90 -3 153 -34t97 -75q71 68 155 107.5t156 42.5q144 -2 231 -101q30 -41 13 -77q-17 -30 -50 -56q-42 -27 -69 6q-4 4 -23.5 25t-28.5 30t-30.5 26.5t-38.5 25.5t-42 15t-52 7q-87 0 -137 -81 q-60 -85 -60 -308v-84h170q263 0 393 27v-731q0 -95 22.5 -119t121.5 -33v-55h-447v55q46 4 68.5 9.5t38 23t19 43t3.5 76.5v506q0 75 -16.5 93.5t-91.5 18.5h-281v-618q0 -95 22 -120t115 -32v-55h-444v55q89 9 111 34t22 122v614h-391v-608q0 -101 22 -127.5t117 -36.5 v-53h-452v55q34 3 53 6t37 10.5t25 16.5t13.5 28t7.5 41.5t1 59.5v608h-148zM381 911h391v56q0 67 19 145q19 68 40 105q-34 56 -95 96.5t-138 40.5q-106 0 -158 -94q-59 -97 -59 -291v-58z" />
<glyph unicode="&#xfb04;" horiz-adv-x="1695" d="M57 848l58 63h98v39q0 74 27 150q45 127 168 227q132 98 274 109q157 -2 246 -101q64 64 140.5 103t150.5 45q115 0 186 -53q13 5 26.5 12t35.5 20t28 17l21 -13v-1261q0 -94 23 -118t124 -34v-53h-451v53q87 9 108 34t21 118v1085q-27 44 -76.5 72.5t-107.5 28.5 q-84 0 -143 -70q-27 -36 -45.5 -115.5t-18.5 -195.5v-99h246q10 -15 3 -45.5t-25 -40.5h-222l-2 -618q0 -95 23 -120t117 -34v-53h-447v53q48 6 71 12t39 23.5t19.5 44t3.5 78.5v614h-389v-608q0 -54 3.5 -80.5t20.5 -45t39.5 -24.5t73.5 -14v-53h-450v53q34 4 53 7.5 t36.5 11t25.5 17t14.5 28t8 41.5t1.5 59v608h-150zM387 911h389v41q0 97 23 172q13 45 41 99q-33 51 -94.5 87t-139.5 36q-57 0 -98.5 -27t-65.5 -70q-55 -89 -55 -284v-54z" />
</font>
</defs>
</svg>
