<?xml version="1.0" standalone="no"?>
<!DOCTYPE svg PUBLIC "-//W3C//DTD SVG 1.1//EN" "http://www.w3.org/Graphics/SVG/1.1/DTD/svg11.dtd" >
<svg xmlns="http://www.w3.org/2000/svg">
<metadata></metadata>
<defs>
<font id="GramRegular" horiz-adv-x="739" >
<font-face units-per-em="2048" ascent="1536" descent="-512" />
<missing-glyph horiz-adv-x="475" />
<glyph horiz-adv-x="0" />
<glyph horiz-adv-x="2048" />
<glyph unicode=" "  horiz-adv-x="475" />
<glyph unicode="&#x09;" horiz-adv-x="475" />
<glyph unicode="&#xa0;" horiz-adv-x="475" />
<glyph unicode="!" horiz-adv-x="296" d="M135 0v184h27v-184h-27zM135 319v1094h27v-1094h-27z" />
<glyph unicode="&#x22;" horiz-adv-x="344" d="M61 1110q47 55 48 168v131h26v-131q0 -109 -45 -168h-29zM184 1110q47 55 47 168v131h27v-131q0 -109 -45 -168h-29z" />
<glyph unicode="#" horiz-adv-x="847" d="M39 496v24h737v-24h-737zM72 893v25h737v-25h-737zM162 0l102 1413h25l-103 -1413h-24zM557 0l102 1413h25l-102 -1413h-25z" />
<glyph unicode="$" horiz-adv-x="919" d="M76 352h24q0 -138 90 -235q102 -109 261 -113v711q-164 66 -223.5 115t-93.5 107t-34 142q0 162 93 258q94 94 258 97v153h24v-153q156 -3 252 -105q84 -88 84 -207h-25q0 103 -77 191q-87 93 -234 96v-676q171 -70 250 -137q125 -105 125 -262.5t-100 -253.5t-275 -100 v-154h-24v154q-177 4 -279 120q-96 110 -96 252zM127 1079q0 -182 197 -279q59 -30 127 -57v666q-156 -4 -240 -90t-84 -240zM475 4q166 4 258 94t92 248q0 189 -217 298q-63 32 -133 61v-701z" />
<glyph unicode="%" horiz-adv-x="935" d="M43 1051q0 154 57.5 237.5t159.5 83.5t159.5 -84t57.5 -237.5t-57.5 -235.5t-159.5 -82t-159.5 82t-57.5 236zM70 1053q0 -141 49 -218t141 -77q191 0 191 295q0 141 -49.5 218t-141.5 77t-141 -77t-49 -218zM186 0l535 1413h29l-535 -1413h-29zM459 358.5 q0 153.5 57 237.5t160 84q102 0 159.5 -84t57.5 -238t-57.5 -235.5t-159.5 -81.5t-159.5 82t-57.5 235.5zM485 360q0 -141 49.5 -217.5t141.5 -76.5q190 0 190 294q0 141 -49 218t-141 77t-141.5 -76.5t-49.5 -218.5z" />
<glyph unicode="&#x26;" horiz-adv-x="952" d="M45 324q0 111 47 202.5t158 190.5q10 10 21.5 19t22.5 20q23 24 50 47q-41 57 -67.5 95t-51 70.5t-44 92t-19.5 119.5q0 123 60.5 188.5t172.5 65.5q81 0 124 -37q87 -76 87 -223q0 -144 -140 -287q-42 -43 -89 -88q37 -53 81 -114.5t91 -128.5q117 -166 188 -263 q29 89 29 207h25q0 -107 -37 -232q174 -241 190 -268h-29q-23 29 -67.5 92.5t-104.5 147.5q-19 -55 -53 -101q-113 -160 -323 -159q-147 0 -234.5 86.5t-87.5 257.5zM72 324q0 -154 77 -237t218 -83q135 0 233 76q84 65 127 184l-369 518q-12 -10 -24 -22t-26.5 -24.5 t-25 -21.5t-16.5 -16q-104 -96 -149 -183t-45 -191zM188 1180q0 -116 72 -217q10 -14 37 -51.5t65 -92.5q94 88 156 170t62 185q0 235 -185 235q-102 0 -154.5 -59.5t-52.5 -169.5z" />
<glyph unicode="'" horiz-adv-x="223" d="M61 1110q47 55 48 168v131h26v-131q0 -109 -45 -168h-29z" />
<glyph unicode="(" horiz-adv-x="288" d="M61 594q0 508 140 881h26q-139 -368 -139 -881q0 -505 139 -881h-26q-140 371 -140 881z" />
<glyph unicode=")" horiz-adv-x="288" d="M61 -287q140 371 140 881q0 508 -140 881h27q139 -368 139 -881q0 -511 -139 -881h-27z" />
<glyph unicode="*" horiz-adv-x="616" d="M72 1233l6 22l182 -59l39 -18l-4 43v192h24v-192l-4 -43l39 18l183 59l8 -24l-185 -60l-41 -8l29 -30l113 -156l-19 -14l-114 155l-21 37l-20 -39l-115 -153l-20 14l114 153l29 33l-43 11z" />
<glyph unicode="+" horiz-adv-x="839" d="M82 514v25h676v-25h-676zM408 188v676h24v-676h-24z" />
<glyph unicode="," horiz-adv-x="278" d="M82 -115q47 55 47 168v131h27v-131q0 -109 -45 -168h-29z" />
<glyph unicode="-" horiz-adv-x="575" d="M84 532v25h410v-25h-410z" />
<glyph unicode="." horiz-adv-x="274" d="M123 0v184h29v-184h-29z" />
<glyph unicode="/" horiz-adv-x="335" d="M10 0l289 1413h27l-289 -1413h-27z" />
<glyph unicode="0" horiz-adv-x="1003" d="M45 509q0 253 135 398q119 133 322 133q202 0 321 -133q135 -145 135 -398t-135 -394q-123 -131 -321 -131q-199 0 -328 136t-129 389zM72 512q0 -259 136 -392q117 -112 294 -112q176 0 292 112q138 134 138 392q0 227 -117 366q-115 138 -313 138q-197 0 -313.5 -137.5 t-116.5 -366.5z" />
<glyph unicode="1" horiz-adv-x="432" d="M31 641v33q182 157 260 350h22v-1024h-26v946l6 33q-12 -30 -12 -37q-89 -170 -250 -301z" />
<glyph unicode="2" horiz-adv-x="833" d="M45 0q4 6 5 12t5 13q49 115 130 191.5t147 117t89 55t61 36.5t85 50.5t83 65.5q77 79 77 206t-74.5 198t-222.5 71q-256 0 -319 -236h-27q65 260 346 260q158 0 241 -76.5t83 -224.5q0 -178 -172 -285q-50 -30 -88 -51.5t-61 -36t-86.5 -54.5t-140.5 -110.5t-124 -176.5 h690v-25h-727z" />
<glyph unicode="3" horiz-adv-x="927" d="M14 -8h25q0 -156 88 -257q104 -120 309 -120q210 0 325 128q103 115 103 266t-43 235q-54 105 -187 130q-113 20 -192 -44h-28q40 56 131 125q106 83 136 119q64 77 64 163q0 135 -79.5 209t-225 74t-219.5 -63.5t-94 -149.5h-25q20 80 74 139q94 98 260 98t254 -88 q82 -78 82 -219q0 -131 -138 -241q-67 -54 -86.5 -69t-26.5 -21q-10 -9 -54 -39q46 23 55 26q90 18 164 -8q205 -74 205 -360q0 -183 -121 -309t-330 -126t-317 114t-109 288z" />
<glyph unicode="4" horiz-adv-x="776" d="M12 0v18q39 135 192 329q38 48 100.5 126t166.5 218t219 360h27q-150 -288 -323 -505q-48 -61 -110.5 -137.5t-128 -167.5t-114.5 -216h573v505h27v-505h59v-25h-59v-389h-27v389h-602z" />
<glyph unicode="5" horiz-adv-x="911" d="M31 43h24q0 -285 211 -390q76 -38 187 -38q201 0 307 141q88 117 88 287t-88 287q-106 141 -313 141t-314 -147h-24q16 78 23 140t17.5 135t24.5 179.5t43 245.5h567v-25h-544q-29 -141 -41.5 -235t-20.5 -158q-18 -147 -33 -221q-16 -32 -16 -39q4 4 13 18q14 26 55 56 q102 76 256 76q200 -1 310.5 -128.5t110.5 -324.5t-110.5 -324.5t-313 -128t-311 129t-108.5 323.5z" />
<glyph unicode="6" horiz-adv-x="856" d="M47 389q0 110 42 231t105.5 244t186.5 271.5t289 285.5h39q-445 -366 -588 -784q-6 -18 -13.5 -34.5t-13.5 -33.5q8 16 15.5 32.5t17.5 31.5q113 149 293 149.5t284.5 -116.5t104.5 -285q0 -164 -100 -283q-109 -119 -276 -118.5t-277 122.5q-109 121 -109 287zM74 389 q0 -161 103 -273q102 -112 253 -112q76 0 141.5 27.5t112.5 78.5q98 105 98 271q0 167 -98 271q-100 106 -256 106q-148 0 -253 -107q-101 -103 -101 -262z" />
<glyph unicode="7" horiz-adv-x="864" d="M10 999v25h830v-18l-2 -7q-61 -158 -125 -278.5t-119 -217t-102.5 -183.5t-95.5 -190q-106 -228 -187 -519h-29q116 409 286 721q48 88 103 186.5t117 214t121 266.5h-797z" />
<glyph unicode="8" horiz-adv-x="860" d="M47 379q0 165 109 272q92 96 227 121q-283 115 -283 322q0 141 90 239q93 101 239 101t241 -101q90 -98 90 -239q0 -113 -84 -208q-85 -95 -201 -124q182 -74 260 -162t78 -221q0 -168 -98 -281q-107 -118 -285 -118t-285 118q-98 111 -98 281zM74 379q0 -246 196 -342 q68 -33 160 -33q171 0 271 118q85 100 85 257q0 132 -80 216q-81 84 -278 159q-154 -16 -254 -122t-100 -253zM127 1109.5q0 -119.5 72.5 -195.5t232.5 -136q120 12 211 107q90 94 90 209q0 135 -86 225t-217 90t-217 -90t-86 -209.5z" />
<glyph unicode="9" horiz-adv-x="856" d="M47 1032q0 173 100 281q109 121 281 121q160 0 272 -125q109 -117 109 -285q0 -110 -42 -231t-105.5 -244t-186.5 -271.5t-289 -285.5h-39q445 366 588 784q6 18 13.5 34.5t13.5 33.5q-8 -16 -15.5 -32.5t-17.5 -31.5q-113 -149 -294.5 -149t-284.5 115.5t-103 285.5z M74 1032q0 -167 98 -271q100 -106 256 -106q149 0 252 107q102 106 102 262q0 159 -103 272q-104 113 -253 113q-76 0 -141.5 -27.5t-112.5 -77.5q-98 -106 -98 -272z" />
<glyph unicode=":" horiz-adv-x="272" d="M123 0v184h27v-184h-27zM123 840v184h27v-184h-27z" />
<glyph unicode=";" horiz-adv-x="280" d="M82 -115h29q45 59 45 168v131h-27v-131q0 -113 -47 -168zM129 840v184h27v-184h-27z" />
<glyph unicode="&#x3c;" horiz-adv-x="999" d="M20 506v16l889 518v-28l-841 -488l-23 -10l23 -10l841 -488v-28z" />
<glyph unicode="=" horiz-adv-x="839" d="M82 428v25h676v-25h-676zM82 674v24h676v-24h-676z" />
<glyph unicode="&#x3e;" horiz-adv-x="999" d="M90 -12v28l842 488l22 10l-22 10l-842 488v28l889 -518v-16z" />
<glyph unicode="?" horiz-adv-x="831" d="M29 1040q0 168 110 280q112 114 276.5 114t269.5 -107.5t106 -253.5q0 -209 -207 -382q-58 -48 -106 -83t-68.5 -75.5t-29.5 -86.5q-11 -55 -11 -165h-25q0 263 109 340q141 102 198.5 173.5t85 136t27.5 134t-22.5 129t-67.5 108.5q-100 107 -264 107q-150 0 -253 -107 q-104 -107 -104 -262h-24zM344 0v184h27v-184h-27z" />
<glyph unicode="@" horiz-adv-x="1511" d="M61 707q0 303 201 514q98 104 229.5 158.5t249 54.5t190.5 -18.5t131 -46.5q93 -45 172 -131q163 -176 163 -407q0 -132 -62 -268q-82 -176 -223 -176q-74 0 -114 49t-29 156q0 8 7 27.5t11 34.5t3 22.5t4 29.5q12 54 17 94.5t6 44t3 5.5q6 6 8 20l4 58v10q31 131 31 143 l24 -4l-8 -41q-8 -41 -21.5 -101.5t-27.5 -131t-26 -127.5q-35 -164 18 -227q31 -37 80 -37t80.5 15t56.5 37q41 37 72 106q59 131 59 249t-41 222t-117.5 186t-188.5 132t-254 50t-267 -54.5t-217 -149.5t-144.5 -223t-52.5 -275t52.5 -275.5t144.5 -223.5t217 -149.5 t255 -54.5t235.5 35t190.5 101q180 138 242 362l25 -8q-69 -231 -250.5 -372.5t-429.5 -141.5q-309 0 -508 213q-201 209 -201 514zM397 756q41 196 146.5 301.5t236 105.5t197.5 -80q83 -102 40.5 -313t-145 -318.5t-233.5 -107.5t-199 80q-90 109 -43 332zM424 752 q-48 -215 35 -314q57 -70 179 -69.5t220 101.5t139 299t-41 300q-56 70 -178 70t-219.5 -102.5t-134.5 -284.5z" />
<glyph unicode="A" horiz-adv-x="843" d="M23 0l387 1413h24l387 -1413h-26l-125 459h-496l-125 -459h-26zM180 483h484l-232 844l-10 47l-10 -47z" />
<glyph unicode="B" horiz-adv-x="823" d="M123 0v1413h276q174 0 256 -86t82 -266t-80 -268q-51 -53 -131 -76q254 -57 254 -350q0 -367 -360 -367h-297zM150 25h270h4q165 0 247 82q83 83 83 260q0 335 -334 335h-270v-677zM150 727h249q164 0 238 81t74 252t-74 250t-238 79h-249v-662z" />
<glyph unicode="C" horiz-adv-x="878" d="M61 707q0 354 111 540t301 187q244 0 326 -318h-25q-76 293 -301 293q-176 0 -276 -172q-109 -182 -109 -525t99.5 -525.5t280.5 -182.5t263 164q33 63 49 141h25q-23 -90 -51 -151q-90 -178 -279.5 -178t-300.5 182q-113 190 -113 545z" />
<glyph unicode="D" horiz-adv-x="839" d="M123 0v1413h184q244 0 359 -176q115 -175 115 -530q-1 -359 -115 -533t-359 -174h-184zM150 25h157h3q229 0 337 163q107 167 107 519q0 349 -107 516q-109 166 -340 166h-157v-1364z" />
<glyph unicode="E" horiz-adv-x="784" d="M123 0v1413h600v-24h-573v-662h532v-25h-532v-677h624v-25h-651z" />
<glyph unicode="F" horiz-adv-x="718" d="M123 0v1413h569v-24h-542v-662h491v-25h-491v-702h-27z" />
<glyph unicode="G" horiz-adv-x="888" d="M61 704.5q0 356.5 111 542.5t301 187q247 0 330 -330h-25q-76 305 -305 305q-176 0 -276 -172q-109 -182 -109 -525t99.5 -525.5t285.5 -182.5q330 0 356 588h-303v24h328q-20 -636 -380 -636h-1q-188 0 -300 184t-112 540.5z" />
<glyph unicode="H" horiz-adv-x="962" d="M123 0v1413h27v-686h663v686h27v-1413h-27v702h-663v-702h-27z" />
<glyph unicode="I" horiz-adv-x="456" d="M63 0v25h152v1364h-152v24h330v-24h-151v-1364h151v-25h-330z" />
<glyph unicode="J" horiz-adv-x="335" d="M-84 -338q68 37 119 85t86 125q69 152 69 468v1073h27v-1073q0 -318 -76 -480q-66 -140 -213 -218z" />
<glyph unicode="K" horiz-adv-x="847" d="M123 0v1413h27v-862l620 862h31l-434 -600l458 -813h-28l-445 791l-202 -281v-510h-27z" />
<glyph unicode="L" horiz-adv-x="735" d="M123 0v1413h27v-1388h573v-25h-600z" />
<glyph unicode="M" horiz-adv-x="1097" d="M123 0v1413h22l398 -1350l6 -40l6 40l397 1350h23v-1413h-27v1296l8 74l-14 -74l-381 -1296h-24l-381 1296l-15 74l9 -74v-1296h-27z" />
<glyph unicode="N" horiz-adv-x="962" d="M123 0v1413h22l660 -1333l16 -49l-8 49v1333h27v-1413h-23l-657 1331l-19 51l9 -51v-1331h-27z" />
<glyph unicode="O" horiz-adv-x="946" d="M61 704.5q0 356.5 111 542.5t301 187q190 0 301 -186.5t111 -542.5t-108.5 -540.5t-300 -184.5t-303.5 184t-112 540.5zM88 713.5q0 -344.5 99.5 -527t283.5 -182.5t283 170q104 181 104 531t-106 532q-103 172 -281 172t-276 -172q-107 -179 -107 -523.5z" />
<glyph unicode="P" horiz-adv-x="823" d="M123 0v1413h293q180 0 272 -96t92 -294t-93 -299t-271 -101h-266v-623h-27zM150 647h266q168 0 253 94.5t85 276.5q0 194 -85 282t-253 89h-266v-742z" />
<glyph unicode="Q" horiz-adv-x="952" d="M61 703.5q0 357.5 111 543.5t301 187q190 0 301 -186.5t111 -540.5q0 -429 -160 -613q52 -185 156 -264q41 -31 96 -31v-24q-180 0 -272 297q-96 -92 -232 -92q-190 0 -299 180q-113 186 -113 543.5zM88 713.5q0 -344.5 99.5 -527t285.5 -182.5q133 0 223 94 q-25 82 -66.5 161t-111.5 114v26q127 -53 199 -280q18 25 54 86t61.5 193t25.5 309q0 348 -104 525t-281 177q-180 0 -278 -172q-107 -179 -107 -523.5z" />
<glyph unicode="R" horiz-adv-x="833" d="M123 0v1413h297q360 0 360 -366q0 -180 -92 -275q-61 -61 -151 -82q67 -20 114 -88q72 -95 80 -274q5 -213 45 -328h-28q-37 117 -42 302.5t-70 280.5t-171 95h-315v-678h-27zM150 702h270q334 0 334 345q0 176 -80 259t-254 83h-270v-687z" />
<glyph unicode="S" horiz-adv-x="919" d="M76 352h24q0 -138 94 -237q105 -111 272 -111t263 91t96 251q0 190 -227 303q-66 33 -130 59t-128 54.5t-117 69.5q-123 97 -123 253t93 252q100 96 272 97q157 0 262 -105q84 -88 84 -207h-25q0 103 -77 191q-90 96 -249 96t-246 -86t-87 -244q0 -185 209 -285 q61 -30 128 -57q180 -72 261 -141q125 -104 125 -250q0 -170 -102.5 -268t-283.5 -98t-284.5 113t-103.5 259z" />
<glyph unicode="T" d="M20 1389v24h699v-24h-336v-1389h-27v1389h-336z" />
<glyph unicode="U" horiz-adv-x="888" d="M96 584v829h27v-829q0 -350 109 -486q75 -94 212 -94q144 0 218 98q104 134 104 482v829h27v-829q0 -328 -90.5 -466t-257.5 -138t-252 131q-96 143 -97 473z" />
<glyph unicode="V" horiz-adv-x="823" d="M23 1413h26l352 -1325l11 -59l10 59l352 1325h27l-377 -1413h-25z" />
<glyph unicode="W" horiz-adv-x="1343" d="M29 1413h26l293 -1321l8 -63l6 59l295 1325h25l295 -1321l8 -63l6 59l295 1325h27l-318 -1413h-22l-297 1331l-6 55l-6 -59l-297 -1327h-23z" />
<glyph unicode="X" horiz-adv-x="868" d="M41 0l381 727l-361 686h29l344 -661l344 661h29l-361 -686l381 -727h-28l-365 700l-364 -700h-29z" />
<glyph unicode="Y" horiz-adv-x="880" d="M27 1413h28l385 -739l385 739h29l-401 -768v-645h-27v649z" />
<glyph unicode="Z" horiz-adv-x="894" d="M57 0v25l727 1364h-686v24h717v-24l-727 -1364h750v-25h-781z" />
<glyph unicode="[" horiz-adv-x="391" d="M123 -287v1762h246v-25h-219v-1712h219v-25h-246z" />
<glyph unicode="\" horiz-adv-x="335" d="M10 1413h27l289 -1413h-27z" />
<glyph unicode="]" horiz-adv-x="391" d="M23 -262h219v1712h-219v25h245v-1762h-245v25z" />
<glyph unicode="^" horiz-adv-x="856" d="M23 307l393 1024h24l394 -1024h-27l-375 977l-4 21l-4 -21l-375 -977h-26z" />
<glyph unicode="_" horiz-adv-x="905" d="M84 0v25h737v-25h-737z" />
<glyph unicode="a" d="M37 311q0 161 113 262q98 86 212 86q158 0 256 -94q5 87 10 131q3 23 3 45q0 74 -29 136q-53 117 -180 135q-26 4 -50 4q-92 0 -170 -50q-57 -37 -102 -98h-28q23 46 86 97q94 75 212 75q27 0 56 -4q133 -18 190 -136q38 -77 38 -174q0 -12 -1 -24q-8 -95 -12 -161 l-2 -39q-4 -74 -4 -135v-21v-41q0 -225 31 -305h-25q-24 55 -31 219q-25 -73 -49 -104q-90 -131 -248 -131q-125 0 -200.5 90t-75.5 237zM61 311q0 -123 62 -209q68 -94 190 -94q143 0 223 115q64 91 74 219v33q0 70 6 160q-90 100 -254 100q-107 0 -196 -79 q-105 -93 -105 -245z" />
<glyph unicode="b" d="M96 0v1413h27v-647l-4 -53q17 122 57 194q78 133 217 133t219 -138t80 -394t-80 -390t-218 -134t-218 133q-47 82 -59 200l6 -63v-254h-27zM121 516q0 -246 70.5 -377t202.5 -131t202 129t70 378t-74 375t-199 126t-198.5 -127t-73.5 -373z" />
<glyph unicode="c" horiz-adv-x="632" d="M47 512q0 254 80 391t219 137q178 0 238 -233h-25q-55 209 -213 209q-125 0 -198.5 -126t-73.5 -373t70.5 -378t197.5 -131t184 117q20 43 37 104h25q-58 -245 -242 -245q-137 0 -217 133q-82 141 -82 395z" />
<glyph unicode="d" d="M47 510q0 258 82 395q78 135 217 135t217 -133q38 -65 58 -194l-5 53v647h27v-1413h-27v254l7 63q-16 -125 -60 -200q-80 -133 -218 -133t-218 134t-80 392zM74 515q0 -249 69.5 -378t201.5 -129t202.5 131t70.5 377t-73.5 373t-198.5 127t-198.5 -126t-73.5 -375z" />
<glyph unicode="e" horiz-adv-x="688" d="M47 513q0 257 80 392t219 135t219 -138t80 -390v-12h-571q4 -246 77 -369t199 -123q199 0 254 275h25q-66 -299 -276 -299h-3q-137 0 -220 136t-83 393zM74 524h547q-2 238 -76 365t-199 127q-124 0 -196 -122.5t-76 -369.5z" />
<glyph unicode="f" horiz-adv-x="382" d="M16 999v25h109q16 307 181 379q36 16 75 24v-22q-75 -17 -125 -64q-96 -92 -104 -317h192v-25h-192v-999h-27v999h-109z" />
<glyph unicode="g" horiz-adv-x="743" d="M51 514q0 258 80 392t218 134t218 -133q43 -76 60 -200l-6 63v254h26v-862q0 -276 -123 -412q-129 -137 -403 -137v25q264 0 382 126t118 398v96l4 53q-17 -124 -58 -194q-78 -133 -217 -133t-217 135q-82 137 -82 395zM78 509q0 -249 74 -375t198 -126q125 0 199 127 t74 373t-71 377t-203 131t-201.5 -129t-69.5 -378z" />
<glyph unicode="h" horiz-adv-x="743" d="M96 0v1413h27v-645l-6 -61q30 165 121 256q77 77 176 77h8q101 -4 167.5 -91t65.5 -232v-717h-26v717q0 142 -65 223q-57 72 -142 76h-8q-106 0 -184 -96q-88 -110 -107 -302v-618h-27z" />
<glyph unicode="i" horiz-adv-x="268" d="M121 0v1024h26v-1024h-26zM121 1139v274h26v-274h-26z" />
<glyph unicode="j" horiz-adv-x="231" d="M-86 -391v-29q145 96 195 287q23 82 25.5 161.5t2.5 145.5v850h-26v-850q0 -185 -21.5 -277t-61.5 -162.5t-114 -125.5zM111 1139v274h26v-274h-26z" />
<glyph unicode="k" horiz-adv-x="663" d="M96 0v1413h27v-1005l498 616h32l-350 -432l342 -592h-29l-329 571l-164 -202v-369h-27z" />
<glyph unicode="l" horiz-adv-x="268" d="M121 0v1413h26v-1413h-26z" />
<glyph unicode="m" horiz-adv-x="1140" d="M96 0v1024h27v-256l-6 -61q19 166 102 255q74 78 162 78q125 0 189 -173q17 -43 17 -94q0 -10 -1 -21q8 99 57 178q69 110 188 110q88 0 151 -83q71 -93 71 -257v-700h-27l2 700q0 151 -62 240q-54 76 -135 76q-111 0 -172 -106.5t-65 -305.5v-604h-27v707 q0 150 -55 229.5t-141 79.5t-156 -98q-84 -117 -92 -310v-608h-27z" />
<glyph unicode="n" horiz-adv-x="743" d="M96 0v1024h27v-256l-6 -61q30 165 121 256q77 77 176 77h8q101 -4 167.5 -91t65.5 -232v-717h-26v717q0 142 -65 223q-57 72 -142 76h-8q-106 0 -184 -96q-88 -110 -107 -302v-618h-27z" />
<glyph unicode="o" horiz-adv-x="692" d="M47 512q0 258 80 393t219 135t219 -138t80 -394t-80 -390t-218 -134t-219 135t-81 393zM74 516q0 -246 70.5 -377t202.5 -131t201.5 129t69.5 378t-75 380q-72 121 -197 121t-198.5 -127t-73.5 -373z" />
<glyph unicode="p" d="M96 -387v1411h27v-254l-6 -63q12 119 59 200q80 133 218 133t218 -134t80 -390t-80 -394t-219 -138t-217 133q-40 68 -57 194l4 -53v-645h-27zM121 508q0 -246 74 -373t198 -127q125 0 199 126t74 375t-70 378t-202 129t-202.5 -131t-70.5 -377z" />
<glyph unicode="q" d="M47 514q0 258 80 392t218 134t218 -133q43 -76 60 -200l-7 63v254h27v-1413h-27v647l5 53q-17 -124 -58 -194q-78 -133 -217 -133t-217 135q-82 137 -82 395zM74 509q0 -249 74 -375t198 -126q125 0 199 127q74 126 74 370q0 248 -71 380q-71 131 -203 131t-201.5 -129 t-69.5 -378z" />
<glyph unicode="r" horiz-adv-x="479" d="M96 0v1024h27v-256l-6 -61q30 167 121 255q79 76 176 76h8q11 0 41 -6v-24q-23 6 -41 6h-8q-105 0 -184 -96q-88 -106 -107 -300v-618h-27z" />
<glyph unicode="s" horiz-adv-x="688" d="M41 256h25q0 -98 69 -169q77 -79 204.5 -79t200 64.5t72.5 179.5q0 135 -170 216q-51 24 -99 42t-97 38.5t-91 52.5q-96 73 -96 188.5t75 183t208 67.5q120 0 198 -72q68 -65 68 -155h-24q0 71 -56 131q-66 72 -187.5 72t-188 -60.5t-66.5 -173.5q0 -134 159 -206 q48 -21 99 -40q137 -51 197 -100q98 -78 98 -192.5t-79 -187t-217 -72.5t-220 82t-82 190z" />
<glyph unicode="t" horiz-adv-x="393" d="M20 999v25h109v389h27v-389h192v-25h-192v-546q0 -345 164 -423q30 -14 65 -22v-22q-93 19 -143 69q-113 106 -113 398v546h-109z" />
<glyph unicode="u" horiz-adv-x="743" d="M88 305v717h27v-717q0 -142 65 -223q57 -72 142 -76h8q103 0 181 96q90 111 110 301v619h26v-1024h-26v256l6 61q-29 -164 -121 -256q-77 -77 -176 -77h-8q-101 4 -167.5 89t-66.5 234z" />
<glyph unicode="v" horiz-adv-x="608" d="M8 1024h27l260 -946l8 -51l8 51l260 946h27l-283 -1024h-24z" />
<glyph unicode="w" horiz-adv-x="978" d="M8 1024h27l217 -950l4 -39l4 39l217 950h25l217 -948l4 -41l4 37l217 952h27l-236 -1024h-24l-222 969l-221 -969h-24z" />
<glyph unicode="x" horiz-adv-x="624" d="M23 0l276 522l-266 502h28l252 -477l252 477h29l-266 -502l276 -522h-29l-262 496l-262 -496h-28z" />
<glyph unicode="y" horiz-adv-x="608" d="M16 -399q217 107 301 465l-301 958h27l279 -891l6 -39q0 17 8 41l235 889h27q-4 -16 -17.5 -65.5t-32 -119t-41 -153.5t-60 -227.5t-72.5 -272.5q-57 -213 -82 -280q-93 -252 -277 -332v27z" />
<glyph unicode="z" horiz-adv-x="638" d="M14 0v25l568 974h-549v25h579v-25l-567 -974h580v-25h-611z" />
<glyph unicode="{" horiz-adv-x="280" d="M61 584v20q14 0 36 20q46 43 46 95q0 69 -19 158.5t-31.5 162t-12.5 149t15.5 126t40.5 85.5q54 75 122 75v-25q-57 0 -104 -70t-48 -168q0 -135 37 -305q27 -132 27 -178q0 -89 -76 -135q76 -46 76 -135q0 -58 -20 -149q-44 -195 -44 -286q0 -149 50 -219 q45 -68 102 -67v-25q-68 0 -122 75q-56 80 -56 184q0 143 39 315q24 113 24 172q0 86 -82 125z" />
<glyph unicode="|" horiz-adv-x="272" d="M123 -369v1966h27v-1966h-27z" />
<glyph unicode="}" horiz-adv-x="280" d="M23 -262q57 0 102 67q49 75 49 172q0 146 -37 304q-26 127 -26 178q0 87 75 135q-75 46 -75 135q0 51 20 146q43 204 43 292q0 139 -47 211t-104 72v25q66 0 119 -75q59 -83 59 -185q0 -130 -25 -246q-39 -186 -39 -240q0 -93 82 -125v-20q-12 0 -34 -20q-48 -44 -48 -95 q0 -65 19.5 -156.5t32 -164t12.5 -149t-16.5 -126t-42.5 -85.5q-53 -75 -119 -75v25z" />
<glyph unicode="~" horiz-adv-x="1024" d="M72 473q57 91 85 113q59 45 133.5 45t126.5 -22.5t101 -49.5t98.5 -47t113 -20t109.5 32.5t93 112.5l20 -12q-43 -72 -93 -115t-124 -43t-127 21.5t-102 48.5t-98.5 48t-100.5 21t-78.5 -9t-50.5 -27q-33 -24 -86 -109z" />
<glyph unicode="&#xa2;" horiz-adv-x="632" d="M47 512q0 254 82 395q72 121 195 131v99h26v-97q176 -4 234 -233h-25q-55 205 -209 209v-1008q119 2 176 117q20 43 37 104h25q-16 -68 -39 -114q-63 -129 -199 -131v-97h-26v97q-123 12 -195 133q-82 141 -82 395zM74 523.5q0 -240.5 64.5 -372t185.5 -143.5v1006 q-109 -10 -174 -119q-76 -131 -76 -371.5z" />
<glyph unicode="&#xa9;" horiz-adv-x="1503" d="M43 707q0 305 201 514q201 213 508 213q305 0 508 -213q200 -208 200 -514t-200 -514q-98 -104 -229.5 -158.5t-278.5 -54.5q-309 0 -508 213q-201 209 -201 514zM70 707q0 -147 52 -275.5t144 -223.5t217 -149.5t269 -54.5q143 0 268 54.5t217 149.5q197 203 197 499 q0 147 -52.5 275t-144.5 223t-217 149.5t-268 54.5t-268.5 -54.5t-217.5 -149.5q-196 -202 -196 -498zM389 707q0 -186 119 -301q122 -113 289 -113q234 0 323 194h-26q-82 -170 -297 -170q-167 0 -275 110q-106 108 -106 280q0 171 106 279q108 110 275 110q208 0 290 -160 h27q-92 184 -317 184q-173 0 -287 -110q-121 -117 -121 -303z" />
<glyph unicode="&#xad;" horiz-adv-x="575" d="M84 532v25h410v-25h-410z" />
<glyph unicode="&#xae;" horiz-adv-x="1503" d="M43 707q0 305 201 514q201 213 508 213q305 0 508 -213q200 -208 200 -514t-200 -514q-98 -104 -229.5 -158.5t-278.5 -54.5q-309 0 -508 213q-201 209 -201 514zM70 707q0 -147 52 -275.5t144 -223.5t217 -149.5t269 -54.5q143 0 268 54.5t217 149.5q197 203 197 499 q0 147 -52.5 275t-144.5 223t-217 149.5t-268 54.5t-268.5 -54.5t-217.5 -149.5q-196 -202 -196 -498zM498 293h26v387h275q193 0 198 -201q6 -133 27 -186h27q-23 59 -27 175q-6 174 -135 222q168 39 168 209q0 221 -264 221h-295v-827zM524 705v391h269q123 0 180 -48.5 t57 -148.5q0 -194 -237 -194h-269z" />
<glyph unicode="&#x2000;" horiz-adv-x="798" />
<glyph unicode="&#x2001;" horiz-adv-x="1597" />
<glyph unicode="&#x2002;" horiz-adv-x="798" />
<glyph unicode="&#x2003;" horiz-adv-x="1597" />
<glyph unicode="&#x2004;" horiz-adv-x="532" />
<glyph unicode="&#x2005;" horiz-adv-x="399" />
<glyph unicode="&#x2006;" horiz-adv-x="266" />
<glyph unicode="&#x2007;" horiz-adv-x="266" />
<glyph unicode="&#x2008;" horiz-adv-x="199" />
<glyph unicode="&#x2009;" horiz-adv-x="319" />
<glyph unicode="&#x200a;" horiz-adv-x="88" />
<glyph unicode="&#x2010;" horiz-adv-x="575" d="M84 532v25h410v-25h-410z" />
<glyph unicode="&#x2011;" horiz-adv-x="575" d="M84 532v25h410v-25h-410z" />
<glyph unicode="&#x2012;" horiz-adv-x="575" d="M84 532v25h410v-25h-410z" />
<glyph unicode="&#x2013;" horiz-adv-x="778" d="M82 532v25h614v-25h-614z" />
<glyph unicode="&#x2014;" horiz-adv-x="1187" d="M82 532v25h1024v-25h-1024z" />
<glyph unicode="&#x2018;" horiz-adv-x="223" d="M88 1282v131h27v-131q0 -113 47 -168h-29q-45 59 -45 168z" />
<glyph unicode="&#x2019;" horiz-adv-x="223" d="M61 1114q47 55 48 168v131h26v-131q0 -109 -45 -168h-29z" />
<glyph unicode="&#x201c;" horiz-adv-x="339" d="M82 1114v131q0 109 45 168h29q-47 -55 -47 -168v-131h-27zM205 1114v131q0 109 45 168h29q-47 -55 -48 -168v-131h-26z" />
<glyph unicode="&#x201d;" horiz-adv-x="346" d="M61 1114q47 55 48 168v131h26v-131q0 -109 -45 -168h-29zM184 1114q47 55 47 168v131h27v-131q0 -109 -45 -168h-29z" />
<glyph unicode="&#x201e;" horiz-adv-x="1024" />
<glyph unicode="&#x2022;" horiz-adv-x="389" d="M82 707q0 47 32.5 80.5t80.5 33.5q47 0 79.5 -33.5t32.5 -80.5t-32.5 -81t-79.5 -34t-80 33.5t-33 81.5zM106 707q0 -39 25 -65t63 -26t63.5 26t25.5 65t-25.5 64.5t-63.5 25.5t-63 -26t-25 -64z" />
<glyph unicode="&#x2026;" horiz-adv-x="1024" d="M123 0v184h29v-184h-29zM512 0v184h29v-184h-29zM860 0v184h29v-184h-29z" />
<glyph unicode="&#x202f;" horiz-adv-x="319" />
<glyph unicode="&#x205f;" horiz-adv-x="399" />
<glyph unicode="&#x2122;" horiz-adv-x="1179" d="M41 1389v24h434v-24h-205v-590h-26v590h-203zM569 799v614h23l237 -569l5 -17l4 17l235 569h23v-614h-27v536l10 39l-12 -39l-223 -536h-23l-223 536l-10 39l8 -39v-536h-27z" />
<glyph unicode="&#xe000;" horiz-adv-x="1024" d="M0 0v1024h1024v-1024h-1024z" />
</font>
</defs>
</svg>
