<?xml version="1.0" standalone="no"?>
<!DOCTYPE svg PUBLIC "-//W3C//DTD SVG 1.1//EN" "http://www.w3.org/Graphics/SVG/1.1/DTD/svg11.dtd" >
<svg xmlns="http://www.w3.org/2000/svg">
<metadata></metadata>
<defs>
<font id="witkaRegular" horiz-adv-x="1705" >
<font-face units-per-em="2048" ascent="1536" descent="-512" />
<missing-glyph horiz-adv-x="653" />
<glyph horiz-adv-x="0" />
<glyph horiz-adv-x="2048" />
<glyph unicode="&#xd;" horiz-adv-x="1024" />
<glyph unicode=" "  horiz-adv-x="653" />
<glyph unicode="&#x09;" horiz-adv-x="653" />
<glyph unicode="&#xa0;" horiz-adv-x="653" />
<glyph unicode="!" horiz-adv-x="423" d="M43 168q0 72 49 122t121 50t122 -50t50 -122t-50 -122t-122 -50t-121 50t-49 122zM82 1565h309l-127 -1133h-84z" />
<glyph unicode="&#x22;" horiz-adv-x="976" />
<glyph unicode="(" horiz-adv-x="1003" d="M53 664q0 227 52.5 443t162 384t275.5 270.5t393 102.5l-6 -47q-211 0 -351.5 -99.5t-224.5 -260.5q-153 -293 -153 -779q0 -482 159 -801q120 -239 332 -333q109 -48 250 -48l8 -53q-227 0 -396 105.5t-279.5 277.5t-166 391t-55.5 447z" />
<glyph unicode=")" horiz-adv-x="1011" d="M37 -555l6 53q264 0 441 181q229 235 284 719q16 141 16 282q0 480 -154 780q-183 359 -573 359l-8 47q227 0 394 -102.5t275.5 -270.5t162 -384t53.5 -443t-55.5 -446.5t-166 -391.5t-279.5 -277.5t-396 -105.5z" />
<glyph unicode="+" horiz-adv-x="1372" d="M29 700v127h602v703h108v-703h602v-127h-602v-702h-108v702h-602z" />
<glyph unicode="," horiz-adv-x="446" d="M35 154q0 66 47 109.5t111 43.5q104 0 171 -86t66.5 -239.5t-108.5 -286.5q-111 -131 -287 -172v55q125 63 176 144.5t51 218.5q0 39 -10 49t-47 10q-74 0 -122 44t-48 110z" />
<glyph unicode="." horiz-adv-x="364" d="M27 162.5q0 62.5 46 106.5t108 44t110 -43q43 -47 43 -109t-44 -108.5t-106.5 -46.5t-109.5 47t-47 109.5z" />
<glyph unicode="/" horiz-adv-x="964" d="M57 -4l754 1567h119l-754 -1567h-119z" />
<glyph unicode="0" horiz-adv-x="1093" d="M57 649q0 265 145 454q66 87 156.5 137t192.5 50q203 0 347 -187t144 -454q0 -264 -144 -455q-143 -188 -347 -188q-102 0 -192.5 50t-156.5 138q-145 193 -145 455zM233 645q0 -231 92 -400q42 -77 98.5 -122t119.5 -45t119.5 45t98.5 122q91 167 91 400q0 237 -91 403 q-42 76 -98.5 121t-119.5 45t-119.5 -45t-98.5 -121q-92 -168 -92 -403z" />
<glyph unicode="1" horiz-adv-x="659" d="M18 938q151 33 252 205q45 76 72 164l98 2v-1098q4 -72 84 -123q41 -27 117 -37v-51h-557v51q122 16 176 92q23 33 27 68l-11 797q-16 -28 -87.5 -82t-127.5 -90z" />
<glyph unicode="2" horiz-adv-x="851" d="M23 92q59 86 109 155.5t91 128t77 109t82 123.5q127 200 146 324q35 212 -97 284q-36 19 -86 19t-93 -30.5t-76 -61.5t-39 -74t-12 -98h-49q5 107 45.5 181.5t115.5 125.5t164 51q133 0 230 -104q107 -121 78 -258q-21 -90 -49 -141q-39 -71 -111 -176t-185.5 -240.5 t-236.5 -315.5h592l55 135h51l-71 -227h-729z" />
<glyph unicode="3" horiz-adv-x="731" d="M-76 -166l39 10q47 -51 111.5 -87t135.5 -36t136.5 34t114.5 93q106 126 106 306q0 172 -99 298q-98 124 -243 132l4 100q104 -16 209 58q109 78 109 171q0 97 -63 165q-64 67 -154 67q-74 0 -144 -59q-72 -60 -88 -136l-41 -2q0 137 93 231q93 95 225 95q130 0 223 -95 q94 -96 94 -231q0 -132 -94 -228q-93 -95 -223 -95q141 0 232 -141q87 -133 90 -315t-51 -284t-139 -156.5t-185.5 -67.5t-187.5 6.5t-146.5 63.5t-63.5 103z" />
<glyph unicode="4" horiz-adv-x="1089" d="M45 -4l617 1284l12 -6h137v-1176h238v-96h-238v-344h-147v344h-504zM205 98h459v961z" />
<glyph unicode="5" horiz-adv-x="907" d="M37 -154l43 27q27 -82 84 -126t126.5 -53t145.5 16.5t142 81.5q148 127 176 335q23 161 -81 287q-101 121 -239 121q-66 0 -134.5 -37t-113.5 -95l2 725v140h680v-140h-583v-561q96 90 223 90q152 0 258 -135q107 -137 114 -306.5t-44.5 -277.5t-134.5 -176.5t-184 -97.5 t-197.5 -18.5t-173 60.5t-109.5 140z" />
<glyph unicode="6" horiz-adv-x="905" d="M62 342q-67 247 20 537q31 102 107.5 222t178 229.5t216 191.5t219.5 110l61 -49q-168 -86 -274 -197q-205 -215 -277 -446q158 47 264.5 22.5t168 -95t82 -173t7 -211t-59.5 -211t-115.5 -172t-161.5 -94t-188.5 17.5t-157 123.5t-90.5 194.5zM193 526q0 -179 79 -314 q82 -138 188 -138q54 0 101 32.5t83 89.5q77 123 77 300q0 176 -77 298q-77 124 -183 124q-110 0 -189 -109q-79 -111 -79 -283z" />
<glyph unicode="7" horiz-adv-x="1136" d="M-53 -289l999 1497h-549l-125 -223l-104 19l178 313l748 -6v-121l-873 -1479h-274z" />
<glyph unicode="8" horiz-adv-x="827" d="M27 397q0 131 68.5 233.5t223.5 205.5q-125 78 -189.5 189.5t-64 268t98.5 267.5q100 111 256 110.5t255 -103.5t99 -261q0 -115 -66 -233q-67 -118 -184 -193q147 -119 208 -209q75 -112 75 -236q0 -184 -115 -305q-113 -125 -280 -125q-168 0 -277 111t-108 280z M135 422q0 -74 30 -153q61 -161 155 -193q49 -17 105 -17t98 32q147 112 147 269q0 119 -78 211.5t-230 188.5q-104 -57 -165.5 -136t-61.5 -202zM179 1376q-20 -158 133 -324q55 -61 132 -132q86 39 152 115.5t79 172.5q24 178 -36 287q-46 82 -203 104q-96 12 -170 -51 q-74 -68 -87 -172z" />
<glyph unicode="9" horiz-adv-x="905" d="M23 -305q168 86 275 197q206 210 277 444q-158 -47 -264 -21.5t-167.5 95t-83 172t-7 212t59.5 212t115.5 172t162.5 94t188.5 -17.5t157 -123.5t91.5 -194.5q64 -240 -21 -537q-39 -133 -162 -301q-189 -259 -415 -392q-74 -44 -144 -62zM166 782q0 -176 77 -298 q77 -124 185 -124q106 0 183 124q77 122 77 298q0 177 -77 300q-77 122 -184 122q-54 0 -101 -32.5t-83 -89.5q-77 -123 -77 -300z" />
<glyph unicode=":" horiz-adv-x="364" d="M29 156q0 63 44.5 107t109 44t109 -44t44.5 -107t-46 -109.5t-107.5 -46.5t-107.5 46t-46 110zM29 723q0 63 44.5 107t109 44t109 -44t44.5 -107t-46 -109.5t-107.5 -46.5t-107.5 46t-46 110z" />
<glyph unicode=";" horiz-adv-x="493" d="M68 160q0 66 47 109.5t110 43.5q104 0 171 -86t67 -239.5t-109 -286.5q-111 -131 -286 -172v55q125 63 176 144.5t51 218.5q0 39 -10 49t-47 10q-74 0 -122 44t-48 110zM96 725q0 63 45 107.5t109.5 44.5t108.5 -44t44 -108q0 -63 -46 -109.5t-107 -46.5t-107.5 46 t-46.5 110z" />
<glyph unicode="?" horiz-adv-x="630" d="M16 1364l9 72q100 118 241 133q218 23 294 -167q55 -137 10 -266q-45 -126 -128.5 -271.5t-126.5 -231.5q-103 -206 -100 -322h-49q12 100 62.5 221t107.5 238t105 220.5t58.5 170t-3 128t-44.5 108.5q-69 102 -188 102q-101 0 -198 -83q-29 -25 -50 -52zM78 117 q0 49 34.5 84t84.5 35q49 0 83.5 -35t34.5 -84t-34.5 -84t-83.5 -35t-84 35t-35 84z" />
<glyph unicode="A" horiz-adv-x="1251" d="M125 0v55q89 42 127 111q20 31 29 63l385 1379l127 4l362 -1383q11 -61 54.5 -106t93.5 -68v-55h-414v55q80 42 90 111q6 31 -2 59l-53 211l-445 2l-63 -207q-7 -29 -7 -53q0 -57 37 -92q27 -27 93 -31v-55h-414zM506 541l391 2l-180 714z" />
<glyph unicode="B" horiz-adv-x="1159" d="M102 1554v54h551q173 0 299 -114q125 -113 125 -273q0 -119 -69.5 -213.5t-180.5 -139.5q191 -58 257 -268q22 -68 22 -152.5t-32 -167.5t-85 -146q-117 -138 -264 -138h-116q-108 0 -132 6h-358v55q122 20 172 97q23 35 24 73l-18 1155q-4 75 -83 132q-40 28 -112 40z M446 1507q0 -12 1.5 -66.5t3.5 -136t4 -182t4 -200.5q25 -18 53.5 -16.5t70 1.5t89 27t83.5 72q76 95 76 219q0 123 -73 205q-76 86 -178 86q-27 0 -69 2h-9q-36 0 -56 -11zM459 834q8 -476 8 -607q7 -65 63 -109q40 -32 84 -32q51 0 110 42q89 63 136 188q25 63 32 155 q1 15 1 30q0 74 -29 136q-35 74 -81 119t-87 64q-40 20 -54 23q-10 2 -28 2h-12q-26 -1 -52 -4t-49.5 -6.5t-41.5 -0.5z" />
<glyph unicode="C" horiz-adv-x="1280" d="M90 836q0 363 171 623q79 120 185.5 188.5t222.5 68.5t211 -35.5t173 -138.5q16 -18 30 -18q37 0 47 92h29v-410h-29q-35 83 -86 154q-27 33 -49 65.5t-47 62.5q-61 72 -135 101q-55 23 -106 23q-52 0 -100 -24q-95 -48 -164.5 -162.5t-109.5 -278.5t-40 -346 q0 -372 121 -552q92 -139 246 -139q51 0 108 15q125 36 184 95q33 34 62.5 86t70.5 130l62 -96q-80 -160 -204 -250t-258 -90t-240.5 62.5t-185.5 173.5q-169 236 -169 600z" />
<glyph unicode="D" horiz-adv-x="1361" d="M53 1567v53h543q27 2 56 2h55q127 0 237.5 -61.5t193.5 -168t131 -250t48 -304.5q0 -162 -49 -313.5t-134 -268.5t-198 -186.5t-238 -69.5l-94 2h-534v53q120 20 172 99q23 35 24 73l-18 1168q-4 74 -83 131q-40 28 -112 41zM395 1393l19 -1166q0 -58 49 -104 q42 -29 148.5 -29t199 57.5t159.5 156.5q148 215 148 511q0 295 -148 507q-67 97 -159 153.5t-197 56.5q-80 0 -165 -37q-54 -49 -54 -106z" />
<glyph unicode="E" horiz-adv-x="958" d="M35 1573v55h371l360 2h8l137 4l-6 -354h-35q-11 139 -31 175t-37.5 47t-47.5 18q-46 12 -146 12q-92 0 -229 -10l10 -631l121 -2q75 4 132 61q28 29 42 84h53v-403h-53q-23 88 -100 129q-35 16 -74 18l-119 -4l8 -551v-11q0 -55 27 -96q14 -20 43 -18h123q49 0 98 -1h30 q28 0 48 1q51 2 71.5 57.5t28.5 200.5l35 2l19 -354l-140 -2q-2 0 -4 2h-2l-334 -8h-391v55q123 21 172 99q23 35 27 73l-21 1176q-4 75 -83 133q-40 29 -111 41z" />
<glyph unicode="F" horiz-adv-x="937" d="M45 1556v54h361l344 4h6l139 4l-6 -350h-35q-11 133 -28 167.5t-32.5 42t-43.5 11.5q-58 8 -167.5 8t-187.5 -2l6 -575h107q75 4 132 61q28 29 42 82h53v-397h-53q-22 83 -100 125q-35 16 -74 18l-107 -4l9 -580q4 -74 81 -131q39 -28 113 -41v-53h-543v53q123 21 172 99 q23 35 25 73l-18 1159q-4 75 -83 132q-40 28 -112 40z" />
<glyph unicode="G" horiz-adv-x="1335" d="M117 831q0 364 171 624q79 120 185.5 188.5t222 68.5t210.5 -36t173 -138q16 -18 33 -18q35 0 45 92h29v-410h-29q-29 69 -86 154q-27 33 -49.5 65.5t-47.5 62.5q-64 73 -134 101q-55 23 -106 23q-52 0 -100 -24q-95 -48 -165 -162.5t-110 -278.5t-40 -346 q0 -378 121 -557q96 -143 246 -143q51 0 107 16q124 28 136 62q19 57 19 104v15q-4 52 -12 94t-34 74q-47 59 -120 73v79l496 -2v-77q-89 -17 -138 -79q-34 -44 -34 -132v-213h-84q-53 -29 -88 -47l-55 -27q-97 -42 -189 -42q-113 0 -220 63q-218 130 -308 438 q-45 153 -45 335z" />
<glyph unicode="H" horiz-adv-x="1597" d="M158 0v53q113 19 164 97q23 33 24 71l-4 1141q-4 76 -77 128q-38 28 -107 40v53h516v-53q-119 -20 -162 -96q-23 -35 -25 -72v-561l650 2l-2 561q-4 76 -77 128q-38 28 -108 40v53h516v-53q-118 -20 -161 -96q-23 -35 -25 -72l2 -1141q4 -75 77 -127q38 -28 107 -41v-53 h-516v53q116 20 164 97q23 33 25 71l-2 482l-650 -3l2 -481q4 -75 77 -127q38 -28 108 -41v-53h-516z" />
<glyph unicode="I" horiz-adv-x="710" d="M115 1554v54h542v-54q-121 -20 -172 -98q-23 -35 -24 -74l20 -1159q4 -74 82 -129q39 -28 113 -41v-53h-543v53q125 21 172 97q23 35 25 73l-21 1159q-4 76 -83 132q-40 28 -111 40z" />
<glyph unicode="J" horiz-adv-x="634" d="M47 -111l47 43q40 -52 73 -52q25 0 45 30q50 73 50 409l-20 1170q-4 76 -83 131q-40 27 -112 41v53h543v-53q-124 -23 -172 -98q-23 -35 -25 -74l19 -1170q-2 8 2 -20.5t6 -79.5q1 -34 1 -74v-41q-1 -63 -13 -124q-30 -145 -106 -183q-57 -28 -105 -28q-55 0 -97 38 q-35 31 -53 82z" />
<glyph unicode="K" horiz-adv-x="1280" d="M43 1575v53h543v-53q-122 -20 -172 -98q-23 -35 -25 -74l8 -506q84 98 158 187.5t147.5 177.5t122.5 151q8 12 8 27q0 38 -53 95q-22 24 -51 40v53h336v-53q-23 -29 -44.5 -57.5t-42 -53.5t-40.5 -51l-371 -448l539 -705q60 -91 159 -158q52 -36 121 -55v-53l-272 4 l-643 848l-72 -86l9 -524q4 -75 81 -132q39 -28 113 -41v-53h-543v53q123 21 172 99q23 35 25 74l-18 1167q-4 75 -83 131q-40 29 -112 41z" />
<glyph unicode="L" horiz-adv-x="1036" d="M39 1554v54h543v-54q-122 -20 -172 -100q-23 -35 -25 -74l23 -1269h434q58 51 88 237h51l4 -354l-209 2l-8 2h-522l-13 1382q-4 75 -82 132q-40 30 -112 42z" />
<glyph unicode="M" horiz-adv-x="1662" d="M35 1577v55h278l504 -905l418 903l364 2v-55q-119 -19 -172 -98q-23 -35 -24 -74l18 -1176q4 -75 82 -133q39 -28 113 -41v-55h-543v55q123 21 172 99q23 35 27 75l-21 1176v6l-438 -973l-520 967l14 -1176q4 -75 61 -133q29 -28 85 -41v-55h-406v55q91 21 129 99 q16 35 19 75l-15 1176q-4 76 -62 131q-30 29 -83 41z" />
<glyph unicode="N" horiz-adv-x="1310" d="M86 1559v53h266l656 -1299l-13 1067q-4 74 -62 130q-30 28 -83 40v54h405v-54q-88 -19 -129 -98q-16 -35 -18 -72l14 -1163q4 -74 62 -131q28 -29 84 -39v-55h-281l-641 1229l14 -996q4 -73 62 -131q29 -28 84 -41v-53h-408v53q91 20 129 99q16 35 19 73l-15 1161 q-4 76 -62 132q-30 28 -83 41z" />
<glyph unicode="O" horiz-adv-x="1243" d="M35 877q0 363 171 623q79 120 185 188.5t227 68.5t227.5 -68.5t185.5 -188.5q171 -260 171 -623q0 -364 -171 -624q-79 -120 -185.5 -188.5t-227.5 -68.5t-227 68.5t-185 188.5q-171 260 -171 624zM207 874q0 -330 119 -560q55 -107 128.5 -169.5t157.5 -62.5t158 62.5 t129 169.5q119 233 119 560q0 326 -119 558q-55 108 -129 170.5t-158 62.5t-157.5 -62.5t-128.5 -170.5q-119 -229 -119 -558z" />
<glyph unicode="P" horiz-adv-x="1024" d="M51 1565v55h359q297 0 443 -140q126 -122 126 -333q0 -190 -123 -327q-122 -136 -300 -136q-91 0 -146 29l6 -490q4 -74 82 -131q39 -29 112 -41v-53h-542v53q120 20 172 99q23 35 26 73l-20 1170q-4 74 -83 131q-40 28 -112 41zM397 1534l13 -766h13q5 0 15 -2 q22 -3 43 -3q135 0 232 105q106 116 106 283q0 160 -111.5 271.5t-269.5 111.5h-41z" />
<glyph unicode="Q" horiz-adv-x="1263" d="M47 858q0 359 171 614q79 117 185.5 185.5t227.5 68.5t227.5 -68.5t185.5 -185.5q170 -256 170 -614t-170 -614q-79 -117 -185.5 -185.5t-227.5 -68.5q-10 0 -20.5 1t-20.5 1q31 -8 99 -35q148 -58 210 -76q72 -16 109 -16t96 16v-41q-112 -68 -133 -88q-10 0 -49 4 t-76 14q-84 24 -168 56q-207 70 -256 70q-34 0 -74 -23l-76 -47v53q124 100 211 131q10 -2 22.5 -3t26.5 -5q-208 54 -346 294q-139 243 -139 562zM219 855q0 -155 32 -291t87 -237.5t129 -159.5t158 -58t158.5 58t130.5 159q118 217 118 528q0 313 -118 530 q-56 101 -130.5 159.5t-158.5 58.5t-158 -58.5t-129 -160t-87 -237.5t-32 -291z" />
<glyph unicode="R" horiz-adv-x="1296" d="M88 1565v53h358q299 0 444 -140q126 -123 126 -331q0 -145 -71 -260t-185 -168q107 -55 198 -156q68 -76 96 -187q15 -59 26 -112q25 -129 48 -149q54 -42 136 -58v-55h-334q4 81 4 144q0 98 -10 152q-17 90 -52.5 157t-97 132.5t-121.5 98.5q-28 -4 -55 -4 q-96 0 -152 29l7 -490q4 -75 81 -131q39 -29 113 -41v-53h-543v53q122 20 172 98q23 35 27 74l-20 1172q-4 74 -83 131q-40 28 -112 41zM434 1532l10 -764q10 -2 15.5 -2t15.5 -2q22 -3 43 -3q134 0 232 105q106 115 106 283q0 160 -112 271q-113 114 -269 114z" />
<glyph unicode="S" horiz-adv-x="874" d="M39 1345.5q0 69.5 31.5 141.5t87.5 125q119 114 288 114q225 0 310 -100v45h67v-334h-78q0 143 -66 236q-70 98 -183 98q-119 0 -200 -96q-83 -98 -83 -232q0 -51 38 -97t64.5 -74.5t51.5 -57.5l360 -389q106 -122 117 -285q1 -13 1 -27q0 -56 -14 -110 q-21 -125 -133 -211q-114 -88 -274.5 -88t-282.5 88v-96h-57v414h55q3 -166 60 -242q25 -37 57 -49q75 -41 146 -41t128.5 29.5t96.5 78.5q60 76 60 163q0 40 -13 83q-24 69 -99 166l-362 410q-97 97 -149 212q-25 56 -25 125.5z" />
<glyph unicode="T" horiz-adv-x="1075" d="M37 1346v288l139 6l776 2l90 -8v-288h-34q-17 100 -70 139q-25 18 -53 20h-262l18 -1276q4 -75 82 -133q39 -28 113 -41v-55h-543v55q120 20 172 99q23 35 27 75l-23 1276h-287q-46 -4 -84 -68q-18 -32 -26 -91h-35z" />
<glyph unicode="U" horiz-adv-x="1394" d="M55 1565v55h543v-55q-123 -20 -172 -99q-23 -35 -25 -73l17 -965q0 -103 76 -188q76 -86 188 -86t194 95q80 91 80 197l-14 959q-4 76 -82 131q-41 29 -112 41v55h542v-55q-119 -19 -172 -98q-23 -35 -24 -74l20 -1178q4 -73 82 -131q39 -28 113 -41v-55h-351l3 248 q-69 -131 -131 -176q-77 -54 -216 -54q-138 0 -241 134q-94 123 -107 276l-16 965q-4 74 -83 131q-40 28 -112 41z" />
<glyph unicode="V" horiz-adv-x="1103" d="M-53 1567v53h542v-53q-134 -10 -182 -94q-17 -31 -17 -66q0 -7 1 -14l268 -1004l295 1008q3 19 3 36q0 64 -47 105q-32 27 -103 33v53h407v-53q-76 -44 -123 -115q-23 -33 -33 -63l-401 -1393h-51l-365 1393q-27 120 -194 174z" />
<glyph unicode="W" horiz-adv-x="2066" d="M61 1577v53h543v-53q-135 -10 -180 -94q-17 -31 -17 -66q0 -7 1 -14l266 -997l264 905q26 87 26 146q0 85 -54 109q-29 13 -70 17v53h491v-53q-132 -13 -153 -94q-3 -13 -3 -28q0 -25 9 -52l270 -1010l293 1008q5 21 5 40q0 61 -47 101q-32 27 -103 33v53h407v-53 q-76 -44 -123 -115q-23 -33 -33 -63l-401 -1393h-51l-344 1309l-383 -1309h-51l-367 1393q-16 71 -90 125q-39 28 -105 49z" />
<glyph unicode="X" horiz-adv-x="1277" d="M29 6v55q61 34 131 125q25 37 41 74l329 596l-284 537q-21 50 -78 96.5t-117 77.5v53h543v-53q-137 -10 -182 -94q-16 -29 -16 -63q0 -14 3 -28l256 -462l236 454q3 17 3 32q0 31 -13 56q-49 95 -185 105v57h543v-57q-89 -45 -158 -123q-25 -31 -37 -60l-299 -606 l277 -518q28 -64 76.5 -119t95.5 -80v-55h-408v55q102 22 102 93q0 7 -1 14q-4 37 -31 78l-242 454l-249 -454q-31 -47 -31 -87q0 -29 16 -53q21 -30 86 -45v-55h-407z" />
<glyph unicode="Y" horiz-adv-x="1394" d="M131 1563v61h543v-61q-136 -10 -180 -105q-18 -36 -18 -72q0 -14 3 -28l240 -475l235 479l4 12q1 9 1 17q0 83 -74 139q-41 31 -125 39v61h543v-61q-154 -88 -195 -195l-311 -637l8 -516q4 -72 81 -129q40 -29 113 -39v-53h-542v53q119 17 172 97q23 35 24 71l-8 516 l-319 631q-40 103 -195 195z" />
<glyph unicode="Z" horiz-adv-x="1208" d="M63 1331l7 285l157 -8l918 -4l2 -123l-891 -1362q253 -8 409 -8t217 2q140 5 170.5 13.5t43.5 31.5q17 29 39 118l36 -2l-4 -284l-157 8l-942 4v121l905 1360l-750 2q-52 -4 -91 -65q-21 -31 -32 -91z" />
<glyph unicode="`" horiz-adv-x="1105" d="M492 1823l114 354h99l-181 -354h-32z" />
<glyph unicode="a" horiz-adv-x="882" d="M166 564q57 89 229 167q53 25 99.5 46.5t64.5 37.5v96q0 72 -21.5 127.5t-43.5 98.5q-49 86 -124 86t-130 -74t-80 -203l-39 19q25 182 103.5 288.5t193.5 106.5t194 -125q78 -127 78 -346v-553q0 -119 8 -159t35 -40q16 0 29 23q10 27 24 100h37q-6 -121 -46 -191.5 t-96 -70.5t-79.5 45t-42.5 137q-39 -72 -121 -143q-45 -39 -106 -39q-90 0 -158 100q-66 101 -66 237q0 139 58 229zM262 379.5q0 -104.5 34 -173.5t82 -69t93 47q75 69 88 115v436q-16 -10 -50 -25q-176 -81 -214 -163q-33 -63 -33 -167.5z" />
<glyph unicode="b" horiz-adv-x="991" d="M10 2v53q90 20 127 97q16 35 19 73l2 1014l-6 289q-9 22 -30 22q-13 0 -30 -8q-18 -8 -37 -29l-30 56l251 143l5 -475v-2v2q88 72 182 72t170 -53.5t132 -144.5q122 -198 122 -476q0 -632 -406 -639l-205 6h-266zM266 225q7 -89 82 -131q49 -28 105 -28h13q62 4 106 47 t77 117q70 155 70 399q0 237 -79 406q-36 77 -83 121t-85 44t-69.5 -12t-59.5 -37q-61 -55 -67 -139z" />
<glyph unicode="c" horiz-adv-x="753" d="M76 616q0 297 106 491q105 193 267 193h2q59 0 121.5 -25t79.5 -25.5t20.5 10t9.5 30.5l33 -2v-370l-45 -3q-14 86 -23.5 150.5t-38.5 105.5q-55 82 -151 82q-63 0 -106.5 -37.5t-79.5 -115.5q-68 -147 -68 -408q0 -431 152 -573q46 -43 110 -43q123 0 201 143l16 -47 q-33 -58 -64 -88q-80 -86 -181 -86t-187 80q-174 166 -174 538z" />
<glyph unicode="d" horiz-adv-x="1069" d="M109 649q0 284 125 487q123 201 298 201q104 0 193 -75h2l-4 311q-11 21 -31 21q-27 0 -69 -38l-31 60l258 145l4 -1530q4 -76 62 -133q30 -30 88 -43v-55h-273l-209 -4q-413 7 -413 653zM281 641q0 -245 71 -407q33 -76 78 -120t85 -46h20q29 0 56 4q36 6 67 24 q74 44 81 135l-8 801q-4 86 -69 144q-57 51 -113.5 51t-104 -45t-84.5 -124q-79 -172 -79 -417z" />
<glyph unicode="e" horiz-adv-x="815" d="M78 641q0 279 108 473q113 193 267 193q129 0 225 -143.5t96 -348.5v-24h-547v-19q0 -304 84 -490q27 -59 64 -100q70 -86 146.5 -86t127.5 51q49 45 137 207v-90q-68 -143 -137 -205q-72 -61 -170 -61q-174 0 -286 182q-115 182 -115 461zM227 850h406v22 q0 168 -56.5 264.5t-144.5 96.5t-143 -101.5t-62 -281.5z" />
<glyph unicode="f" horiz-adv-x="595" d="M29 4v55q90 20 131 99q16 35 18 75l-16 1344q0 60 82 113q77 49 142.5 49t110 -17.5t77.5 -47.5q69 -63 69 -154l-104 -181l-54 -4l-2 246q-31 78 -95 78q-9 0 -18 -1q-42 -6 -61.5 -30t-19.5 -49l2 -621h147l25 -127h-166l-4 -598q4 -77 62 -133q30 -28 87 -41v-55h-413 z" />
<glyph unicode="g" horiz-adv-x="1144" d="M37 -63q0 84 73 150.5t236 129.5v6q-92 18 -153 64q-55 45 -56 100q0 147 297 246v4q-143 37 -223 125q-78 90 -78 215q0 160 115 267t293 108l252 -11h307v-100h-254q109 -124 109 -260t-105 -244q-106 -102 -231 -109t-229.5 -65.5t-104.5 -105.5t55 -72 q64 -27 218 -52q267 -44 353 -75t138 -88q49 -59 49 -131q0 -158 -172 -268q-174 -109 -401.5 -109t-358.5 76q-129 76 -129 199zM295 -177q139 -65 321.5 -65t281.5 55.5t99 144.5t-114.5 137t-448.5 102q-278 -68 -278 -210q0 -99 139 -164zM305 991q0 -141 64.5 -230 t173.5 -89t174 86q63 88 63 231t-65.5 228.5t-172 85.5t-169.5 -86q-68 -85 -68 -226z" />
<glyph unicode="h" horiz-adv-x="1097" d="M123 -2v53q90 20 129 101q16 35 20 75l-16 1342q-11 22 -32 22q-13 0 -29 -8q-18 -8 -39 -29l-31 58l256 145l4 -780q62 100 129 153q59 51 139 52q117 0 193 -107q74 -109 74 -291v-505q0 -135 25.5 -177.5t103.5 -42.5v-53h-416v53q80 0 108 37q25 37 25 150v565 q0 111 -43 180.5t-117 69.5q-127 0 -221 -195l2 -639q4 -74 63 -134q29 -30 85 -42v-53h-412z" />
<glyph unicode="i" horiz-adv-x="540" d="M86 2v41q133 24 150 129l-17 997q-20 26 -49.5 14.5t-50.5 -26.5l-31 43l256 109l6 -1137q4 -58 62 -98q30 -21 86 -31v-41h-412zM154 1470q0 47 33.5 79t81.5 32t83 -32t35 -79t-35 -78.5t-83 -31.5t-81.5 31.5t-33.5 78.5z" />
<glyph unicode="j" horiz-adv-x="471" d="M35 -182q123 36 195 202q38 86 42 234l-16 995q-20 26 -49.5 14.5t-50.5 -24.5l-31 43l258 109l4 -1137q3 -33 3 -65q0 -143 -62 -257q-86 -156 -289 -188zM180 1559q0 47 35 78.5t83 31.5t82 -31.5t34 -78.5t-34 -79t-82 -32t-83 31.5t-35 79.5z" />
<glyph unicode="k" horiz-adv-x="1110" d="M106 0v53q88 19 130 101q16 35 20 75l-18 1342q-11 22 -33 22q-13 0 -29 -8q-18 -8 -37 -29l-30 58l256 145l4 -1003q72 76 134 140q132 136 216 243q6 7 6 19q-1 17 -13 42q-20 43 -65 74v43l252 -10l2 -58q-75 -94 -96 -116l-279 -328l410 -592q87 -140 215 -188v-43 l-207 24l-491 713l-84 -74l2 -416q4 -76 62 -133q30 -30 85 -43v-53h-412z" />
<glyph unicode="l" horiz-adv-x="514" d="M45 2v53q132 29 150 174l-19 1336q-11 22 -32 22q-13 0 -29 -8q-18 -8 -37 -29l-31 58l256 143l6 -1522q4 -76 63 -133q29 -28 85 -41v-53h-412z" />
<glyph unicode="m" horiz-adv-x="1464" d="M43 6v41q140 25 150 129l-17 983q-21 28 -50 15t-50 -25l-31 43l258 106v-131q59 93 100 131q59 59 140 60q134 0 211 -156q8 -18 14 -39q35 59 106.5 126.5t149.5 68.5q117 0 190 -125q76 -121 76 -334v-588q0 -156 26 -205t103 -49v-61h-415v61q80 0 106.5 41t26.5 174 v656q0 131 -43 211q-47 78 -117 78q-69 0 -129 -60q-16 -16 -38 -42.5t-24 -63.5q4 -41 4.5 -72t2.5 -80l18 -586q0 -156 25 -205.5t102 -50.5v-61h-414v61q82 0 108 42q25 40 25 163v10v656q0 135 -45 211q-43 80 -115.5 80t-127.5 -60q-16 -16 -35 -37.5t-29 -56.5l4 -889 q4 -58 63 -98q29 -21 85 -31v-41h-414z" />
<glyph unicode="n" horiz-adv-x="993" d="M47 2v41q133 24 150 127l-17 985q-12 16 -33 16t-67 -26l-31 41l258 108v-131q60 95 101 131q59 59 139 60q115 0 192 -123q74 -127 74 -336v-586q0 -156 26 -206t103 -50v-61h-416v61q80 0 109 43q24 41 24 162v10v656q0 131 -43 211t-114 80v-1q-72 0 -131 -59 q-16 -16 -35 -37.5t-29 -56.5l4 -891q4 -59 63 -98q29 -19 85 -29v-41h-412z" />
<glyph unicode="o" horiz-adv-x="878" d="M57 717q0 289 114 473q52 84 123.5 129t151.5 45t152 -45t124 -129q114 -184 114 -473q0 -295 -114 -510q-52 -98 -124 -154.5t-152 -56.5t-151.5 56.5t-123.5 154.5q-114 215 -114 510zM199 702q0 -247 73 -435q33 -83 78 -130t95 -47t94.5 48t76.5 132q68 183 68 435 q0 243 -75 397q-70 143 -173 143q-102 0 -170 -145q-67 -143 -67 -398z" />
<glyph unicode="p" horiz-adv-x="937" d="M53 -279q91 17 129 95q16 33 19 69l-17 1258q-12 20 -37.5 20t-60.5 -35l-31 54l250 125l2 -88q42 86 201 90q356 -7 356 -639q0 -281 -107 -476q-50 -92 -117 -145t-127 -53q-113 0 -202 84v-195q4 -70 61 -125q29 -28 85 -39v-51h-404v51zM309 1079l2 -784 q0 -83 67 -141q57 -50 106.5 -50t90.5 44.5t73 121.5q69 164 69 408q0 241 -61 400q-60 153 -152 161q-10 1 -20 1q-96 0 -150 -78q-23 -32 -25 -83z" />
<glyph unicode="q" horiz-adv-x="882" d="M37 682q0 646 356 653q150 0 201 -94v90l250 -127l-31 -55q-33 37 -59 37h-2q-27 -2 -37 -23l-17 -1282q4 -73 63 -127q30 -28 85 -41v-53h-404v53q90 20 127 97q16 33 19 71v199q-37 -35 -89.5 -60.5t-113 -25.5t-126.5 54t-115 148q-107 201 -107 486zM184 690 q0 -247 69 -416q32 -79 73 -124.5t75 -45.5t63.5 13.5t57.5 38.5q66 59 66 143l4 803q-10 132 -140 158q-21 4 -44 4q-11 0 -23 -1q-35 -3 -73 -46t-66 -119q-62 -164 -62 -408z" />
<glyph unicode="r" horiz-adv-x="796" d="M45 2v41q133 24 150 127l-19 979q-18 24 -48.5 12t-49.5 -24l-31 43l256 106l2 -407q170 372 375 389q8 1 15 1q40 0 83 -18l-80 -217q-132 0 -260 -104q-69 -56 -133 -166l4 -594q4 -59 63 -98q29 -19 85 -29v-41h-412z" />
<glyph unicode="s" horiz-adv-x="710" d="M86 1038.5q0 71.5 23.5 128t63.5 98.5q87 91 210 91q164 0 227 -80v37h52v-262h-58q0 172 -108 241q-33 21 -76 21q-87 0 -146 -76q-61 -77 -61 -182q0 -50 75 -135l38 -46l264 -307q87 -109 88 -237q0 -46 -12 -94q-17 -99 -99 -166q-85 -68 -202 -68t-203 68 q-2 -16 -2 -28.5t2 -47.5h-43v325h39q3 -129 45 -190q18 -29 43 -39q55 -33 108 -33q46 0 91 25q89 50 111 150q6 26 6 47t-6 39q-11 34 -21 54q-24 49 -56 95l-266 324q-16 8 -53 64q-74 112 -74 183.5z" />
<glyph unicode="t" horiz-adv-x="653" d="M29 1106v98h262l-2 168q-13 20 -34 20q-13 0 -28 -8q-18 -8 -39 -24l-30 49l258 129v-334h202v-98h-202l4 -905q4 -69 62 -119q30 -25 85 -35v-47h-411v47q87 16 129 88q16 31 20 66l-12 905h-264z" />
<glyph unicode="u" horiz-adv-x="1024" d="M27 1253v45h407v-45q-90 -16 -129 -77q-16 -27 -18 -60l10 -774q0 -83 57 -150q61 -69 142 -69q80 0 144 77q60 71 60 156l-10 768q-4 61 -62 106q-30 23 -83 34v43h407v-43q-85 -15 -129 -80q-16 -27 -18 -60l14 -942q3 -58 61 -106q29 -23 85 -33v-43h-263l3 199 q-48 -101 -87.5 -132.5t-78.5 -42t-95 -10.5q-104 0 -181 108q-70 99 -79 220l-12 774q-4 62 -62 105q-30 22 -83 32z" />
<glyph unicode="v" horiz-adv-x="1052" d="M39 1235v43h428v-43q-111 -7 -143 -74q-14 -29 -13 -63l213 -791l230 795q4 17 4 32q0 48 -37 80q-25 21 -82 25v43h322v-43q-95 -52 -123 -141l-316 -1098h-41l-288 1098q-11 54 -71 98q-30 23 -83 39z" />
<glyph unicode="w" horiz-adv-x="1478" d="M25 1241v43h403v-43q-103 -7 -135 -74q-11 -23 -11 -48q0 -7 1 -15l198 -795l197 721q18 68 18 115q0 69 -40 89q-21 11 -52 13v43h365v-45q-98 -10 -113 -74q-3 -12 -3 -24q0 -19 7 -39l201 -805l219 803q2 14 2 27q0 51 -34 85q-23 23 -77 27v43h302v-43 q-51 -29 -91 -90q-16 -25 -24 -51l-299 -1110h-37l-256 1042l-285 -1042h-39l-272 1110q-7 51 -68 98q-28 23 -77 39z" />
<glyph unicode="x" horiz-adv-x="1081" d="M131 0v43q68 44 117 160l227 479l-196 430q-13 38 -53 76.5t-81 62.5v43h373v-43q-135 -10 -135 -127v-12l176 -379l162 365q3 13 3 26q0 21 -8 42q-29 78 -128 85v47h373v-47q-78 -48 -109 -98q-18 -25 -25 -47l-206 -488l190 -415q33 -101 117 -158v-45h-279v45 q70 16 70 76v10q-2 29 -21 62l-166 364l-172 -364q-20 -38 -20 -70q0 -23 10 -43q12 -25 60 -37v-43h-279z" />
<glyph unicode="y" horiz-adv-x="937" d="M45 1233v41h344v-41q-61 -12 -61 -76q0 -27 12 -57l172 -490l123 459q16 59 16 90q0 68 -71 74v41l331 -4v-41q-59 0 -95 -47t-66 -156l-285 -1020q-23 -74 -54.5 -123t-56 -80.5t-51.5 -50t-55 -32.5q-59 -27 -100.5 -27t-90.5 37l47 149q41 -20 72 -20q69 0 109 43 q48 53 80 164l84 319l-259 717q-29 80 -56.5 104.5t-88.5 26.5z" />
<glyph unicode="z" horiz-adv-x="933" d="M31 0v96l725 1090l-592 -4q-78 -8 -98 -123h-31l8 227l123 -6l725 4l2 -98l-715 -1092q152 -4 244 -4t147.5 1t104.5 2q105 2 132 11q42 14 56 66q8 25 12 55h29l-6 -227l-123 6z" />
<glyph unicode="~" />
<glyph unicode="&#xa1;" horiz-adv-x="423" d="M53 6l127 1135h84l98 -1135h-309zM59 1405.5q0 71.5 50.5 120.5t121.5 49q72 0 122 -49t50 -121t-49 -121q-51 -51 -123 -51q-71 0 -121.5 50.5t-50.5 122z" />
<glyph unicode="&#xbf;" horiz-adv-x="630" d="M40 440q42 122 126 270t128 234q101 197 101 320h49q-12 -100 -62 -220t-107.5 -237t-106.5 -220.5t-59 -170t3 -129t44 -109.5q69 -102 190 -102q99 0 198 86q29 24 50 51l-8 -74q-96 -114 -244 -133q-215 -23 -292 167q-55 136 -10 267zM295 1459q0 48 35 83t83 35 t82.5 -35t34.5 -83t-34.5 -83t-82.5 -35t-83 35t-35 83z" />
<glyph unicode="&#xc0;" horiz-adv-x="1267" d="M43 0v55q89 42 127 111q20 31 29 63l385 1379l127 4l362 -1383q11 -61 54.5 -106t93.5 -68v-55h-414v55q80 42 90 111q6 31 -2 59l-53 211l-445 2l-63 -207q-23 -95 30 -145q27 -27 93 -31v-55h-414zM424 541l391 2l-180 714zM463 2028h98l115 -355h-33z" />
<glyph unicode="&#xc1;" horiz-adv-x="1267" d="M43 0v55q89 42 127 111q20 31 29 63l385 1379l127 4l362 -1383q11 -61 54.5 -106t93.5 -68v-55h-414v55q80 42 90 111q6 31 -2 59l-53 211l-445 2l-63 -207q-23 -95 30 -145q27 -27 93 -31v-55h-414zM424 541l391 2l-180 714zM629 1653l116 354h97l-178 -354h-35z" />
<glyph unicode="&#xc8;" horiz-adv-x="1011" d="M61 1577v55h371l361 2h8l137 4l-6 -354h-35q-11 136 -31 173.5t-37.5 49t-47.5 18.5q-94 22 -375 1l10 -631l121 -2q74 4 131 61q28 29 43 84h53v-403h-53q-24 92 -101 129q-35 16 -73 18l-119 -4l8 -551q-3 -64 26 -107q15 -20 44 -18h122q49 0 98.5 -1t78.5 1 q51 2 71.5 57.5t28.5 200.5l35 2l18 -354l-139 -2q-2 0 -4 2h-2l-334 -8h-391v55q120 20 172 99q23 35 26 73l-20 1176q-4 74 -83 133q-40 29 -112 41zM365 2058h98l117 -354h-35z" />
<glyph unicode="&#xc9;" d="M477 1573v55h371l360 2h9l137 4l-6 -354h-35q-11 136 -31 173.5t-37.5 48.5t-47.5 18q-90 23 -376 2l10 -631l121 -2q75 4 132 61q28 29 42 84h54v-403h-54q-24 90 -100 129q-35 16 -74 18l-118 -4l8 -551q-3 -64 26 -107q15 -20 43 -18h123q49 0 98.5 -1t77.5 1 q51 2 72 57.5t29 200.5l35 2l18 -354l-139 -2q-2 0 -4 2h-2l-334 -8h-391v55q120 20 172 99q23 35 26 73l-20 1176q-4 74 -83 133q-40 29 -112 41zM780 1688l117 354h98l-180 -354h-35z" />
<glyph unicode="&#xcc;" horiz-adv-x="626" d="M29 1554v54h542v-54q-121 -20 -172 -98q-23 -35 -24 -74l20 -1159q4 -74 82 -129q39 -28 113 -41v-53h-543v53q125 21 172 97q23 35 25 73l-21 1159q-4 76 -83 132q-40 28 -111 40zM127 2028h98l115 -355h-35z" />
<glyph unicode="&#xcd;" horiz-adv-x="626" d="M29 1554v54h542v-54q-121 -20 -172 -98q-23 -35 -24 -74l20 -1159q4 -74 82 -129q39 -28 113 -41v-53h-543v53q125 21 172 97q23 35 25 73l-21 1159q-4 76 -83 132q-40 28 -111 40zM254 1671l115 354h98l-180 -354h-33z" />
<glyph unicode="&#xd2;" horiz-adv-x="1243" d="M35 877q0 363 171 623q79 120 185 188.5t227 68.5t227.5 -68.5t185.5 -188.5q171 -260 171 -623q0 -364 -171 -624q-79 -120 -185.5 -188.5t-227.5 -68.5t-227 68.5t-185 188.5q-171 260 -171 624zM207 874q0 -330 119 -560q55 -107 128.5 -169.5t157.5 -62.5t158 62.5 t129 169.5q119 233 119 560q0 326 -119 558q-55 108 -129 170.5t-158 62.5t-157.5 -62.5t-128.5 -170.5q-119 -229 -119 -558zM418 2173h98l115 -354h-35z" />
<glyph unicode="&#xd3;" horiz-adv-x="1243" d="M35 877q0 363 171 623q79 120 185 188.5t227 68.5t227.5 -68.5t185.5 -188.5q171 -260 171 -623q0 -364 -171 -624q-79 -120 -185.5 -188.5t-227.5 -68.5t-227 68.5t-185 188.5q-171 260 -171 624zM207 874q0 -330 119 -560q55 -107 128.5 -169.5t157.5 -62.5t158 62.5 t129 169.5q119 233 119 560q0 326 -119 558q-55 108 -129 170.5t-158 62.5t-157.5 -62.5t-128.5 -170.5q-119 -229 -119 -558zM549 1817l115 354h98l-180 -354h-33z" />
<glyph unicode="&#xd9;" horiz-adv-x="1333" d="M55 1565v55h543v-55q-123 -20 -172 -99q-23 -35 -25 -73l17 -965q0 -103 76 -188q76 -86 188 -86t194 95q80 91 80 197l-14 959q-4 76 -82 131q-41 29 -112 41v55h542v-55q-119 -19 -172 -98q-23 -35 -24 -74l20 -1178q4 -73 82 -131q39 -28 113 -41v-55h-351l3 248 q-69 -131 -131 -176q-77 -54 -216 -54q-138 0 -241 134q-94 123 -107 276l-16 965q-4 74 -83 131q-40 28 -112 41zM535 2066h98l115 -354h-35z" />
<glyph unicode="&#xda;" horiz-adv-x="1333" d="M55 1565v55h543v-55q-123 -20 -172 -99q-23 -35 -25 -73l17 -965q0 -103 76 -188q76 -86 188 -86t194 95q80 91 80 197l-14 959q-4 76 -82 131q-41 29 -112 41v55h542v-55q-119 -19 -172 -98q-23 -35 -24 -74l20 -1178q4 -73 82 -131q39 -28 113 -41v-55h-351l3 248 q-69 -131 -131 -176q-77 -54 -216 -54q-138 0 -241 134q-94 123 -107 276l-16 965q-4 74 -83 131q-40 28 -112 41zM666 1706l114 354h99l-181 -354h-32z" />
<glyph unicode="&#xe0;" horiz-adv-x="757" d="M22.5 337.5q0.5 137.5 57.5 226.5t229 167q53 25 99.5 46.5t64.5 37.5v96q0 72 -21.5 127.5t-43.5 98.5q-49 86 -124 86t-130 -74t-80 -203l-39 19q25 182 103.5 288.5t193.5 106.5t194 -125q78 -127 78 -346v-553q0 -119 8 -159t35 -40q16 0 29 23q10 27 24 100h37 q-6 -121 -46 -191.5t-96 -70.5t-79.5 45t-42.5 137q-39 -72 -121 -143q-45 -39 -106 -39q-90 0 -158 100q-66 102 -65.5 239.5zM147 1767h99l114 -354h-34zM176 379.5q0 -104.5 34 -173.5t82 -69t93 47q75 69 88 115v436q-16 -10 -50 -25q-176 -81 -214 -163 q-33 -63 -33 -167.5z" />
<glyph unicode="&#xe1;" horiz-adv-x="780" d="M32.5 345.5q0.5 137.5 57.5 226.5t229 167q53 25 99.5 46.5t64.5 37.5v97q0 72 -21.5 127t-43.5 98q-49 86 -124 86t-130 -74t-80 -203l-39 19q25 182 103.5 289t193.5 106.5t195 -125.5q78 -127 77 -346v-553q0 -119 8.5 -159t34.5 -40q16 0 29 23q10 27 25 100h37 q-6 -121 -46.5 -191.5t-96.5 -70.5t-79.5 45t-42.5 137q-29 -53 -63.5 -87.5t-68.5 -64.5t-95 -30q-90 0 -158 100q-66 102 -65.5 239.5zM186 387.5q0 -104.5 34 -173.5t82 -69t93 48q25 23 51.5 51t36.5 63v436q-16 -10 -50 -25q-175 -80 -214 -163q-33 -63 -33 -167.5z M369 1423l114 355h99l-181 -355h-32z" />
<glyph unicode="&#xe8;" horiz-adv-x="784" d="M47 641q0 279 109 473q113 193 266 193q129 0 225 -143.5t96 -348.5v-24h-546v-19q0 -307 83 -490q27 -59 64 -100q70 -86 147 -86t127 51q49 45 138 207v-90q-68 -143 -138 -205q-72 -61 -169 -61q-174 0 -288 182t-114 461zM197 850h405v22q0 168 -56 264.5 t-144.5 96.5t-143.5 -101.5t-61 -281.5zM233 1679h99l114 -354h-34z" />
<glyph unicode="&#xe9;" horiz-adv-x="784" d="M47 641q0 279 109 473q113 193 266 193q129 0 225 -143.5t96 -348.5v-24h-546v-19q0 -307 83 -490q27 -59 64 -100q70 -86 147 -86t127 51q49 45 138 207v-90q-68 -143 -138 -205q-72 -61 -169 -61q-174 0 -288 182t-114 461zM197 850h405v22q0 168 -56 264.5 t-144.5 96.5t-143.5 -101.5t-61 -281.5zM381 1329l115 354h98l-180 -354h-33z" />
<glyph unicode="&#xec;" horiz-adv-x="483" d="M31 2v41q136 25 149 131l-16 995q-19 26 -49.5 14.5t-51.5 -24.5l-30 41l256 109l6 -1135q4 -61 62 -100q30 -21 85 -31v-41h-411zM41 1763h98l115 -354h-35z" />
<glyph unicode="&#xed;" horiz-adv-x="489" d="M39 -6v41q136 25 149 131l-16 995q-21 28 -50 15t-50 -25l-31 41l256 108l6 -1134q4 -60 63 -100q29 -21 85 -31v-41h-412zM139 1401l115 354h98l-180 -354h-33z" />
<glyph unicode="&#xf2;" horiz-adv-x="878" d="M57 717q0 289 114 473q52 84 123.5 129t151.5 45t152 -45t124 -129q114 -184 114 -473q0 -295 -114 -510q-52 -98 -124 -154.5t-152 -56.5t-151.5 56.5t-123.5 154.5q-114 215 -114 510zM199 702q0 -247 73 -435q33 -83 78 -130t95 -47t94.5 48t76.5 132q68 183 68 435 q0 243 -75 397q-70 143 -173 143q-102 0 -170 -145q-67 -143 -67 -398zM256 1874h98l115 -354h-35z" />
<glyph unicode="&#xf3;" horiz-adv-x="878" d="M57 717q0 289 114 473q52 84 123.5 129t151.5 45t152 -45t124 -129q114 -184 114 -473q0 -295 -114 -510q-52 -98 -124 -154.5t-152 -56.5t-151.5 56.5t-123.5 154.5q-114 215 -114 510zM199 702q0 -247 73 -435q33 -83 78 -130t95 -47t94.5 48t76.5 132q68 183 68 435 q0 243 -75 397q-70 143 -173 143q-102 0 -170 -145q-67 -143 -67 -398zM344 1501l115 354h98l-180 -354h-33z" />
<glyph unicode="&#xf9;" horiz-adv-x="989" d="M27 1253v45h407v-45q-90 -16 -129 -77q-16 -27 -18 -60l10 -774q0 -83 57 -150q61 -69 142 -69q80 0 144 77q60 71 60 156l-10 768q-4 61 -62 106q-30 23 -83 34v43h407v-43q-85 -15 -129 -80q-16 -27 -18 -60l14 -942q3 -58 61 -106q29 -23 85 -33v-43h-263l3 199 q-48 -101 -87.5 -132.5t-78.5 -42t-95 -10.5q-104 0 -181 108q-70 99 -79 220l-12 774q-4 62 -62 105q-30 22 -83 32zM371 1761h98l115 -354h-35z" />
<glyph unicode="&#xfa;" horiz-adv-x="989" d="M27 1253v45h407v-45q-90 -16 -129 -77q-16 -27 -18 -60l10 -774q0 -83 57 -150q61 -69 142 -69q80 0 144 77q60 71 60 156l-10 768q-4 61 -62 106q-30 23 -83 34v43h407v-43q-85 -15 -129 -80q-16 -27 -18 -60l14 -942q3 -58 61 -106q29 -23 85 -33v-43h-263l3 199 q-48 -101 -87.5 -132.5t-78.5 -42t-95 -10.5q-104 0 -181 108q-70 99 -79 220l-12 774q-4 62 -62 105q-30 22 -83 32zM446 1415l115 354h98l-180 -354h-33z" />
<glyph unicode="&#xff;" />
<glyph unicode="&#x2dc;" d="M555 1468v43q106 82 172 105l84 -14q41 -12 88 -31q112 -45 163.5 -58.5t87.5 -13.5t79 14v-34q-8 -4 -15.5 -9.5t-20.5 -13.5q-26 -16 -39 -23t-19.5 -13.5t-14.5 -12.5q-9 0 -34 4q-56 9 -75 14q-65 19 -178.5 58.5t-143 40t-39 -2.5t-16.5 -7.5t-18 -8.5z" />
<glyph unicode="&#x2000;" horiz-adv-x="1088" />
<glyph unicode="&#x2001;" horiz-adv-x="2177" />
<glyph unicode="&#x2002;" horiz-adv-x="1088" />
<glyph unicode="&#x2003;" horiz-adv-x="2177" />
<glyph unicode="&#x2004;" horiz-adv-x="725" />
<glyph unicode="&#x2005;" horiz-adv-x="544" />
<glyph unicode="&#x2006;" horiz-adv-x="362" />
<glyph unicode="&#x2007;" horiz-adv-x="362" />
<glyph unicode="&#x2008;" horiz-adv-x="272" />
<glyph unicode="&#x2009;" horiz-adv-x="435" />
<glyph unicode="&#x200a;" horiz-adv-x="120" />
<glyph unicode="&#x201c;" horiz-adv-x="946" d="M41 1472q17 155 109 259q109 131 286 174v-56q-128 -71 -178 -147q-49 -80 -49 -217q0 -37 10 -47t47 -11q70 0 121 -45q49 -47 49 -109t-45 -107.5t-112 -45.5q-104 0 -173 86q-83 106 -65 266zM512 1439.5q0 155.5 109 284.5t286 172v-55q-127 -66 -177 -146.5 t-50 -217.5q0 -37 10 -47t47 -11q74 0 122 -46t48 -107t-45 -111q-47 -43 -112 -43q-104 0 -172 86q-66 86 -66 241.5z" />
<glyph unicode="&#x201d;" horiz-adv-x="929" d="M33 1118v56q129 63 178 145q51 78 51 217q0 37 -10 48t-66.5 11t-104.5 44t-48 110t48 110t109 44q106 0 173 -87t67 -241t-111 -286t-286 -171zM506 1110v55q127 66 177 145t50 218q0 37 -10 48t-65.5 11t-103.5 44t-48 110t45 109.5t111 43.5q109 0 172 -88 q68 -86 67.5 -239.5t-111 -285.5t-284.5 -171z" />
<glyph unicode="&#x202f;" horiz-adv-x="435" />
<glyph unicode="&#x205f;" horiz-adv-x="544" />
<glyph unicode="&#xe000;" horiz-adv-x="1300" d="M0 0v1300h1300v-1300h-1300z" />
</font>
</defs>
</svg>
